<svg xmlns="http://www.w3.org/2000/svg" width="368.545" height="84.76" viewBox="0 0 368.545 84.76">
  <g id="Group_45708" data-name="Group 45708" transform="translate(-327 -66)">
    <path id="Path_28148" data-name="Path 28148" d="M-135.641,0h-2.86l4.62-15.8h3.124L-126.181,0h-2.948l-.836-3.256h-4.774Zm1.628-5.962h3.3l-1.628-6.336Zm9.328-5.742h2.42v2.09a5.136,5.136,0,0,1,1.144-1.87,2.2,2.2,0,0,1,1.518-.528h.165q.055,0,.341.044v3.124a1.262,1.262,0,0,0-.3-.044h-.341a2.324,2.324,0,0,0-1.848.682,3.157,3.157,0,0,0-.594,2.112V0h-2.508Zm9.438,1.8a3.789,3.789,0,0,1,1.122-1.609,2.731,2.731,0,0,1,1.694-.5,2.468,2.468,0,0,1,1.463.4,4.237,4.237,0,0,1,1.133,1.487,4.243,4.243,0,0,1,1.177-1.464,2.573,2.573,0,0,1,1.507-.422,3,3,0,0,1,1.32.286,3.078,3.078,0,0,1,1.023.792,3.538,3.538,0,0,1,.66,1.232,5.277,5.277,0,0,1,.231,1.606V0h-2.508V-7.09q0-2.3-1.43-2.3-1.694,0-1.694,2.392V0h-2.508V-7.024a3.7,3.7,0,0,0-.33-1.844,1.266,1.266,0,0,0-1.166-.527q-1.606,0-1.606,2.282V0h-2.508V-11.686h2.42ZM-96.349-.2q-.484,1.694-.825,2.673a5.509,5.509,0,0,1-.715,1.474,1.617,1.617,0,0,1-.858.627A4.9,4.9,0,0,1-100,4.708h-.451q-.209,0-.759-.044V2.2a.962.962,0,0,0,.253.044h.275a2.52,2.52,0,0,0,.671-.077.92.92,0,0,0,.451-.275,1.62,1.62,0,0,0,.3-.539,5.229,5.229,0,0,0,.209-.869L-102.6-11.7h2.816l2.068,8.712,1.98-8.712h2.684Zm8.91-15.6h2.882q.572,3.014.935,4.906t.583,3.124q.22,1.232.341,2.035t.231,1.617q.154-1.078.308-2.178t.363-2.431q.209-1.331.484-3.047t.649-4.026h2.882q.352,2.068.616,3.564t.451,2.607q.187,1.111.319,1.881t.22,1.386q.088.616.165,1.133l.165,1.111q.11-.748.253-1.6t.374-2.123q.231-1.276.594-3.179l.913-4.785h2.75L-74.613,0h-2.6q-.33-1.914-.572-3.333t-.429-2.508q-.187-1.089-.319-1.914t-.242-1.573q-.11-.748-.22-1.474t-.242-1.628q-.286,1.782-.484,3.058t-.352,2.244q-.154.968-.275,1.738T-80.6-3.839l-.286,1.694q-.154.913-.374,2.145h-2.508ZM-61.281-3.454a7.468,7.468,0,0,1-.682,1.76A4.123,4.123,0,0,1-62.975-.55a4.13,4.13,0,0,1-2.618.858A4.09,4.09,0,0,1-69.069-1.3a7.529,7.529,0,0,1-1.21-4.6,7.421,7.421,0,0,1,1.2-4.5,3.937,3.937,0,0,1,3.355-1.617,3.887,3.887,0,0,1,3.377,1.661,8.263,8.263,0,0,1,1.177,4.807v.55h-6.578a3.975,3.975,0,0,0,.638,2.145,1.867,1.867,0,0,0,1.562.671,1.6,1.6,0,0,0,1.672-1.276Zm-2.486-3.564q-.264-2.464-1.98-2.464a1.55,1.55,0,0,0-1.3.594,3.962,3.962,0,0,0-.638,1.87ZM-56.9,0h-2.508V-15.8H-56.9Zm5.324,0h-2.508V-9.5h-1.386v-2.2h1.386v-.946a3.756,3.756,0,0,1,.715-2.541,2.843,2.843,0,0,1,2.233-.8q.374,0,.649.011t.539.033v2.486h-.726a2.088,2.088,0,0,0-.484.044.427.427,0,0,0-.264.176.935.935,0,0,0-.121.4,5.7,5.7,0,0,0-.033.682v.462h1.672v2.2h-1.672Zm2.772-7.92A7.985,7.985,0,0,1-48.543-9.5a3.574,3.574,0,0,1,.55-1.078,3.818,3.818,0,0,1,3.41-1.43,4.259,4.259,0,0,1,2.882.88,3.145,3.145,0,0,1,1.012,2.508v6.336a4.684,4.684,0,0,0,.121,1.254.941.941,0,0,0,.429.572V0h-2.706q-.066-.22-.1-.374T-43-.671q-.022-.143-.044-.308t-.044-.407a5.105,5.105,0,0,1-1.419,1.32,3.274,3.274,0,0,1-1.617.374,2.75,2.75,0,0,1-2.189-.924,3.692,3.692,0,0,1-.8-2.508,4.06,4.06,0,0,1,.726-2.519,3.208,3.208,0,0,1,2.09-1.2l2.266-.418a.917.917,0,0,0,.88-.968q0-1.32-1.562-1.32a1.657,1.657,0,0,0-1.188.363,2.1,2.1,0,0,0-.484,1.265ZM-43.153-5.7a1.541,1.541,0,0,1-.6.363,9.7,9.7,0,0,1-1.129.275,2.633,2.633,0,0,0-1.351.583,1.591,1.591,0,0,0-.376,1.155,1.581,1.581,0,0,0,.321,1.045,1.1,1.1,0,0,0,.9.385,2.191,2.191,0,0,0,.874-.176,2.09,2.09,0,0,0,.708-.5A2.488,2.488,0,0,0-43.33-3.3a2.287,2.287,0,0,0,.177-.9Zm4.686-6.006h2.42v2.09a5.136,5.136,0,0,1,1.144-1.87,2.2,2.2,0,0,1,1.518-.528h.165q.055,0,.341.044v3.124a1.262,1.262,0,0,0-.3-.044h-.341a2.324,2.324,0,0,0-1.848.682,3.157,3.157,0,0,0-.594,2.112V0h-2.508Zm15.29,8.25a7.468,7.468,0,0,1-.682,1.76A4.123,4.123,0,0,1-24.871-.55a4.13,4.13,0,0,1-2.618.858A4.09,4.09,0,0,1-30.965-1.3a7.529,7.529,0,0,1-1.21-4.6,7.421,7.421,0,0,1,1.2-4.5,3.937,3.937,0,0,1,3.355-1.617,3.887,3.887,0,0,1,3.377,1.661,8.263,8.263,0,0,1,1.177,4.807v.55h-6.578a3.975,3.975,0,0,0,.638,2.145,1.867,1.867,0,0,0,1.562.671,1.6,1.6,0,0,0,1.672-1.276Zm-2.486-3.564q-.264-2.464-1.98-2.464a1.55,1.55,0,0,0-1.3.594,3.962,3.962,0,0,0-.638,1.87ZM-6.677-12.98h-6.886V-9.7h6.336v2.816h-6.336v4.07h7.194V0h-9.812V-15.8h9.5ZM4.433,0H1.969V-1.54A3.312,3.312,0,0,1,.825-.132,3.021,3.021,0,0,1-.847.308a3.236,3.236,0,0,1-1.672-.44A3.819,3.819,0,0,1-3.8-1.4a6.588,6.588,0,0,1-.814-1.98A10.872,10.872,0,0,1-4.9-5.984a9.931,9.931,0,0,1,.286-2.475,6.186,6.186,0,0,1,.814-1.9A3.851,3.851,0,0,1-2.53-11.583a3.24,3.24,0,0,1,1.661-.429A2.772,2.772,0,0,1,.7-11.58,4.1,4.1,0,0,1,1.925-10.1v-5.676H4.433ZM-.154-9.306a1.745,1.745,0,0,0-1.554.932A4.942,4.942,0,0,0-2.277-5.8a5.211,5.211,0,0,0,.558,2.61,1.714,1.714,0,0,0,1.543.965,1.805,1.805,0,0,0,1.62-.91,4.921,4.921,0,0,0,.569-2.6A5.157,5.157,0,0,0,1.455-8.4,1.78,1.78,0,0,0-.154-9.306Zm15.5,9.289h-2.42V-1.733A3.788,3.788,0,0,1,11.7-.18,3.068,3.068,0,0,1,9.933.308a2.8,2.8,0,0,1-2.4-1.131,5.311,5.311,0,0,1-.836-3.2v-7.7H9.207v7.26q0,2.156,1.628,2.156a1.737,1.737,0,0,0,1.474-.7,3.2,3.2,0,0,0,.528-1.958v-6.754h2.508ZM25.993-4.268a5.849,5.849,0,0,1-1.408,3.41A3.96,3.96,0,0,1,21.593.308,3.856,3.856,0,0,1,18.3-1.243,7.37,7.37,0,0,1,17.149-5.7a7.781,7.781,0,0,1,1.209-4.664,3.916,3.916,0,0,1,3.345-1.65,4.329,4.329,0,0,1,2.211.555,3.869,3.869,0,0,1,1.507,1.62,4.96,4.96,0,0,1,.231.487,3.751,3.751,0,0,1,.165.507,5.413,5.413,0,0,1,.11.594q.044.33.088.748H23.463A3.056,3.056,0,0,0,22.9-8.943a1.328,1.328,0,0,0-1.067-.451q-2.068,0-2.068,3.575,0,3.6,1.914,3.6a1.5,1.5,0,0,0,1.2-.561,2.631,2.631,0,0,0,.561-1.485ZM27.4-7.92A7.984,7.984,0,0,1,27.665-9.5a3.574,3.574,0,0,1,.55-1.078,3.818,3.818,0,0,1,3.41-1.43,4.259,4.259,0,0,1,2.882.88,3.145,3.145,0,0,1,1.012,2.508v6.336a4.684,4.684,0,0,0,.121,1.254.941.941,0,0,0,.429.572V0H33.363q-.066-.22-.1-.374t-.055-.3q-.022-.143-.044-.308t-.044-.407A5.105,5.105,0,0,1,31.7-.066a3.274,3.274,0,0,1-1.617.374A2.75,2.75,0,0,1,27.9-.616a3.692,3.692,0,0,1-.8-2.508,4.06,4.06,0,0,1,.726-2.519,3.208,3.208,0,0,1,2.09-1.2l2.266-.418a.917.917,0,0,0,.88-.968q0-1.32-1.562-1.32a1.657,1.657,0,0,0-1.188.363,2.1,2.1,0,0,0-.484,1.265ZM33.055-5.7a1.541,1.541,0,0,1-.6.363,9.7,9.7,0,0,1-1.129.275,2.633,2.633,0,0,0-1.351.583A1.591,1.591,0,0,0,29.6-3.322a1.581,1.581,0,0,0,.321,1.045,1.1,1.1,0,0,0,.9.385,2.191,2.191,0,0,0,.874-.176,2.09,2.09,0,0,0,.708-.5,2.488,2.488,0,0,0,.476-.737,2.287,2.287,0,0,0,.177-.9ZM40.579-11.7h1.584v2.2H40.579v6.358a1.1,1.1,0,0,0,.187.781,1.418,1.418,0,0,0,.847.165h.209a2.771,2.771,0,0,0,.341-.044V.088l-.517.033q-.187.011-.308.011h-.715A2.759,2.759,0,0,1,38.654-.44,2.682,2.682,0,0,1,38.071-2.4V-9.5h-1.3v-2.2h1.3v-3.168h2.508Zm5.786,0V0H43.857V-11.7Zm0-1.386H43.857v-2.86h2.508Zm6.842,1.078a4.435,4.435,0,0,1,1.991.44,4.4,4.4,0,0,1,1.529,1.254,5.855,5.855,0,0,1,.979,1.947,8.8,8.8,0,0,1,.341,2.541,8.466,8.466,0,0,1-.352,2.519,5.881,5.881,0,0,1-.99,1.936,4.424,4.424,0,0,1-1.54,1.243,4.556,4.556,0,0,1-2.024.44,4.556,4.556,0,0,1-2.024-.44,4.424,4.424,0,0,1-1.54-1.243,5.881,5.881,0,0,1-.99-1.936,8.467,8.467,0,0,1-.352-2.519A8.74,8.74,0,0,1,48.587-8.4a5.867,5.867,0,0,1,.99-1.947,4.262,4.262,0,0,1,1.562-1.232A4.853,4.853,0,0,1,53.207-12.012Zm-.088,2.618a1.873,1.873,0,0,0-1.689.918,4.945,4.945,0,0,0-.577,2.624,4.862,4.862,0,0,0,.588,2.635,1.9,1.9,0,0,0,1.7.907,1.9,1.9,0,0,0,1.7-.907,4.862,4.862,0,0,0,.588-2.635A4.853,4.853,0,0,0,54.841-8.5,1.93,1.93,0,0,0,53.119-9.394Zm9.108-.51a3.943,3.943,0,0,1,1.2-1.609,2.916,2.916,0,0,1,1.749-.5,3.021,3.021,0,0,1,2.42,1.056,4.258,4.258,0,0,1,.9,2.86V0H65.989V-7.09A3.109,3.109,0,0,0,65.6-8.856a1.423,1.423,0,0,0-1.243-.538,1.771,1.771,0,0,0-1.507.724,3.241,3.241,0,0,0-.539,1.976V0H59.807V-11.686h2.42Zm15.73,5.042a2.486,2.486,0,0,0,2.838,2.574,3.151,3.151,0,0,0,1.936-.517,1.775,1.775,0,0,0,.682-1.507A1.471,1.471,0,0,0,82.919-5.5a5.4,5.4,0,0,0-1.854-.814l-1.382-.4a13.728,13.728,0,0,1-1.919-.66,3.477,3.477,0,0,1-1.086-.748,4.264,4.264,0,0,1-1.1-3.146,4.97,4.97,0,0,1,1.287-3.641,4.845,4.845,0,0,1,3.619-1.309,4.921,4.921,0,0,1,3.641,1.309,5.662,5.662,0,0,1,1.463,3.8h-2.6a2.9,2.9,0,0,0-.77-1.826,2.6,2.6,0,0,0-1.826-.572A2.584,2.584,0,0,0,78.694-13a1.735,1.735,0,0,0-.6,1.408,1.57,1.57,0,0,0,.309,1.045,2.3,2.3,0,0,0,1.059.605L82.634-9a5.164,5.164,0,0,1,2.6,1.54,4.284,4.284,0,0,1,.794,2.75,5.008,5.008,0,0,1-1.4,3.762A5.314,5.314,0,0,1,80.759.418a6.13,6.13,0,0,1-2.987-.682,4.305,4.305,0,0,1-1.86-1.98,4.834,4.834,0,0,1-.4-1.144,10.363,10.363,0,0,1-.154-1.474ZM92.3-12.012a4.435,4.435,0,0,1,1.991.44,4.4,4.4,0,0,1,1.529,1.254A5.855,5.855,0,0,1,96.8-8.371a8.8,8.8,0,0,1,.341,2.541,8.467,8.467,0,0,1-.352,2.519,5.882,5.882,0,0,1-.99,1.936,4.424,4.424,0,0,1-1.54,1.243,4.556,4.556,0,0,1-2.024.44,4.556,4.556,0,0,1-2.024-.44,4.424,4.424,0,0,1-1.54-1.243,5.881,5.881,0,0,1-.99-1.936,8.466,8.466,0,0,1-.352-2.519A8.739,8.739,0,0,1,87.681-8.4a5.867,5.867,0,0,1,.99-1.947,4.262,4.262,0,0,1,1.562-1.232A4.853,4.853,0,0,1,92.3-12.012Zm-.088,2.618a1.873,1.873,0,0,0-1.689.918,4.945,4.945,0,0,0-.577,2.624,4.862,4.862,0,0,0,.588,2.635,1.9,1.9,0,0,0,1.7.907,1.9,1.9,0,0,0,1.7-.907,4.862,4.862,0,0,0,.588-2.635A4.853,4.853,0,0,0,93.935-8.5,1.93,1.93,0,0,0,92.213-9.394Zm14.982,5.126a5.849,5.849,0,0,1-1.408,3.41A3.96,3.96,0,0,1,102.795.308,3.856,3.856,0,0,1,99.5-1.243,7.37,7.37,0,0,1,98.351-5.7a7.781,7.781,0,0,1,1.209-4.664,3.916,3.916,0,0,1,3.345-1.65,4.329,4.329,0,0,1,2.211.555,3.869,3.869,0,0,1,1.507,1.62,4.959,4.959,0,0,1,.231.487,3.75,3.75,0,0,1,.165.507,5.414,5.414,0,0,1,.11.594q.044.33.088.748h-2.552a3.056,3.056,0,0,0-.561-1.441,1.328,1.328,0,0,0-1.067-.451q-2.068,0-2.068,3.575,0,3.6,1.914,3.6a1.5,1.5,0,0,0,1.2-.561,2.631,2.631,0,0,0,.561-1.485Zm4.334-7.436V0h-2.508V-11.7Zm0-1.386h-2.508v-2.86h2.508ZM122.2-3.454a7.468,7.468,0,0,1-.682,1.76A4.123,4.123,0,0,1,120.5-.55a4.13,4.13,0,0,1-2.618.858A4.09,4.09,0,0,1,114.411-1.3a7.529,7.529,0,0,1-1.21-4.6,7.421,7.421,0,0,1,1.2-4.5,3.937,3.937,0,0,1,3.355-1.617,3.887,3.887,0,0,1,3.377,1.661,8.263,8.263,0,0,1,1.177,4.807v.55h-6.578a3.975,3.975,0,0,0,.638,2.145,1.867,1.867,0,0,0,1.562.671A1.6,1.6,0,0,0,119.6-3.454Zm-2.486-3.564q-.264-2.464-1.98-2.464a1.55,1.55,0,0,0-1.3.594,3.962,3.962,0,0,0-.638,1.87ZM126.8-11.7h1.584v2.2H126.8v6.358a1.1,1.1,0,0,0,.187.781,1.418,1.418,0,0,0,.847.165h.209a2.77,2.77,0,0,0,.341-.044V.088l-.517.033q-.187.011-.308.011h-.715a2.759,2.759,0,0,1-1.969-.572,2.682,2.682,0,0,1-.583-1.958V-9.5h-1.3v-2.2h1.3v-3.168H126.8ZM135.245-.2q-.484,1.694-.825,2.673a5.509,5.509,0,0,1-.715,1.474,1.617,1.617,0,0,1-.858.627,4.895,4.895,0,0,1-1.254.132h-.451q-.209,0-.759-.044V2.2a.962.962,0,0,0,.253.044h.275a2.52,2.52,0,0,0,.671-.077.92.92,0,0,0,.451-.275,1.621,1.621,0,0,0,.3-.539,5.228,5.228,0,0,0,.209-.869L129-11.7h2.816l2.068,8.712,1.98-8.712h2.684Z" transform="translate(557 110)" fill="#0a305f"/>
    <path id="Path_28149" data-name="Path 28149" d="M-71.059-5.078H-75.73v3.5h5.461V0h-7.437V-11.375h7.383v1.594H-75.73v3.141h4.672Zm1.859.789a5.026,5.026,0,0,1,.906-3.137,2.9,2.9,0,0,1,2.43-1.184,2.759,2.759,0,0,1,2.172.938V-12h1.9V0h-1.719l-.094-.875A2.8,2.8,0,0,1-65.879.156a2.887,2.887,0,0,1-2.4-1.2A5.21,5.21,0,0,1-69.2-4.289Zm1.9.164a3.519,3.519,0,0,0,.5,2.012,1.61,1.61,0,0,0,1.41.723,1.793,1.793,0,0,0,1.7-1.039V-6.039a1.766,1.766,0,0,0-1.687-1.016,1.622,1.622,0,0,0-1.422.73A3.918,3.918,0,0,0-67.3-4.125Zm12.609,3.3a2.944,2.944,0,0,1-2.375.984,2.624,2.624,0,0,1-2.082-.8,3.423,3.423,0,0,1-.707-2.328V-8.453h1.9V-3q0,1.609,1.336,1.609a1.876,1.876,0,0,0,1.867-.992v-6.07h1.9V0h-1.789Zm7.242-.531a1.716,1.716,0,0,0,1.18-.414,1.415,1.415,0,0,0,.5-1.023h1.789a2.789,2.789,0,0,1-.492,1.473,3.228,3.228,0,0,1-1.25,1.082,3.725,3.725,0,0,1-1.7.4A3.6,3.6,0,0,1-50.238-.992a4.555,4.555,0,0,1-1.039-3.172v-.2a4.479,4.479,0,0,1,1.031-3.09,3.571,3.571,0,0,1,2.813-1.16,3.473,3.473,0,0,1,2.457.879,3.148,3.148,0,0,1,1,2.309H-45.77a1.738,1.738,0,0,0-.5-1.2,1.6,1.6,0,0,0-1.184-.469,1.671,1.671,0,0,0-1.422.668,3.408,3.408,0,0,0-.508,2.027v.3a3.465,3.465,0,0,0,.5,2.051A1.669,1.669,0,0,0-47.449-1.359ZM-37.5,0a2.93,2.93,0,0,1-.219-.789,2.955,2.955,0,0,1-2.219.945A2.982,2.982,0,0,1-42.012-.57a2.325,2.325,0,0,1-.8-1.8,2.4,2.4,0,0,1,1-2.074,4.865,4.865,0,0,1,2.871-.723h1.164v-.555a1.481,1.481,0,0,0-.367-1.051,1.456,1.456,0,0,0-1.117-.395,1.672,1.672,0,0,0-1.062.324,1,1,0,0,0-.414.824h-1.9a2.107,2.107,0,0,1,.461-1.3,3.071,3.071,0,0,1,1.254-.949,4.4,4.4,0,0,1,1.77-.344,3.547,3.547,0,0,1,2.367.746,2.661,2.661,0,0,1,.906,2.1v3.813a4.321,4.321,0,0,0,.32,1.82V0Zm-2.086-1.367a2.16,2.16,0,0,0,1.059-.273,1.827,1.827,0,0,0,.746-.734V-3.969H-38.8a2.8,2.8,0,0,0-1.586.367,1.189,1.189,0,0,0-.531,1.039,1.109,1.109,0,0,0,.363.871A1.407,1.407,0,0,0-39.582-1.367Zm8.07-9.141v2.055h1.492v1.406h-1.492v4.719a1.039,1.039,0,0,0,.191.7.888.888,0,0,0,.684.215,2.924,2.924,0,0,0,.664-.078V-.023a4.676,4.676,0,0,1-1.25.18q-2.187,0-2.187-2.414V-7.047H-34.8V-8.453h1.391v-2.055ZM-26.551,0h-1.9V-8.453h1.9Zm-2.016-10.648a1.008,1.008,0,0,1,.277-.727,1.048,1.048,0,0,1,.793-.289,1.061,1.061,0,0,1,.8.289,1,1,0,0,1,.281.727.977.977,0,0,1-.281.715,1.069,1.069,0,0,1-.8.285,1.056,1.056,0,0,1-.793-.285A.984.984,0,0,1-28.566-10.648ZM-24.84-4.3a4.984,4.984,0,0,1,.492-2.238,3.6,3.6,0,0,1,1.383-1.531,3.9,3.9,0,0,1,2.047-.535,3.692,3.692,0,0,1,2.777,1.1,4.333,4.333,0,0,1,1.152,2.922l.008.445a5.029,5.029,0,0,1-.48,2.234A3.551,3.551,0,0,1-18.836-.383,3.925,3.925,0,0,1-20.9.156a3.667,3.667,0,0,1-2.863-1.191A4.563,4.563,0,0,1-24.84-4.211Zm1.9.164A3.406,3.406,0,0,0-22.4-2.1a1.752,1.752,0,0,0,1.5.738,1.733,1.733,0,0,0,1.5-.75,3.762,3.762,0,0,0,.535-2.2,3.362,3.362,0,0,0-.551-2.031,1.759,1.759,0,0,0-1.5-.75,1.743,1.743,0,0,0-1.477.738A3.691,3.691,0,0,0-22.941-4.141Zm9.328-4.312.055.977A3.039,3.039,0,0,1-11.1-8.609q2.641,0,2.688,3.023V0h-1.9V-5.477a1.741,1.741,0,0,0-.348-1.191,1.462,1.462,0,0,0-1.137-.387A1.829,1.829,0,0,0-13.5-6.016V0h-1.9V-8.453ZM6.77-5.391a6.979,6.979,0,0,1-.578,2.934A4.371,4.371,0,0,1,4.539-.52,4.545,4.545,0,0,1,2.066.156,4.556,4.556,0,0,1-.4-.52,4.438,4.438,0,0,1-2.07-2.445a6.761,6.761,0,0,1-.6-2.883v-.641a6.919,6.919,0,0,1,.59-2.937A4.433,4.433,0,0,1-.414-10.855a4.531,4.531,0,0,1,2.465-.676,4.57,4.57,0,0,1,2.465.668,4.377,4.377,0,0,1,1.66,1.922A6.9,6.9,0,0,1,6.77-6.023ZM4.793-5.984a4.973,4.973,0,0,0-.715-2.9A2.339,2.339,0,0,0,2.051-9.891a2.332,2.332,0,0,0-2,1,4.876,4.876,0,0,0-.738,2.84v.656a4.935,4.935,0,0,0,.73,2.9A2.352,2.352,0,0,0,2.066-1.469a2.325,2.325,0,0,0,2.02-1,5.041,5.041,0,0,0,.707-2.922ZM9.223,0V-7.047H7.934V-8.453H9.223v-.773A2.9,2.9,0,0,1,10-11.4a2.993,2.993,0,0,1,2.188-.766,4.388,4.388,0,0,1,1.063.141l-.047,1.484a3.739,3.739,0,0,0-.727-.062,1.219,1.219,0,0,0-1.359,1.4v.75H12.84v1.406H11.121V0ZM20.957-11.375l3.281,8.719,3.273-8.719h2.555V0H28.1V-3.75l.2-5.016L24.934,0H23.52L20.168-8.758l.2,5.008V0H18.395V-11.375ZM34.238,0h-1.9V-8.453h1.9ZM32.223-10.648a1.008,1.008,0,0,1,.277-.727,1.048,1.048,0,0,1,.793-.289,1.061,1.061,0,0,1,.8.289,1,1,0,0,1,.281.727.977.977,0,0,1-.281.715,1.069,1.069,0,0,1-.8.285,1.056,1.056,0,0,1-.793-.285A.984.984,0,0,1,32.223-10.648ZM38.324,0h-1.9V-12h1.9ZM42.41,0h-1.9V-8.453h1.9ZM40.395-10.648a1.008,1.008,0,0,1,.277-.727,1.048,1.048,0,0,1,.793-.289,1.061,1.061,0,0,1,.8.289,1,1,0,0,1,.281.727.977.977,0,0,1-.281.715,1.069,1.069,0,0,1-.8.285,1.056,1.056,0,0,1-.793-.285A.984.984,0,0,1,40.395-10.648Zm6.461.141v2.055h1.492v1.406H46.855v4.719a1.039,1.039,0,0,0,.191.7.888.888,0,0,0,.684.215,2.924,2.924,0,0,0,.664-.078V-.023a4.676,4.676,0,0,1-1.25.18q-2.187,0-2.187-2.414V-7.047H43.566V-8.453h1.391v-2.055ZM54.848,0a2.93,2.93,0,0,1-.219-.789A2.955,2.955,0,0,1,52.41.156,2.982,2.982,0,0,1,50.332-.57a2.325,2.325,0,0,1-.8-1.8,2.4,2.4,0,0,1,1-2.074A4.865,4.865,0,0,1,53.4-5.164h1.164v-.555A1.481,1.481,0,0,0,54.2-6.77a1.456,1.456,0,0,0-1.117-.395,1.672,1.672,0,0,0-1.062.324,1,1,0,0,0-.414.824h-1.9a2.107,2.107,0,0,1,.461-1.3,3.071,3.071,0,0,1,1.254-.949,4.4,4.4,0,0,1,1.77-.344,3.547,3.547,0,0,1,2.367.746,2.661,2.661,0,0,1,.906,2.1v3.813a4.321,4.321,0,0,0,.32,1.82V0ZM52.762-1.367a2.16,2.16,0,0,0,1.059-.273,1.827,1.827,0,0,0,.746-.734V-3.969H53.543a2.8,2.8,0,0,0-1.586.367,1.189,1.189,0,0,0-.531,1.039,1.109,1.109,0,0,0,.363.871A1.407,1.407,0,0,0,52.762-1.367ZM62.879-6.719a4.7,4.7,0,0,0-.773-.062,1.741,1.741,0,0,0-1.758,1V0h-1.9V-8.453h1.813l.047.945a2.139,2.139,0,0,1,1.906-1.1,1.777,1.777,0,0,1,.672.109Zm4.156,4,1.719-5.734h2.023L67.418,1.281a2.73,2.73,0,0,1-2.625,2.133,3.384,3.384,0,0,1-.914-.141V1.8l.359.023a1.848,1.848,0,0,0,1.082-.262,1.734,1.734,0,0,0,.574-.878l.273-.726L63.2-8.453h2.047Z" transform="translate(497 132)" fill="#da251c"/>
    <g id="Layer_2" data-name="Layer 2" transform="translate(327 66)">
      <g id="Layer_1" data-name="Layer 1">
        <path id="Path_28150" data-name="Path 28150" d="M526.25,664.8v-.059c.111,0,.222-.014.334-.014l4.907.029a.032.032,0,0,0,.014.043" transform="translate(-459.209 -580.048)" fill="#fbfdf9"/>
        <path id="Path_28151" data-name="Path 28151" d="M567.379,664.846a.032.032,0,0,1-.016-.019.031.031,0,0,1,0-.025c.127-.008.241-.022.362-.023h1.826c.009.024.017.048.025.071Z" transform="translate(-495.083 -580.091)" fill="#6b829f"/>
        <path id="Path_28152" data-name="Path 28152" d="M588.661,170.493H588.6v-.662l.066-.01Z" transform="translate(-513.616 -148.186)" fill="#6b829f"/>
        <path id="Path_28153" data-name="Path 28153" d="M74.979,21.644v.917a8.236,8.236,0,0,0-1.673,1.326,15.462,15.462,0,0,0-2.364,3.135,26.792,26.792,0,0,0-2.556,6.115,42.666,42.666,0,0,0-1.241,5.813c-.223,1.521-.382,3.049-.492,4.586-.195,2.623-.2,5.249-.153,7.875a17.874,17.874,0,0,0,.3,2.575,31.467,31.467,0,0,0,1.826,6.6,25.64,25.64,0,0,0,3.968,6.8,16.151,16.151,0,0,0,1.7,1.792.949.949,0,0,1,.32.764q-.038,3.39-.066,6.78-.033,3.44-.066,6.872a1.251,1.251,0,0,0,0,.682c0,.136,0,.274-.01.411H72.649c-.127,0-.241.015-.362.023l-4.907-.029c-.112,0-.223.009-.334.014s-.243-.017-.364-.017q-6.307-.041-12.612-.078l-10.783-.062-21.02-.117-11.211-.065q-4.994-.029-9.988-.054H.6c-.008-.127-.019-.233-.023-.34L.52,81.433Q.446,78.1.369,74.77C.336,73.385.3,72,.261,70.617A1.087,1.087,0,0,1,.582,69.8a24.218,24.218,0,0,0,2.73-3.55A36.189,36.189,0,0,0,7.9,55.582a41.951,41.951,0,0,0,1-5.52,30.957,30.957,0,0,0,.147-5.556A37.539,37.539,0,0,0,7.9,37.372a45.784,45.784,0,0,0-7.027-15C.6,21.987.306,21.624,0,21.223c.1-.064.194-.127.294-.19l9.6-5.762c1.065-.637,2.131-1.274,3.185-1.921a.637.637,0,0,1,.624-.078,1.3,1.3,0,0,0,.205.059.419.419,0,0,1,.262.189,3.842,3.842,0,0,0,2.628,1.67,4.869,4.869,0,0,0,1.97-.107,7.826,7.826,0,0,0,2.166-.892,4.594,4.594,0,0,0,1.019-.823,3.666,3.666,0,0,0,.947-2.842,5.519,5.519,0,0,0-.459-1.857.628.628,0,0,1-.029-.408.976.976,0,0,1,.577-.711Q30.013,3.855,37.018.138C37.11.094,37.2.051,37.3,0c.087.05.176.1.261.149L49.7,7.447a.919.919,0,0,1,.475.883,8.649,8.649,0,0,0,.4,2.978,4.912,4.912,0,0,0,3.745,3.482,6.055,6.055,0,0,0,5.915-1.668A.924.924,0,0,1,61.264,13l13.56,8.535C74.881,21.572,74.929,21.61,74.979,21.644ZM3.594,67.691l67.937.21c.025,0,.051-.022.1-.042-.036-.059-.062-.11-.1-.155-.493-.7-1.019-1.378-1.478-2.1a28.692,28.692,0,0,1-3.373-7.554,34.649,34.649,0,0,1-.9-3.985,17.315,17.315,0,0,1-.3-2.817q-.008-2.491.031-4.979c.014-.884.065-1.769.127-2.652.07-1.019.141-2.031.266-3.038.145-1.181.329-2.357.531-3.529a37.3,37.3,0,0,1,1.345-5.381,26.309,26.309,0,0,1,2.362-5.286A14.569,14.569,0,0,1,73.7,22.2a.473.473,0,0,0,.073-.113l-12.88-8.106a.442.442,0,0,0-.07.024c-.1.084-.2.167-.306.255a7,7,0,0,1-5.605,1.691A7.389,7.389,0,0,1,52.7,15.3,5.762,5.762,0,0,1,49.819,12.2,9.1,9.1,0,0,1,49.15,8.59a.413.413,0,0,0-.231-.417q-1.447-.852-2.882-1.727L40.492,3.11c-1-.6-2.009-1.2-3.008-1.812a.394.394,0,0,0-.448,0c-1.231.657-2.465,1.306-3.694,1.958L27.16,6.526l-3.4,1.8c-.088.046-.171.1-.261.155.093.338.187.647.264.962a5.614,5.614,0,0,1,.051,2.512,4.629,4.629,0,0,1-2,2.893A8.035,8.035,0,0,1,18.379,16.2a5.478,5.478,0,0,1-2.327-.127,4.892,4.892,0,0,1-2.339-1.487c-.073-.083-.15-.162-.245-.264L1.508,21.5c.1.144.175.261.255.375A42.677,42.677,0,0,1,4.539,26.3q1.177,2.144,2.14,4.39a44.609,44.609,0,0,1,2.068,5.933,36.235,36.235,0,0,1,.995,4.868c.1.808.219,1.614.273,2.42.062.975.071,1.953.089,2.93.008.478.006.958-.033,1.434-.074.9-.157,1.8-.279,2.7-.127.977-.293,1.95-.475,2.92-.206,1.089-.487,2.166-.794,3.228A37.737,37.737,0,0,1,6.1,63.375a33.47,33.47,0,0,1-2.326,4.017C3.721,67.473,3.674,67.559,3.594,67.691ZM1.6,83.279c.127,0,.2.014.283.015,1.568.014,3.135.031,4.7.041l10.965.062,10.506.06,10.994.061,10.691.061L60.8,83.64c1.578.009,3.157.008,4.735.017q3.772.022,7.543.05c.12,0,.238,0,.382-.009.036-3.3.07-6.562.106-9.828v-.637a.771.771,0,0,0-.01-.153c0-.008-.011-.017-.018-.024l-.025-.033c-.052,0-.112-.015-.172-.017-.712-.009-1.424-.024-2.136-.025q-11.593-.034-23.186-.062l-22.969-.061Q14.39,72.834,3.73,72.82c-.682,0-1.363-.018-2.038-.024-.107,0-.214.017-.34.027v.428q.027,1.113.056,2.228l.056,2.32q.034,1.375.064,2.748c.013.6.015,1.2.029,1.8C1.562,82.647,1.586,82.949,1.6,83.279Zm71.978-11.3V70.037a.3.3,0,0,0-.127-.229c-.241-.236-.484-.468-.715-.711a.494.494,0,0,0-.4-.169q-6.551-.017-13.1-.045l-18.053-.062L23.1,68.761,3.524,68.7c-.11,0-.218-.008-.317-.013l-.074-.31c-.046.025-.069.031-.08.045-.564.682-1.13,1.363-1.689,2.049a.436.436,0,0,0-.076.255c0,.3,0,.59.011.885a.947.947,0,0,0,.047.186H1.66l20.038.056,23.123.061,22.451.061q2.98.008,5.957.008Z" fill="#0f315e"/>
        <path id="Path_28154" data-name="Path 28154" d="M584.316,656.842a1.251,1.251,0,0,1,0-.682C584.319,656.387,584.317,656.614,584.316,656.842Z" transform="translate(-509.836 -572.569)" fill="#6b829f"/>
        <path id="Path_28155" data-name="Path 28155" d="M13.934,76.12c.08-.127.127-.218.182-.3a33.47,33.47,0,0,0,2.327-4.013,37.737,37.737,0,0,0,2.42-6.255c.307-1.066.587-2.139.794-3.228.182-.969.344-1.943.475-2.92.127-.892.205-1.8.279-2.7.039-.476.041-.957.033-1.434-.018-.977-.027-1.955-.089-2.93-.054-.812-.171-1.618-.273-2.42a36.235,36.235,0,0,0-.995-4.868,44.61,44.61,0,0,0-2.068-5.933,48.265,48.265,0,0,0-2.14-4.39A42.678,42.678,0,0,0,12.1,30.312c-.082-.113-.158-.231-.255-.375l11.96-7.176c.094.1.172.181.245.264a4.892,4.892,0,0,0,2.338,1.482,5.478,5.478,0,0,0,2.327.127,8.035,8.035,0,0,0,3.433-1.354,4.65,4.65,0,0,0,2-2.893,5.614,5.614,0,0,0-.051-2.512c-.076-.315-.171-.624-.264-.962.09-.054.173-.11.261-.155l3.4-1.8,6.181-3.27c1.232-.652,2.466-1.3,3.694-1.958a.394.394,0,0,1,.448,0c1,.61,2.01,1.206,3.01,1.809l5.547,3.336c.959.577,1.917,1.159,2.882,1.727a.413.413,0,0,1,.228.414,9.1,9.1,0,0,0,.669,3.605,5.743,5.743,0,0,0,2.877,3.108,7.389,7.389,0,0,0,2.213.647,6.988,6.988,0,0,0,5.605-1.691c.1-.085.2-.168.306-.255a.442.442,0,0,1,.07-.024L84.1,30.514a.473.473,0,0,1-.073.113,14.62,14.62,0,0,0-3.558,4.186A26.308,26.308,0,0,0,78.11,40.1a37.3,37.3,0,0,0-1.345,5.381c-.2,1.172-.382,2.348-.531,3.529-.127,1.008-.2,2.024-.266,3.038-.062.883-.113,1.768-.127,2.652q-.042,2.489-.031,4.979a17.316,17.316,0,0,0,.3,2.818,34.651,34.651,0,0,0,.9,3.985,28.638,28.638,0,0,0,3.373,7.554c.464.717.985,1.4,1.478,2.1.033.046.06.1.1.155-.047.02-.073.042-.1.042Zm45.31-8.707h0l.127-.12h.006a.459.459,0,0,0,.355-.372,1.986,1.986,0,0,0,.238-.181,17.406,17.406,0,0,0,3.237-19.5,17.03,17.03,0,0,0-3.921-5.329,16.5,16.5,0,0,0-4.2-2.8,16.294,16.294,0,0,0-9.348-1.349,16.109,16.109,0,0,0-4.482,1.357,16.623,16.623,0,0,0-4.331,2.93,16.972,16.972,0,0,0-2.477,2.892,17.254,17.254,0,0,0-2.236,4.729,17.445,17.445,0,0,0-.708,4.17,16.546,16.546,0,0,0,.1,2.773,17.747,17.747,0,0,0,.611,3.015,17.045,17.045,0,0,0,3.44,6.3,16.772,16.772,0,0,0,4.8,3.868,16.232,16.232,0,0,0,9.588,1.827,16.639,16.639,0,0,0,2.512-.489,16.319,16.319,0,0,0,5.05-2.4,12.024,12.024,0,0,0,1.563-1.266ZM41.679,29.741l-.079.025c-.764-1.666-1.491-3.353-2.259-5.026l-1.521.21,3.263,7.154,1.476-.19c.1-.934.2-1.842.3-2.75s.177-1.822.364-2.733q1.147,2.538,2.307,5.087c.468-.061.92-.121,1.372-.178.127-.018.153-.108.164-.218.027-.264.059-.526.093-.789q.2-1.512.4-3.023l.352-2.692c.042-.33.076-.661.118-1.019l-1.266.167c-.227,1.837-.448,3.646-.671,5.455-.84-1.668-1.589-3.363-2.376-5.05l-1.446.194c-.1.915-.2,1.8-.3,2.691S41.775,28.844,41.679,29.741Zm15.109,2.092a2.166,2.166,0,0,0-.057,2.029,4.48,4.48,0,0,0,1.721,1.852,3.516,3.516,0,0,0,1.511.53A2.322,2.322,0,0,0,62.3,34.97a1.627,1.627,0,0,0,.064-1.5,6.26,6.26,0,0,0-.471-.817c-.246-.362-.525-.7-.775-1.06a3.2,3.2,0,0,1-.376-.659.732.732,0,0,1,.531-1.019.916.916,0,0,1,.51,0,2.064,2.064,0,0,1,1.171.879.954.954,0,0,1,.14.845c-.022.066-.032.135-.051.222.2.1.4.2.6.3s.417.2.613.288a.5.5,0,0,0,.07-.064.437.437,0,0,0,.042-.08,1.656,1.656,0,0,0,.039-1.223,3.57,3.57,0,0,0-2.51-2.338,2.187,2.187,0,0,0-2.519.908,1.714,1.714,0,0,0-.32,1.469,1.92,1.92,0,0,0,.242.557c.265.409.554.8.831,1.205.206.3.423.6.606.913A.868.868,0,0,1,60,35.016a1.562,1.562,0,0,1-.848-.2,3.474,3.474,0,0,1-.95-.805,1.311,1.311,0,0,1-.318-1.106,4.094,4.094,0,0,1,.127-.431Zm-25.9-3.2c.27.857.534,1.7.8,2.54s.525,1.668.794,2.5.51,1.682.822,2.539l1-.664c-.191-.608-.382-1.195-.568-1.8L36.219,32.1l1.605,1.11,1.274-.837-6.752-4.707Zm24.61,3.2-3.58-.976.606-1.984,2.827.764a8.879,8.879,0,0,0,.321-1.066c-.487-.134-.948-.255-1.4-.382a11.9,11.9,0,0,1-1.4-.408c.192-.643.363-1.265.587-1.892.609.163,1.187.315,1.766.47l1.747.468c.115-.372.219-.717.324-1.057-.229-.117-4.714-1.344-4.935-1.329-.721,2.384-1.452,4.77-2.166,7.156.413.176,4.739,1.329,4.99,1.329Z" transform="translate(-10.34 -8.429)" fill="#da251c"/>
        <path id="Path_28156" data-name="Path 28156" d="M10.845,581.877c-.018-.33-.042-.637-.05-.935-.014-.6-.017-1.2-.029-1.8q-.028-1.375-.064-2.748-.027-1.159-.056-2.32l-.056-2.228v-.428c.127-.01.233-.028.34-.027.682.006,1.363.023,2.038.024l21.321.037q11.485.025,22.969.061l23.186.062c.712,0,1.424.017,2.136.026a1.722,1.722,0,0,1,.172.017l.025.033c.006.008.017.017.018.024,0,.051.01.1.01.153v.637c-.036,3.266-.07,6.531-.106,9.828-.139,0-.255.009-.382.009l-7.543-.05c-1.578-.009-3.157-.008-4.735-.017q-5.528-.028-11.055-.061l-10.691-.061L37.3,582.051l-10.506-.06-10.965-.062c-1.568-.01-3.135-.027-4.7-.041C11.047,581.891,10.967,581.883,10.845,581.877Zm14.618-4.005h1.519q.469,1.223.921,2.412h1.129c-.347-.882-.684-1.738-1.019-2.6.115-.064.2-.111.29-.162a1.455,1.455,0,0,0,.73-1.006,2.566,2.566,0,0,0,.031-.577,1.553,1.553,0,0,0-1.05-1.436,2.629,2.629,0,0,0-.9-.143H24.64a1.952,1.952,0,0,0-.2.018c-.059.341-.048,5.669.014,5.923.324,0,.654.014,1.019-.013Zm43.5-3.5c0,.1-.013.174-.013.245q0,2.8.013,5.605c0,.008.009.017.015.024a.343.343,0,0,0,.028.032c.052,0,.112.01.172.01.6,0,1.2.006,1.8,0a4.111,4.111,0,0,0,.7-.069,2.486,2.486,0,0,0,1.784-1.3,3.345,3.345,0,0,0,.312-2.338,2.6,2.6,0,0,0-2.618-2.227c-.637.014-1.282,0-1.922,0C69.147,574.357,69.068,574.367,68.961,574.374ZM43.1,574.349v1.617c0,.261,0,.522-.006.815-.771-.014-1.506.022-2.266-.022V574.4a2.291,2.291,0,0,0-1.062,0c-.051.466-.031,5.658.027,5.9.334.006.673.013,1.037,0V578.58a7.537,7.537,0,0,1,.015-.833,16.329,16.329,0,0,1,2.255.022v1.657a5.02,5.02,0,0,0,.029.868h.525c.171,0,.338-.009.5-.013.052-.408.039-5.688-.017-5.937a7.805,7.805,0,0,0-1.031.005Zm18.819,1.724a2.13,2.13,0,0,0-1.4-1.682,2.338,2.338,0,0,0-2.91,1.082,3.483,3.483,0,0,0-.428,1.326,4.093,4.093,0,0,0,.41,2.4,2.023,2.023,0,0,0,1.4,1.13,2.8,2.8,0,0,0,.483.064,1.774,1.774,0,0,0,1.581-.69c.034-.046.074-.089.139-.167l.317.741h.454a28.915,28.915,0,0,0-.018-3,12.3,12.3,0,0,0-2.2.031,3.559,3.559,0,0,0,.019.778c.4.065.794-.025,1.175.052a1.25,1.25,0,0,1-2.438.483,4.27,4.27,0,0,1-.084-2.376,1.568,1.568,0,0,1,.46-.777,1.25,1.25,0,0,1,1.959.372l.166.382Zm.983,1.3a3.458,3.458,0,0,0,.243,1.353,2.286,2.286,0,0,0,2.059,1.647,2.322,2.322,0,0,0,2.322-1.2,3.763,3.763,0,0,0,.417-2.392,3.235,3.235,0,0,0-.483-1.431,2.191,2.191,0,0,0-1.209-.973,2.4,2.4,0,0,0-2.916,1.161A3.6,3.6,0,0,0,62.9,577.376Zm-8.882-1.823a.364.364,0,0,0,.015-.084.345.345,0,0,0-.023-.088,1.529,1.529,0,0,0-.6-.715,2.486,2.486,0,0,0-1.147-.395,2.56,2.56,0,0,0-1.648.312,1.58,1.58,0,0,0-.8,1.684,1.454,1.454,0,0,0,1.07,1.274c.29.092.587.163.88.248.34.1.683.2,1.019.313a.692.692,0,0,1,.153,1.11,1.24,1.24,0,0,1-.394.223,2.15,2.15,0,0,1-1.056.042,1.091,1.091,0,0,1-.961-.782c0-.015-.031-.023-.066-.048l-.955.215a.916.916,0,0,0,.019.152,1.8,1.8,0,0,0,.845,1,3.154,3.154,0,0,0,1.285.367,3.107,3.107,0,0,0,1.605-.266,1.679,1.679,0,0,0,1.005-1.926,1.436,1.436,0,0,0-1.012-1.2c-.335-.117-.683-.2-1.019-.3-.312-.092-.629-.168-.93-.288a.562.562,0,0,1-.382-.566.651.651,0,0,1,.4-.6c.47-.224,1.428-.2,1.7.483.006.015.029.025.065.057Zm-23.983-1.186v3.749a4.958,4.958,0,0,0,.06.789,1.594,1.594,0,0,0,1.183,1.372,2.7,2.7,0,0,0,1.708-.029,1.566,1.566,0,0,0,1.147-1.331,5.988,5.988,0,0,0,.052-.637v-3.664c0-.078-.015-.155-.023-.24h-.832v3.766a2.7,2.7,0,0,1-.031.487.889.889,0,0,1-.829.8,1.608,1.608,0,0,1-.456,0,.886.886,0,0,1-.841-.856,3.731,3.731,0,0,1-.041-.547q0-1.663,0-3.328c0-.108-.008-.215-.013-.334Zm6.3.91v4.688c0,.107-.038.224.046.32H37.5c0-.139.015-.255.015-.382v-4.245c0-.118.01-.236.017-.382.284,0,.536.006.789,0a3.441,3.441,0,0,0,.744-.027v-.88a.568.568,0,0,0-.113-.029h-3.97a1.172,1.172,0,0,0-.15.015.065.065,0,0,0-.027.013c-.009,0-.015.014-.047.043a5.325,5.325,0,0,0,.018.87Zm-12.612-.9h-4.3a4.528,4.528,0,0,0,0,.9h.794a3.744,3.744,0,0,1,.776.032v4.162a7.566,7.566,0,0,0,.018.828h.58c.178,0,.358-.008.559-.013v-4a9.749,9.749,0,0,1,.017-1c.538-.032,1.045.011,1.558-.027Zm24.03,5.9h1.019v-5.906a5.811,5.811,0,0,0-1.019,0Z" transform="translate(-9.241 -498.598)" fill="#d9261c"/>
        <path id="Path_28157" data-name="Path 28157" d="M82.432,540.305h-.352q-2.98,0-5.957-.008l-22.451-.061-23.123-.061-20.038-.056H10.2a.946.946,0,0,1-.047-.186c-.009-.3-.017-.59-.011-.885a.436.436,0,0,1,.076-.255c.559-.685,1.125-1.367,1.689-2.048.011-.014.034-.019.08-.045l.074.31c.1,0,.208.013.317.013l19.579.065,18.082.06,18.053.062,13.1.045a.494.494,0,0,1,.4.169c.231.243.474.475.715.711a.3.3,0,0,1,.127.229C82.431,538.994,82.432,539.625,82.432,540.305Z" transform="translate(-8.846 -468.328)" fill="#d8251d"/>
        <path id="Path_28158" data-name="Path 28158" d="M193.778,258.687a12.025,12.025,0,0,1-1.563,1.266,16.319,16.319,0,0,1-5.05,2.395,16.639,16.639,0,0,1-2.512.489,16.232,16.232,0,0,1-9.588-1.827,16.772,16.772,0,0,1-4.8-3.868,17.045,17.045,0,0,1-3.44-6.3,17.744,17.744,0,0,1-.611-3.015,16.544,16.544,0,0,1-.1-2.773,17.446,17.446,0,0,1,.708-4.17,17.254,17.254,0,0,1,2.236-4.729,16.971,16.971,0,0,1,2.477-2.892,16.623,16.623,0,0,1,4.331-2.93,16.415,16.415,0,0,1,18.03,2.8,17.029,17.029,0,0,1,3.906,5.324,17.326,17.326,0,0,1,1.473,4.889,17.527,17.527,0,0,1,.168,3.288,17.222,17.222,0,0,1-4.878,11.321,1.984,1.984,0,0,1-.238.181c-.145-.014-.164-.127-.191-.238-.127-.53-.275-1.057-.389-1.591a.534.534,0,0,0-.348-.411c-.95-.436-1.9-.883-2.845-1.324-.44-.2-.883-.4-1.324-.6l-1.274-.585c-.606-.282-1.215-.561-1.82-.846a4.416,4.416,0,0,1-.382-.233l3.567-1.877,2.459-1.292c.085-.046.2-.064.218-.191l.017-.008-.009-.013.051-.1.068.01.111.182a.9.9,0,0,0,.121-.059c.426-.294.852-.587,1.274-.892a.521.521,0,0,0,.154-.182c.227-.442.446-.892.666-1.335a.475.475,0,0,0,.028-.107c-.029-.018-.046-.036-.062-.037l-1.826-.129a.436.436,0,0,0-.31.1c-.32.234-.643.461-.966.69-.057.041-.116.079-.157.106l.112.274-.22.052c-.195.083-.395.155-.583.255q-2.587,1.3-5.17,2.6c-.117.059-.242.1-.364.149a.975.975,0,0,0,.019-.12q.107-1.631.215-3.259a.7.7,0,0,1,.055-.3c.172-.31.363-.609.555-.926h.982a3.456,3.456,0,0,0,.015-.744l-6.188-.064a2.96,2.96,0,0,0,.015.823c.177,0,.339.009.5,0a.348.348,0,0,1,.315.144c.176.21.352.422.543.62a.645.645,0,0,1,.18.437c.015.285.036.569.051.854q.048.868.093,1.736v.74a.745.745,0,0,0,.06.187l.011.115a1.656,1.656,0,0,1-.289-.073c-.682-.316-1.359-.637-2.038-.955-.321-.15-.643-.3-.966-.451l-2.372-1.094-.829-.382c-.651-.3-1.3-.609-1.956-.91a1.248,1.248,0,0,0-.5-.2c-.334.018-.661-.061-.992-.025a1.429,1.429,0,0,1-.245,0c-.462-.037-.925-.083-1.389-.111-.5-.031-.992-.046-1.488-.068h-.061c-.332-.018-.666-.037-1-.051a.555.555,0,0,0-.14.055l.127.069q1.457,1.147,2.911,2.293a.959.959,0,0,1,.143.182l.22.106,8.3,3.894c0,.037,0,.092-.015.106a1.457,1.457,0,0,1-.215.116l-7.177,3.6c-.1.05-.194.1-.315.168.348.655.685,1.287,1.028,1.93.127-.059.231-.1.329-.153l1.65-.862,6.893-3.619c.1-.052.2-.092.306-.138.02.02.038.055.061.06.215.043.285.177.3.389.061,1.119.134,2.236.205,3.353.015.24.043.478.066.725h1.477c.079-1.126.155-2.238.236-3.393.135.057.236.1.334.144q2.227,1.02,4.446,2.062c.637.3,1.283.612,1.925.919l.127.065h0c.068.115.181.073.275.069.414-.015.827-.038,1.241-.062.14-.009.279-.041.419-.042.2,0,.4-.085.585.056h-.006l-.127.12h0Zm-8.813-14.421a3.722,3.722,0,0,0,2.266-1.874,5.9,5.9,0,0,0,.665-2.7,11.054,11.054,0,0,0-.661-4.135,12.766,12.766,0,0,0-2.657-4.443,4.411,4.411,0,0,0-.339-.294h0a6.644,6.644,0,0,0-1.837-1.446c-.162,0-.163,0-.173.168A5.263,5.263,0,0,1,181,232.628a18.925,18.925,0,0,0-1.68,2.357,8.317,8.317,0,0,0-1.274,3.586,3.658,3.658,0,0,0,.144,1.563,6.232,6.232,0,0,0,.985,1.71,15.987,15.987,0,0,0,2.268,2.336.546.546,0,0,0,.389.127h2.836A2.132,2.132,0,0,0,184.965,244.266Z" transform="translate(-144.941 -199.644)" fill="#0b305e"/>
        <path id="Path_28159" data-name="Path 28159" d="M219.56,125.187l.29-2.691c.1-.892.2-1.776.3-2.691l1.448-.194c.787,1.687,1.536,3.382,2.376,5.05.223-1.809.445-3.618.671-5.455l1.266-.167c-.042.364-.076.7-.118,1.019q-.173,1.345-.352,2.692-.2,1.517-.4,3.036c-.034.262-.066.525-.093.789-.011.11-.033.2-.164.218-.452.057-.9.117-1.372.178q-1.161-2.556-2.307-5.087c-.187.911-.261,1.824-.364,2.733s-.2,1.806-.3,2.744l-1.477.19L215.7,120.4l1.521-.215c.764,1.673,1.491,3.359,2.259,5.026Z" transform="translate(-188.221 -103.875)" fill="#fef102"/>
        <path id="Path_28160" data-name="Path 28160" d="M362.682,161.879l1.231.647a4.1,4.1,0,0,0-.127.431,1.311,1.311,0,0,0,.319,1.106,3.474,3.474,0,0,0,.95.805,1.562,1.562,0,0,0,.848.2.869.869,0,0,0,.736-1.219c-.183-.316-.4-.611-.606-.913-.276-.4-.566-.8-.831-1.205a1.919,1.919,0,0,1-.242-.557,1.714,1.714,0,0,1,.32-1.469,2.187,2.187,0,0,1,2.519-.908,3.569,3.569,0,0,1,2.51,2.338,1.656,1.656,0,0,1-.039,1.223.436.436,0,0,1-.042.08.5.5,0,0,1-.07.064c-.2-.092-.405-.187-.613-.288s-.4-.2-.6-.3c.019-.087.029-.155.051-.222a.954.954,0,0,0-.14-.845,2.064,2.064,0,0,0-1.171-.879.916.916,0,0,0-.51,0,.73.73,0,0,0-.531,1.019,3.2,3.2,0,0,0,.376.659c.255.359.529.7.775,1.06a6.265,6.265,0,0,1,.471.817,1.626,1.626,0,0,1-.064,1.5,2.322,2.322,0,0,1-2.336,1.274,3.516,3.516,0,0,1-1.511-.53,4.447,4.447,0,0,1-1.721-1.852A2.166,2.166,0,0,1,362.682,161.879Z" transform="translate(-316.234 -138.476)" fill="#fdf103"/>
        <path id="Path_28161" data-name="Path 28161" d="M161.27,151.963l1.459-.963,6.752,4.707-1.274.837-1.605-1.11-2.483,1.637c.191.606.382,1.194.568,1.8l-1,.662c-.312-.857-.552-1.7-.822-2.539s-.531-1.665-.794-2.5S161.54,152.82,161.27,151.963Zm2.474,4.014.637-.414c.2-.127.409-.264.608-.405a2.579,2.579,0,0,0,.592-.443l-2.42-1.72c-.127-.088-.255-.172-.382-.255a.041.041,0,0,0-.029,0c-.008,0-.013.014-.033.037Z" transform="translate(-140.725 -131.764)" fill="#fdf103"/>
        <path id="Path_28162" data-name="Path 28162" d="M318.036,133.03l-.326,1.093c-.255,0-4.577-1.153-4.99-1.329.717-2.386,1.448-4.772,2.166-7.156.222-.015,4.706,1.212,4.935,1.329-.1.34-.209.685-.324,1.057l-1.749-.475c-.578-.155-1.157-.307-1.766-.47-.224.627-.395,1.248-.587,1.892a12.784,12.784,0,0,0,1.4.408c.46.132.92.255,1.4.382a8.88,8.88,0,0,1-.321,1.066l-2.827-.764-.594,1.991Z" transform="translate(-272.881 -109.633)" fill="#fdf103"/>
        <path id="Path_28163" data-name="Path 28163" d="M318.971,413.34a4.424,4.424,0,0,0,.382.233c.605.285,1.214.564,1.82.846l1.274.585c.441.2.884.4,1.324.6.949.441,1.894.892,2.845,1.324a.534.534,0,0,1,.348.411c.113.534.255,1.061.389,1.591.027.11.046.224.191.238a.459.459,0,0,1-.355.372c-.182-.141-.389-.057-.585-.056-.14,0-.279.033-.419.042-.414.024-.827.047-1.241.062-.094,0-.208.046-.275-.069a21.213,21.213,0,0,0,2.7-.2l-.206-.51c-.127-.51-.255-1.019-.367-1.54-.025-.11-.108-.139-.189-.177-.322-.15-.646-.3-.968-.447l-6.879-3.185Z" transform="translate(-278.152 -360.683)" fill="#282a30"/>
        <path id="Path_28164" data-name="Path 28164" d="M383.86,462.18l.127-.12Z" transform="translate(-334.959 -403.196)" fill="#282a30"/>
        <path id="Path_28165" data-name="Path 28165" d="M383.36,463.016l.066-.066Z" transform="translate(-334.522 -403.973)" fill="#282a30"/>
        <path id="Path_28166" data-name="Path 28166" d="M120,598.192v2.413c-.359.027-.689.009-1.019.013-.062-.255-.073-5.581-.014-5.923a1.935,1.935,0,0,1,.2-.018h2.474a2.628,2.628,0,0,1,.9.143,1.553,1.553,0,0,1,1.05,1.436,2.566,2.566,0,0,1-.031.577,1.455,1.455,0,0,1-.73,1.006c-.087.051-.176.1-.29.162.34.862.678,1.719,1.019,2.6h-1.129l-.921-2.412Zm.013-.906a.445.445,0,0,0,.1.028c.457,0,.915.011,1.372,0a1.419,1.419,0,0,0,.5-.113.857.857,0,0,0,.227-1.417.892.892,0,0,0-.61-.239q-.685,0-1.372-.006c-.068,0-.136.013-.222.022Z" transform="translate(-103.775 -518.919)" fill="#fef203"/>
        <path id="Path_28167" data-name="Path 28167" d="M468.684,594.693c.107-.008.186-.018.265-.018.637,0,1.282.013,1.922,0a2.6,2.6,0,0,1,2.618,2.227,3.345,3.345,0,0,1-.312,2.338,2.485,2.485,0,0,1-1.784,1.3,4.111,4.111,0,0,1-.7.069c-.6.01-1.2,0-1.8,0a.932.932,0,0,1-.172-.01.352.352,0,0,1-.028-.032c0-.008-.015-.017-.015-.024q-.008-2.8-.013-5.605C468.671,594.867,468.679,594.8,468.684,594.693Zm1.12.848c-.051.33-.039,3.949.014,4.193a9.516,9.516,0,0,0,1.026,0,1.611,1.611,0,0,0,1.417-1.172,2.731,2.731,0,0,0,.113-.536,2.69,2.69,0,0,0-.294-1.712,1.38,1.38,0,0,0-1.162-.782c-.335-.017-.67-.015-1.006-.018A.393.393,0,0,0,469.8,595.541Z" transform="translate(-408.964 -518.916)" fill="#fef203"/>
        <path id="Path_28168" data-name="Path 28168" d="M242.783,594.481a7.818,7.818,0,0,1,1.037,0c.056.255.069,5.529.017,5.937-.161,0-.33.01-.5.013s-.341,0-.525,0a5.018,5.018,0,0,1-.029-.868c-.006-.275,0-.55,0-.824V597.9a16.325,16.325,0,0,0-2.255-.022,7.528,7.528,0,0,0-.015.833v1.708c-.364.018-.7.011-1.037,0-.057-.24-.078-5.431-.027-5.9a2.294,2.294,0,0,1,1.062,0v2.367c.764.043,1.5.008,2.266.022,0-.293,0-.554.006-.815v-1.615Z" transform="translate(-208.921 -518.73)" fill="#feee03"/>
        <path id="Path_28169" data-name="Path 28169" d="M380.811,595.673l-.912.158-.166-.382a1.251,1.251,0,0,0-1.959-.372,1.569,1.569,0,0,0-.46.777,4.27,4.27,0,0,0,.084,2.376,1.25,1.25,0,0,0,2.438-.483c-.382-.078-.777.013-1.175-.052a3.561,3.561,0,0,1-.019-.778,12.294,12.294,0,0,1,2.2-.031,28.9,28.9,0,0,1,.018,3h-.454c-.1-.234-.2-.473-.317-.741-.065.078-.1.121-.139.167a1.778,1.778,0,0,1-1.581.69,2.8,2.8,0,0,1-.483-.064,2.034,2.034,0,0,1-1.4-1.13,4.093,4.093,0,0,1-.41-2.4,3.483,3.483,0,0,1,.428-1.326,2.34,2.34,0,0,1,2.91-1.082A2.106,2.106,0,0,1,380.811,595.673Z" transform="translate(-328.134 -518.199)" fill="#fdf004"/>
        <path id="Path_28170" data-name="Path 28170" d="M421.2,596.991a3.6,3.6,0,0,1,.427-1.84,2.4,2.4,0,0,1,2.916-1.161,2.191,2.191,0,0,1,1.209.973,3.234,3.234,0,0,1,.489,1.431,3.788,3.788,0,0,1-.417,2.392,2.318,2.318,0,0,1-2.322,1.2,2.286,2.286,0,0,1-2.059-1.647,3.457,3.457,0,0,1-.243-1.353Zm3.9-.041c0-.112.009-.224,0-.335a3.167,3.167,0,0,0-.311-1.261,1.21,1.21,0,0,0-2.1-.027,1.989,1.989,0,0,0-.2.476,4.483,4.483,0,0,0,0,2.26,2.186,2.186,0,0,0,.316.651.968.968,0,0,0,.781.413,1.241,1.241,0,0,0,1.333-.892A3.593,3.593,0,0,0,425.106,596.95Z" transform="translate(-367.542 -518.213)" fill="#fdf003"/>
        <path id="Path_28171" data-name="Path 28171" d="M320.653,595.107l-.938.229c-.036-.032-.059-.042-.065-.057-.27-.682-1.228-.707-1.7-.483a.651.651,0,0,0-.4.6.562.562,0,0,0,.382.566c.3.12.618.2.93.288.341.1.689.178,1.019.3a1.436,1.436,0,0,1,1.012,1.2,1.673,1.673,0,0,1-1.005,1.926,3.107,3.107,0,0,1-1.594.271,3.154,3.154,0,0,1-1.283-.358,1.8,1.8,0,0,1-.845-1,.918.918,0,0,1-.019-.152l.955-.215c.036.026.061.033.066.048a1.091,1.091,0,0,0,.961.782,2.149,2.149,0,0,0,1.056-.042,1.24,1.24,0,0,0,.394-.223.692.692,0,0,0-.153-1.11c-.335-.116-.678-.213-1.019-.313-.293-.085-.59-.157-.88-.248a1.453,1.453,0,0,1-1.07-1.274,1.581,1.581,0,0,1,.8-1.684,2.559,2.559,0,0,1,1.65-.322,2.485,2.485,0,0,1,1.147.395,1.529,1.529,0,0,1,.6.715.344.344,0,0,1,.023.088A.362.362,0,0,1,320.653,595.107Z" transform="translate(-275.874 -518.152)" fill="#fdf004"/>
        <path id="Path_28172" data-name="Path 28172" d="M163.24,594.76h1.085c0,.118.013.225.013.334v3.328a3.733,3.733,0,0,0,.041.547.887.887,0,0,0,.841.856,1.608,1.608,0,0,0,.456,0,.889.889,0,0,0,.829-.8,2.7,2.7,0,0,0,.031-.487v-3.766h.832c.008.084.023.162.023.24v3.664a5.993,5.993,0,0,1-.052.637,1.545,1.545,0,0,1-1.147,1.331,2.7,2.7,0,0,1-1.708.029A1.594,1.594,0,0,1,163.3,599.3a4.958,4.958,0,0,1-.06-.789V594.76Z" transform="translate(-142.444 -518.991)" fill="#fef102"/>
        <path id="Path_28173" data-name="Path 28173" d="M201.841,595.451h-1.562a5.323,5.323,0,0,1-.018-.87c.032-.029.038-.037.047-.043a.065.065,0,0,1,.027-.013,1.171,1.171,0,0,1,.15-.015h3.97a.56.56,0,0,1,.113.029v.88a3.527,3.527,0,0,1-.744.027c-.25.008-.51,0-.789,0-.006.146-.017.264-.017.382v4.245c0,.12-.01.24-.015.382h-1.113c-.084-.1-.046-.213-.046-.32V595.83Z" transform="translate(-174.741 -518.773)" fill="#fdef03"/>
        <path id="Path_28174" data-name="Path 28174" d="M84.068,594.82v.885c-.51.038-1.019,0-1.558.027-.034.336-.013.669-.017,1s0,.652,0,.978v3.021c-.2,0-.382.01-.559.013h-.581a7.565,7.565,0,0,1-.018-.828c0-.275,0-.549,0-.824v-3.338a3.749,3.749,0,0,0-.776-.032h-.794a4.527,4.527,0,0,1,0-.9Z" transform="translate(-69.585 -519.044)" fill="#fef102"/>
        <path id="Path_28175" data-name="Path 28175" d="M302.32,600.6v-5.9a5.811,5.811,0,0,1,1.019,0V600.6Z" transform="translate(-263.806 -518.917)" fill="#fff402"/>
        <path id="Path_28176" data-name="Path 28176" d="M226.685,380.277l-.211.127-.764.414c-.093.038-.19.069-.279.115l-1.939,1.019c-.1.052-.191.115-.285.172s-.206.085-.306.138q-3.447,1.808-6.893,3.619l-1.65.85c-.1.051-.2.094-.329.153-.343-.643-.68-1.274-1.028-1.93.121-.064.217-.118.315-.168l7.177-3.6a1.454,1.454,0,0,0,.215-.116c.02-.014.01-.069.015-.106a2.485,2.485,0,0,0,.339-.1c.479-.233.955-.473,1.432-.713.088-.045.169-.1.255-.157a1.326,1.326,0,0,0,.606-.334,1.393,1.393,0,0,0,.255-.071c.753-.382,1.5-.764,2.256-1.138a3.89,3.89,0,0,0,.364-.149q2.586-1.3,5.17-2.6c.189-.094.389-.167.583-.255l1.26.255c-.046.262-.088.5-.127.731v.008a.394.394,0,0,0-.127.345l-.051.1-.008.02c-.015.127-.127.145-.218.191q-1.227.647-2.459,1.292Z" transform="translate(-185.865 -327.62)" fill="#d7261c"/>
        <path id="Path_28177" data-name="Path 28177" d="M274.068,234.736a4.409,4.409,0,0,1,.339.294,12.766,12.766,0,0,1,2.657,4.45,11.056,11.056,0,0,1,.659,4.135,5.9,5.9,0,0,1-.665,2.7,3.722,3.722,0,0,1-2.266,1.874H272.5a.461.461,0,0,1-.395-.173c-.438-.51-.9-1-1.321-1.517a9.009,9.009,0,0,1-1.438-2.4,4,4,0,0,1-.08-2.829,8.543,8.543,0,0,1,1.1-2.134c.318-.459.668-.892.983-1.357a7.223,7.223,0,0,0,1.147-2.405,2.584,2.584,0,0,0-.2-1.864,1.317,1.317,0,0,1-.07-.228,6.7,6.7,0,0,1,1.837,1.446c-.036,0-.1-.013-.1,0a.418.418,0,0,0-.033.145,4.551,4.551,0,0,1-.5,1.559,10.155,10.155,0,0,1-1.4,1.883,12.015,12.015,0,0,0-.978,1.169,5.5,5.5,0,0,0-.892,2.785,4.714,4.714,0,0,0,.474,2.275,12.087,12.087,0,0,0,1.646,2.6,2.78,2.78,0,0,0,.554.586c.023-.242.036-.454.066-.662a.8.8,0,0,0-.147-.541c-.357-.6-.7-1.215-1.042-1.828a5.555,5.555,0,0,1-.573-2.136,3.782,3.782,0,0,1,.682-2.691c.426-.595.883-1.168,1.322-1.754.306-.405.614-.81.91-1.224a1.646,1.646,0,0,0,.262-.892A2.878,2.878,0,0,0,274.068,234.736Zm1.364,2.382-.088.285a6.813,6.813,0,0,1-1.09,2.269,7.98,7.98,0,0,1-.817.818,3.034,3.034,0,0,0-1,1.771,6.562,6.562,0,0,0,.18,2.958,4.616,4.616,0,0,0,1.21,1.95.51.51,0,0,0,.382.158c.4,0,.794.01,1.187.048a.68.68,0,0,0,.637-.278,5.049,5.049,0,0,0,.861-1.5,9.2,9.2,0,0,0,.51-3.5,12.234,12.234,0,0,0-.619-2.759,6.48,6.48,0,0,0-.747-1.6,1.714,1.714,0,0,0-.6-.619Z" transform="translate(-234.769 -203.57)" fill="#fbf104"/>
        <path id="Path_28178" data-name="Path 28178" d="M293.11,418.836c.094-.057.187-.12.285-.172l1.939-1.019c.089-.046.186-.076.279-.115a1.418,1.418,0,0,1,0,.3.3.3,0,0,0,.24.39,2.32,2.32,0,0,1,.255.117l8.067,3.857c.2.1.408.181.613.271l.206.51a21.664,21.664,0,0,1-2.7.2h0l-.127-.065c-.637-.307-1.282-.617-1.925-.918q-2.224-1.047-4.449-2.085c-.1-.046-.2-.087-.334-.144-.08,1.154-.157,2.266-.236,3.392h-1.482c-.023-.247-.051-.485-.066-.725-.071-1.117-.144-2.234-.205-3.353-.013-.211-.083-.345-.3-.389C293.148,418.891,293.13,418.856,293.11,418.836Z" transform="translate(-255.77 -364.339)" fill="#fcf204"/>
        <path id="Path_28179" data-name="Path 28179" d="M284.087,361.94c-.752.382-1.5.764-2.256,1.138a1.4,1.4,0,0,1-.255.071l-.046-.676c-.006-.1-.014-.191-.02-.287l-.011-.115c-.019-.31-.039-.618-.06-.927q-.046-.868-.093-1.736c-.015-.284-.036-.568-.051-.854a.645.645,0,0,0-.18-.437c-.191-.2-.367-.41-.543-.62a.348.348,0,0,0-.315-.144c-.162.011-.324,0-.5,0a2.959,2.959,0,0,1-.015-.823l6.188.064a3.456,3.456,0,0,1-.015.744h-.982c-.192.317-.382.617-.555.926a.7.7,0,0,0-.055.3q-.111,1.628-.215,3.259A.979.979,0,0,1,284.087,361.94Z" transform="translate(-244.086 -311.11)" fill="#fcf202"/>
        <path id="Path_28180" data-name="Path 28180" d="M264.024,233.329a1.314,1.314,0,0,0,.07.228,2.584,2.584,0,0,1,.2,1.864,7.324,7.324,0,0,1-1.147,2.405c-.316.46-.665.9-.983,1.357a8.545,8.545,0,0,0-1.1,2.13,4,4,0,0,0,.08,2.829,9.008,9.008,0,0,0,1.438,2.394c.422.521.883,1.01,1.321,1.517a.461.461,0,0,0,.395.173c.764-.008,1.529,0,2.293,0a2.138,2.138,0,0,1-.294.045h-2.836a.547.547,0,0,1-.389-.127,15.986,15.986,0,0,1-2.268-2.336,6.232,6.232,0,0,1-.994-1.713,3.657,3.657,0,0,1-.147-1.564,8.417,8.417,0,0,1,1.274-3.586,18.918,18.918,0,0,1,1.68-2.357,5.263,5.263,0,0,0,1.228-3.089C263.861,233.326,263.862,233.327,264.024,233.329Z" transform="translate(-226.557 -203.604)" fill="#d3291c"/>
        <path id="Path_28181" data-name="Path 28181" d="M217.284,384.282c-.084.052-.166.112-.255.157-.476.241-.953.48-1.432.713a2.482,2.482,0,0,1-.339.1l-8.3-3.894-.22-.106c.036-.127.158-.118.246-.15.6-.21,1.21-.41,1.815-.618.1-.036.2-.087.3-.127l.112.014c.134.073.264.153.4.219.568.273,1.139.54,1.708.811q2.643,1.264,5.283,2.529C216.837,384.039,217.06,384.164,217.284,384.282Z" transform="translate(-180.403 -331.904)" fill="#fdf204"/>
        <path id="Path_28182" data-name="Path 28182" d="M188.2,369.02a2.737,2.737,0,0,1-.3.127c-.605.208-1.212.408-1.815.618-.088.032-.21.026-.246.15a.961.961,0,0,0-.143-.182q-1.452-1.147-2.911-2.293c.064-.1.163-.068.255-.064.456.022.911.046,1.367.075q1.306.082,2.61.171c.292.019.585.043.9.066A8.023,8.023,0,0,1,188.2,369.02Z" transform="translate(-159.495 -320.568)" fill="#d7261c"/>
        <path id="Path_28183" data-name="Path 28183" d="M362.962,367.118l-.112-.274c.041-.027.1-.065.157-.106.322-.229.646-.456.966-.69a.436.436,0,0,1,.31-.1l1.82.139c.017,0,.033.019.062.037a.474.474,0,0,1-.028.107c-.22.446-.44.892-.666,1.335a.521.521,0,0,1-.154.182c-.422.3-.848.594-1.274.892a.908.908,0,0,1-.121.059l-.111-.182.057-.355v-.008a1.867,1.867,0,0,0,.237-.752c-.159-.048-.282-.094-.409-.127C363.455,367.22,363.208,367.17,362.962,367.118Z" transform="translate(-316.625 -319.33)" fill="#d5261e"/>
        <path id="Path_28184" data-name="Path 28184" d="M187.264,368.672a8.029,8.029,0,0,0-.294-1.33c-.316-.023-.609-.047-.9-.066q-1.306-.088-2.61-.171c-.456-.029-.911-.053-1.367-.075-.087,0-.186-.036-.255.064l-.127-.069c.073-.029.107-.056.14-.055.332.014.666.033,1,.051h.061c.5.022.992.037,1.488.068.464.028.926.074,1.389.111a1.423,1.423,0,0,0,.245,0c.331-.036.659.043.992.026.164-.009.338.127.5.2.652.3,1.3.606,1.955.91l.829.382,2.372,1.094c.322.149.645.3.966.451l2.038.955a1.659,1.659,0,0,0,.289.073c.006.1.014.191.02.287a.765.765,0,0,0-.138-.107q-.482-.229-.966-.452l-7.516-3.478c-.076-.036-.157-.059-.262-.1.092.44.173.836.255,1.232Z" transform="translate(-158.561 -320.22)" fill="#282a30"/>
        <path id="Path_28185" data-name="Path 28185" d="M362.2,375.12c.246.052.493.1.738.159.127.029.255.075.409.127a1.867,1.867,0,0,1-.237.752c.042-.234.084-.469.127-.731l-1.26-.255Z" transform="translate(-315.866 -327.332)" fill="#d3291c"/>
        <path id="Path_28186" data-name="Path 28186" d="M293.172,392.79c.02.31.041.618.06.927a.744.744,0,0,1-.06-.187C293.167,393.284,293.171,393.037,293.172,392.79Z" transform="translate(-255.822 -342.751)" fill="#282a30"/>
        <path id="Path_28187" data-name="Path 28187" d="M369.959,383.3l-.057.355-.068-.01A.394.394,0,0,1,369.959,383.3Z" transform="translate(-322.716 -334.47)" fill="#d3291c"/>
        <path id="Path_28188" data-name="Path 28188" d="M364.15,461.39l.127.065Z" transform="translate(-317.76 -402.612)" fill="#282a30"/>
        <path id="Path_28189" data-name="Path 28189" d="M369.4,386.83l.008-.02.009.013Z" transform="translate(-322.341 -337.533)" fill="#d3291c"/>
        <path id="Path_28190" data-name="Path 28190" d="M173.613,167.922l-1.033-3.194c.02-.023.025-.033.033-.037a.041.041,0,0,1,.029,0c.127.084.255.168.382.255l2.42,1.72a2.578,2.578,0,0,1-.592.443c-.194.138-.405.271-.608.405Z" transform="translate(-150.594 -143.708)" fill="#da281b"/>
        <path id="Path_28191" data-name="Path 28191" d="M321.819,419.673c-.205-.09-.411-.176-.613-.271l-8.067-3.857a2.318,2.318,0,0,0-.255-.117.3.3,0,0,1-.24-.39,1.419,1.419,0,0,0,0-.3l.764-.414,6.879,3.185c.322.149.646.3.968.447.08.038.163.068.189.177C321.57,418.648,321.7,419.16,321.819,419.673Z" transform="translate(-272.807 -361.538)" fill="#fcfdfa"/>
        <path id="Path_28192" data-name="Path 28192" d="M127.44,603.153v-1.731c.085-.009.154-.022.222-.022q.685,0,1.372.006a.892.892,0,0,1,.61.24.857.857,0,0,1-.222,1.417,1.419,1.419,0,0,1-.5.113c-.457.017-.915,0-1.372,0A.448.448,0,0,1,127.44,603.153Z" transform="translate(-111.205 -524.785)" fill="#da281b"/>
        <path id="Path_28193" data-name="Path 28193" d="M477.346,601.244a.389.389,0,0,1,.107-.034c.336,0,.671,0,1.006.018a1.383,1.383,0,0,1,1.162.782,2.69,2.69,0,0,1,.294,1.712,2.738,2.738,0,0,1-.113.536,1.611,1.611,0,0,1-1.417,1.172,9.485,9.485,0,0,1-1.026,0C477.306,605.195,477.295,601.574,477.346,601.244Z" transform="translate(-416.506 -524.62)" fill="#da281b"/>
        <path id="Path_28194" data-name="Path 28194" d="M433.015,602.9a3.592,3.592,0,0,1-.177,1.289,1.249,1.249,0,0,1-1.333.892.968.968,0,0,1-.781-.413,2.186,2.186,0,0,1-.316-.651,4.483,4.483,0,0,1,0-2.26,1.989,1.989,0,0,1,.2-.476,1.21,1.21,0,0,1,2.1.027,3.167,3.167,0,0,1,.311,1.261C433.024,602.671,433.015,602.783,433.015,602.9Z" transform="translate(-375.451 -524.158)" fill="#da281b"/>
        <path id="Path_28195" data-name="Path 28195" d="M224.445,372c-.082-.4-.163-.792-.255-1.232.106.038.186.061.262.1l7.516,3.478q.483.224.966.452a.765.765,0,0,1,.138.107l.046.676a1.252,1.252,0,0,1-.606.334c-.224-.118-.445-.243-.674-.353q-2.64-1.266-5.283-2.529c-.569-.271-1.14-.539-1.708-.812C224.708,372.155,224.579,372.073,224.445,372Z" transform="translate(-195.63 -323.536)" fill="#fbfdf9"/>
        <path id="Path_28196" data-name="Path 28196" d="M297.962,263.34a1.713,1.713,0,0,1,.594.619,6.48,6.48,0,0,1,.747,1.6,12.238,12.238,0,0,1,.619,2.759,9.2,9.2,0,0,1-.51,3.5,5.05,5.05,0,0,1-.861,1.5.68.68,0,0,1-.637.278c-.394-.038-.791-.045-1.187-.048a.51.51,0,0,1-.382-.158,4.616,4.616,0,0,1-1.21-1.95,6.563,6.563,0,0,1-.18-2.958,3.014,3.014,0,0,1,1-1.771,7.977,7.977,0,0,0,.817-.818,6.837,6.837,0,0,0,1.09-2.269Z" transform="translate(-257.299 -229.792)" fill="#d8271c"/>
        <path id="Path_28197" data-name="Path 28197" d="M281.739,244.611a3.2,3.2,0,0,1,.255,1.274,1.646,1.646,0,0,1-.263.892c-.3.414-.6.819-.91,1.224-.439.586-.892,1.159-1.322,1.754a3.782,3.782,0,0,0-.682,2.691,5.55,5.55,0,0,0,.573,2.136c.343.613.685,1.224,1.042,1.828a.8.8,0,0,1,.147.541c-.031.209-.043.42-.066.662a2.78,2.78,0,0,1-.554-.586,12.088,12.088,0,0,1-1.646-2.6,4.713,4.713,0,0,1-.474-2.275,5.5,5.5,0,0,1,.892-2.785,12.163,12.163,0,0,1,.978-1.169,10.694,10.694,0,0,0,1.4-1.883,4.552,4.552,0,0,0,.5-1.559.419.419,0,0,1,.033-.145c.008-.015.068,0,.1,0Z" transform="translate(-242.44 -213.445)" fill="#d32c1b"/>
      </g>
    </g>
  </g>
</svg>
