<svg xmlns="http://www.w3.org/2000/svg" width="49.508" height="50" viewBox="0 0 49.508 50">
  <g id="download_2_" data-name="download (2)" transform="translate(-10.241 -10.025)">
    <g id="Group_397" data-name="Group 397" transform="translate(10.241 10.025)">
      <path id="Path_10" data-name="Path 10" d="M22.575,31.094a13.5,13.5,0,0,1-1.82-.571c-.012.071-.026.141-.036.212-.026.178-.046.357-.061.536-.011.132-.022.265-.028.4-.008.2-.006.39,0,.586,0,.12,0,.24.01.361.014.22.042.439.072.658.013.1.021.194.037.291a9.271,9.271,0,0,0,.21.944,9.009,9.009,0,0,0,.475,1.274q.059.131.122.26A9.057,9.057,0,0,0,22.87,38a13.727,13.727,0,0,1,1.248-1.408,11.726,11.726,0,0,1-1.544-5.5Z" transform="translate(-8.812 -7.203)" fill="#fff"/>
      <path id="Path_11" data-name="Path 11" d="M28.228,35.3a9.312,9.312,0,0,0-1.538.845c-.127.082-.228.162-.343.243A10.258,10.258,0,0,0,29.931,39.2l-1.154-4.114C28.595,35.156,28.4,35.222,28.228,35.3Z" transform="translate(-8.024 -6.576)" fill="#fff"/>
      <path id="Path_12" data-name="Path 12" d="M24.935,37.547a11.784,11.784,0,0,0-.826,1.018,9.075,9.075,0,0,0,3.67,1.5A12.54,12.54,0,0,1,24.935,37.547Z" transform="translate(-8.332 -6.236)" fill="#fff"/>
      <path id="Path_13" data-name="Path 13" d="M23.7,25.8a9.092,9.092,0,0,0-2.009,2.441c-.137.243-.258.492-.371.743a11.168,11.168,0,0,0,1.268.427A12.531,12.531,0,0,1,23.7,25.8Z" transform="translate(-8.716 -7.853)" fill="#fff"/>
      <path id="Path_14" data-name="Path 14" d="M27.165,29.693,26.009,25.57a10.258,10.258,0,0,0-1.6,4.263A11.351,11.351,0,0,0,27.165,29.693Z" transform="translate(-8.291 -7.885)" fill="#fff"/>
      <path id="Path_15" data-name="Path 15" d="M25.39,35.02c.105-.073.2-.151.312-.221a11.428,11.428,0,0,1,1.861-1.024c.27-.126.573-.236.87-.349l-.644-2.3a13.573,13.573,0,0,1-3.429.224A9.217,9.217,0,0,0,25.39,35.02Z" transform="translate(-8.298 -7.12)" fill="#fff"/>
      <path id="Path_16" data-name="Path 16" d="M31.326,27.841a10.258,10.258,0,0,0-3.585-2.809l1.155,4.12A11.418,11.418,0,0,0,31.326,27.841Z" transform="translate(-7.832 -7.959)" fill="#fff"/>
      <path id="Path_17" data-name="Path 17" d="M33.828,38.369a9.093,9.093,0,0,0,2.009-2.442c.136-.242.257-.489.369-.739a12.087,12.087,0,0,0-1.264-.439A12.537,12.537,0,0,1,33.828,38.369Z" transform="translate(-6.995 -6.622)" fill="#fff"/>
      <path id="Path_18" data-name="Path 18" d="M31.02,34.465c-.214.023-.409.067-.611.1l1.154,4.116a10.26,10.26,0,0,0,1.6-4.263c-.131-.008-.257-.023-.391-.027A8.868,8.868,0,0,0,31.02,34.465Z" transform="translate(-7.465 -6.673)" fill="#fff"/>
      <path id="Path_19" data-name="Path 19" d="M51.912,51.152a1.139,1.139,0,0,0,.1-.864L40.954,10.854a1.139,1.139,0,0,0-1.4-.788l-28.48,7.988a1.138,1.138,0,0,0-.788,1.4L21.344,58.89a1.136,1.136,0,0,0,1.4.788l28.48-7.988A1.138,1.138,0,0,0,51.912,51.152ZM42.386,36.609c-.013.084-.028.167-.043.251a11.348,11.348,0,0,1-18.568,6.656c-.023-.017-.05-.024-.072-.042s-.061-.065-.094-.094a11.464,11.464,0,0,1-.9-.9c-.1-.111-.2-.221-.3-.335a11.378,11.378,0,0,1-.759-1.022c-.073-.11-.142-.221-.211-.334a11.28,11.28,0,0,1-.641-1.2c-.035-.077-.065-.156-.1-.234a11.263,11.263,0,0,1-.511-1.416,11.52,11.52,0,0,1-.3-1.464c-.017-.121-.033-.241-.046-.362a11.294,11.294,0,0,1-.08-1.441c0-.011,0-.023,0-.034a11.215,11.215,0,0,1,.134-1.463c.019-.124.04-.247.063-.371a11.242,11.242,0,0,1,.314-1.293c.013-.043.018-.088.032-.131,0,0,.006-.008.008-.013a11.485,11.485,0,0,1,.91-2.075A11.347,11.347,0,0,1,38.5,26.21c.029.021.065.026.093.05.084.073.153.16.235.235.242.221.473.454.695.7.134.147.267.293.394.446a11.366,11.366,0,0,1,.7.946c.086.13.168.261.249.395a11.276,11.276,0,0,1,.622,1.162c.037.082.069.166.1.249A11.265,11.265,0,0,1,42.1,31.8a11.507,11.507,0,0,1,.3,1.467c.016.114.031.228.044.342A11.239,11.239,0,0,1,42.386,36.609Z" transform="translate(-10.241 -10.025)" fill="#fff"/>
      <path id="Path_20" data-name="Path 20" d="M36.945,31.32c-.012-.081-.017-.163-.031-.244a9.2,9.2,0,0,0-.21-.948,9.013,9.013,0,0,0-.478-1.283c-.036-.081-.074-.161-.113-.241a9.056,9.056,0,0,0-1.323-1.967,13.489,13.489,0,0,1-1.244,1.416,11.727,11.727,0,0,1,1.541,5.5,13.954,13.954,0,0,1,1.82.562c.008-.05.018-.1.025-.149.034-.222.059-.444.076-.668.008-.1.016-.2.021-.293.01-.227.009-.454,0-.682,0-.095,0-.189-.008-.284C37.008,31.8,36.979,31.559,36.945,31.32Z" transform="translate(-7.033 -7.738)" fill="#fff"/>
      <path id="Path_21" data-name="Path 21" d="M32.345,29.189A13.613,13.613,0,0,1,29.3,30.783l.644,2.3c.319-.061.64-.126.953-.16a11.589,11.589,0,0,1,2.122-.088c.114,0,.236.018.353.025a9.218,9.218,0,0,0-1.028-3.668Z" transform="translate(-7.618 -7.387)" fill="#fff"/>
      <path id="Path_22" data-name="Path 22" d="M32.745,26.486a11.167,11.167,0,0,0,.844-1A9.077,9.077,0,0,0,29.9,23.97,12.539,12.539,0,0,1,32.745,26.486Z" transform="translate(-7.535 -8.105)" fill="#fff"/>
      <path id="Path_23" data-name="Path 23" d="M55.483,16.5,41.29,14.663l9.641,34.371a3.413,3.413,0,0,1-2.362,4.207L34.032,57.319l15.9,2.057a1.083,1.083,0,0,0,.147.009,1.139,1.139,0,0,0,1.128-.992l5.256-40.616A1.139,1.139,0,0,0,55.483,16.5Z" transform="translate(-6.966 -9.386)" fill="#fff"/>
    </g>
  </g>
</svg>
