<svg xmlns="http://www.w3.org/2000/svg" width="43.478" height="43.478" viewBox="0 0 43.478 43.478">
  <g id="Layer_x0020_1" transform="translate(-13.712 1.34)">
    <g id="chart-646" transform="translate(13.713 -1.341)">
      <path id="Path_28131" data-name="Path 28131" d="M42.507,0H33.5a.969.969,0,0,0-.685,1.654l2.8,2.8L19.273,20.791,13.552,15.07l-1.533-1.533a1.328,1.328,0,0,0-1.879,0L.388,23.289a1.328,1.328,0,0,0,0,1.879L1.921,26.7a1.328,1.328,0,0,0,1.879,0l7.28-7.28,7.243,7.243a1.328,1.328,0,0,0,1.879,0l.78-.78a1.332,1.332,0,0,0,.119-.1L39.023,7.865l2.8,2.8a.969.969,0,0,0,1.654-.685V.969A.969.969,0,0,0,42.507,0Z" transform="translate(0)" fill="#fff"/>
      <path id="Path_28132" data-name="Path 28132" d="M184.409,72.985V96.874a1.328,1.328,0,0,0,1.329,1.328h4.242a1.328,1.328,0,0,0,1.328-1.328V66.086Z" transform="translate(-152.707 -54.724)" fill="#fff"/>
      <path id="Path_28133" data-name="Path 28133" d="M132.393,125v14.946a1.328,1.328,0,0,0,1.328,1.328h4.242a1.328,1.328,0,0,0,1.328-1.328V118.1Z" transform="translate(-109.634 -97.8)" fill="#fff"/>
      <path id="Path_28134" data-name="Path 28134" d="M85.82,150.772a3.479,3.479,0,0,1-2.477-1.026l-2.969-2.969v16.916a1.328,1.328,0,0,0,1.328,1.328h4.242a1.328,1.328,0,0,0,1.328-1.328V150.454A3.484,3.484,0,0,1,85.82,150.772Z" transform="translate(-66.558 -121.544)" fill="#fff"/>
      <path id="Path_28135" data-name="Path 28135" d="M34.564,130.853,28.822,136.6a3.511,3.511,0,0,1-.463.386v13.525a1.328,1.328,0,0,0,1.328,1.328h4.242a1.328,1.328,0,0,0,1.328-1.328V131.547Z" transform="translate(-23.484 -108.357)" fill="#fff"/>
    </g>
  </g>
</svg>
