<svg xmlns="http://www.w3.org/2000/svg" width="87.535" height="81.785" viewBox="0 0 87.535 81.785">
  <g id="Group_45689" data-name="Group 45689" transform="translate(1574.025 531.812)">
    <path id="Path_28138" data-name="Path 28138" d="M-1519.429-254.7c.748,0,1.453-.007,2.159,0q3.922.048,7.844.1c.394.005.788.008,1.181.032a1.494,1.494,0,0,1,.5.117q4.917,2.18,9.828,4.371,4.733,2.107,9.467,4.213c.769.342,1.543.673,2.308,1.021a.632.632,0,0,0,.562.006q5.7-2.485,11.4-4.96,4.648-2.019,9.3-4.027a1.543,1.543,0,0,1,.6-.124q6.45.025,12.9.066a.165.165,0,0,1,.131.06c-.232.108-.464.219-.7.324q-7.587,3.4-15.174,6.8-6.2,2.773-12.4,5.539-3.129,1.4-6.252,2.81a.551.551,0,0,1-.523-.014q-6.751-3.332-13.506-6.654-7.194-3.539-14.39-7.076-2.516-1.237-5.031-2.479C-1519.282-254.6-1519.34-254.64-1519.429-254.7Zm12.4,4.1-.024.062c.258.134.515.271.776.4q5.106,2.537,10.213,5.073,5.079,2.527,10.151,5.067a.679.679,0,0,0,.672,0q6.024-2.91,12.056-5.806,4.418-2.125,8.836-4.249c.28-.135.557-.279.835-.419l-.03-.073c-.323.089-.648.171-.969.267a23.042,23.042,0,0,0-2.381.73c-2.319.972-4.614,2-6.917,3.009q-5.739,2.511-11.476,5.026a.573.573,0,0,1-.525-.01c-1.218-.57-2.441-1.129-3.663-1.691q-4.514-2.077-9.028-4.154c-.924-.425-1.832-.9-2.782-1.25-1.813-.676-3.651-1.284-5.479-1.919A2.476,2.476,0,0,0-1507.025-250.592Z" transform="translate(-44.91 -227.949)" fill="#f1552d"/>
    <path id="Path_28139" data-name="Path 28139" d="M-1413.694-508.053a21.863,21.863,0,0,1-1.1,7.628,23.736,23.736,0,0,1-5.381,9.173,23.322,23.322,0,0,1-10.065,6.354,22.9,22.9,0,0,1-5.76,1.037,23.029,23.029,0,0,1-8.092-1.008,22.932,22.932,0,0,1-8.064-4.406,23.955,23.955,0,0,1-7.518-11.28,21.315,21.315,0,0,1-.977-7.668c.069-1.277.077-2.564.26-3.825a21.7,21.7,0,0,1,1.943-6.172,23.816,23.816,0,0,1,6.51-8.329,23.149,23.149,0,0,1,5.953-3.54,22.917,22.917,0,0,1,9.944-1.694,22.9,22.9,0,0,1,10.123,2.907,23.5,23.5,0,0,1,7.757,6.94,23.547,23.547,0,0,1,4.266,10.74C-1413.761-510.156-1413.759-509.1-1413.694-508.053Zm-46.387.169.093,0a18.951,18.951,0,0,0,.82,6.773,23.117,23.117,0,0,0,3.552,7.2,22.783,22.783,0,0,0,10.246,7.9,22.24,22.24,0,0,0,11.119,1.33,22.215,22.215,0,0,0,10.678-4.393,22.79,22.79,0,0,0,6.856-8.331,21.811,21.811,0,0,0,2.341-10.061,35.787,35.787,0,0,0-.173-3.668,22.064,22.064,0,0,0-2.184-7.147,22.785,22.785,0,0,0-7.863-9.017,22.23,22.23,0,0,0-16.357-3.546,21.865,21.865,0,0,0-7.919,2.921,22.969,22.969,0,0,0-7.92,7.969,21.551,21.551,0,0,0-2.887,7.659C-1459.916-510.836-1459.954-509.353-1460.081-507.884Z" transform="translate(-93.231 0)" fill="#f1552d"/>
    <path id="Path_28140" data-name="Path 28140" d="M-1243.746-144.833h-1.992v6.863c-.479-.14-.655-.368-.655-.807v-1.786c-.11.053-.184.083-.252.122a2.626,2.626,0,0,1-3.526-1.151c-.022-.05-.041-.1-.059-.153-.2-.573-.172-.635.388-.866.111-.046.223-.09.333-.138a1.159,1.159,0,0,0,.547-1.821.577.577,0,0,0-.383-.245c-.885-.02-1.772-.009-2.658-.006a.709.709,0,0,0-.133.035v6.879c-.4-.242-.689-.428-.667-.943.049-1.114.015-2.232.015-3.348v-.347a2.326,2.326,0,0,0-.268-.032c-.656,0-1.313-.012-1.969.006a1.726,1.726,0,0,0-.633.138.95.95,0,0,0-.519,1.183,6.813,6.813,0,0,0,1.3,2.731c.063.083.126.167.2.268a.432.432,0,0,1-.571-.207c-.375-.615-.824-1.189-1.162-1.823a3.692,3.692,0,0,1-.422-1.361,1.4,1.4,0,0,1,1.492-1.566c.711,0,1.422,0,2.134,0h.4V-144.8h-6.459v2.68a1.887,1.887,0,0,1,2.168.191c-.341.052-.624.084-.9.141-.342.069-.679.163-1.02.238-.222.049-.282.177-.28.4.011,1,0,1.991,0,2.987v.2a.741.741,0,0,1-.648-.791c0-.51,0-1.021,0-1.493-.453.085-.874.188-1.3.241a1.589,1.589,0,0,1-1.821-1.543,2.49,2.49,0,0,1,.148-1.019,1.145,1.145,0,0,1,1.179-.77,2.107,2.107,0,0,1,1.764.755V-144.8a2,2,0,0,0-.243-.028c-1.455,0-2.91,0-4.365-.007-.238,0-.293.081-.293.3.006,2.123,0,4.246.011,6.368a.682.682,0,0,0,.19.373,8.481,8.481,0,0,1,.692.776,1.049,1.049,0,0,1-.4,1.544,1.629,1.629,0,0,1-.39.17,3.569,3.569,0,0,1-3.028-.352c-.455-.3-.873-.654-1.308-.983-.154-.117-.179-.236.008-.385.08.065.162.132.244.2a4.783,4.783,0,0,0,3.015,1.2,2.116,2.116,0,0,0,.79-.178.948.948,0,0,0,.551-1.344.508.508,0,0,0-.772-.342,6.158,6.158,0,0,0-.642.371l-.6-.448c.327-.522.841-.457,1.362-.5-.491-.247-.362-.678-.365-1.064,0-.644,0-1.289,0-1.962h-2.645c0,.253.015.5-.007.746-.01.1-.082.254-.159.279a.369.369,0,0,1-.313-.107c-.291-.326-.572-.662-.829-1.014a.492.492,0,0,1-.083-.415c.05-.1.25-.126.391-.157a1.889,1.889,0,0,1,.374,0v-3.04h-2.3v6.846c-.539-.2-.665-.376-.666-.888v-1.527a11.19,11.19,0,0,1-1.269.493,2.149,2.149,0,0,1-2.538-1.743,1.582,1.582,0,0,1,1.052-1.734,2.208,2.208,0,0,1,2.269.234c.15.1.287.222.46.356a1.5,1.5,0,0,0,.026-.181c0-.61,0-1.221,0-1.864-.143-.007-.259-.017-.374-.017-1.554,0-3.107,0-4.661-.011-.286,0-.315.114-.314.349.008,2.09.006,4.18.007,6.27,0,.084-.009.168-.014.258-.513-.2-.632-.361-.632-.85v-6.018h-.443c-.544,0-.582-.03-.738-.634h1.022c-.067-.328-.149-.622-.184-.923a1.518,1.518,0,0,1,1.637-1.838,4.026,4.026,0,0,1,2.383.894,7.389,7.389,0,0,1,.7.6,1.288,1.288,0,0,1,.181.3l-.071.054c-.26-.172-.517-.351-.782-.516a4.361,4.361,0,0,0-1.861-.68c-1.185-.125-1.693.576-1.564,1.679.051.436.056.435.5.435h30.5c-.193-.305-.333-.575-.518-.81-.324-.412-.673-.8-1.015-1.2a1.05,1.05,0,0,0-1.011-.411.531.531,0,0,1-.591-.3c-.153-.257-.337-.5-.534-.783a1.946,1.946,0,0,1,1.719.434,15.98,15.98,0,0,1,2.156,2.676.73.73,0,0,0,.764.4c.314-.03.634-.007.951-.007C-1243.971-145.461-1243.971-145.461-1243.746-144.833Zm-4.875.028c.209.434.408.831.593,1.235a.7.7,0,0,1-.2.934,10.717,10.717,0,0,1-.957.68c-.4.238-.452.313-.269.744a.869.869,0,0,0,.837.581,3.453,3.453,0,0,0,2.063-.642.386.386,0,0,0,.152-.26c.011-1.028,0-2.056.009-3.084,0-.216-.134-.211-.284-.21-.569,0-1.137,0-1.706,0C-1248.468-144.826-1248.551-144.812-1248.62-144.806Zm-19.522,3.018h2.605v-3.018h-2.605Zm-3.638-.025c.145-.356-.074-.543-.372-.662a5.768,5.768,0,0,0-1.073-.372,1.391,1.391,0,0,0-1.637,1.839.927.927,0,0,0,1.1.7,3.607,3.607,0,0,0,1.668-.785C-1271.857-141.27-1271.669-141.463-1271.78-141.813Zm11.832.294c0-.6,0-.6-.442-.894-.063-.043-.125-.088-.191-.126a1.469,1.469,0,0,0-1.688.123,1.144,1.144,0,0,0-.3,1.287.864.864,0,0,0,1,.656,4.7,4.7,0,0,0,1.125-.31C-1260.093-140.911-1259.821-141.13-1259.948-141.518Z" transform="translate(-242.744 -314.903)" fill="#f1552d"/>
    <path id="Path_28141" data-name="Path 28141" d="M-1421.542-142.856a14.337,14.337,0,0,0-1.443-.825,4.728,4.728,0,0,0-1.379-.369c-.969-.1-1.474.41-1.469,1.385,0,.044,0,.087,0,.131.031.589.031.589.62.589h21.433c.539,0,.558.016.721.621h-1.962v6.892c-.548-.216-.66-.376-.659-.893,0-.821-.006-1.641.006-2.462,0-.23-.071-.305-.3-.3-.6.012-1.2,0-1.863,0,0,.279.012.537-.006.793a1.19,1.19,0,0,1-.118.318c-.114-.047-.262-.064-.335-.148a9.146,9.146,0,0,1-.708-.9c-.282-.418-.133-.694.375-.7.864-.012,1.729,0,2.593,0h.324V-141.3h-4.878v6.855c-.505-.163-.665-.375-.666-.843q0-2.806,0-5.613v-.383h-1.7v6.839c-.512-.169-.665-.373-.665-.844q0-1.9,0-3.807v-.382h-2.6l-.029.052c.081.058.167.111.242.176.4.35.824.68,1.193,1.063a.675.675,0,0,1-.009,1,2.6,2.6,0,0,1-1.241.928l1.451,1.3-.3.251c-.479-.425-.945-.834-1.406-1.25a1.406,1.406,0,0,0-.731-.393.787.787,0,0,1-.705-.848c.007-.309.169-.426.446-.3a.666.666,0,0,1,.3.238.513.513,0,0,0,.56.246,1.273,1.273,0,0,0,.988-.678c.142-.232.031-.458-.12-.666a3.1,3.1,0,0,0-1.5-1.113,2.4,2.4,0,0,1-.593-.273c-.114-.082-.162-.255-.239-.387a1.2,1.2,0,0,1,.374-.141c1.028-.011,2.057-.006,3.085-.005h.834c0-.316.015-.607-.012-.895-.006-.056-.175-.137-.269-.137-1.16-.007-2.319,0-3.479,0h-2.071v6.872c-.568-.242-.656-.373-.656-.93,0-.5,0-1,0-1.511a11.2,11.2,0,0,1-1.051.456,2.122,2.122,0,0,1-2.722-1.528,1.44,1.44,0,0,1,.542-1.6,2.269,2.269,0,0,1,2.9.057c.091.074.177.154.3.262v-2.06h-5.305v6.832c-.461-.119-.657-.354-.657-.763q0-2.806,0-5.613v-.457c-.175-.009-.322-.021-.47-.024-.523-.007-.562-.04-.7-.631h1.018c-.063-.282-.136-.522-.17-.768a1.6,1.6,0,0,1,1.984-1.975,4.96,4.96,0,0,1,2.767,1.523C-1421.6-143.1-1421.594-142.988-1421.542-142.856Zm1.436,4.639c0-.524,0-.534-.417-.752a3.9,3.9,0,0,0-.784-.321,1.434,1.434,0,0,0-1.927,1.728.938.938,0,0,0,1.142.768,3.569,3.569,0,0,0,1.661-.8C-1420.2-137.769-1420.021-137.951-1420.106-138.217Z" transform="translate(-120.722 -318.419)" fill="#f1552d"/>
    <path id="Path_28142" data-name="Path 28142" d="M-1392.828-259.688c-.39.191-.777.388-1.17.573q-6.359,3-12.718,6.007c-.316.149-.615.332-.935.471a.5.5,0,0,1-.359-.022c-1.364-.617-2.723-1.247-4.086-1.866q-5.985-2.719-11.971-5.433c-.076-.034-.147-.077-.286-.151.875-.268,1.683-.524,2.5-.757a.568.568,0,0,1,.368.089q1.818.981,3.628,1.976,4.869,2.679,9.732,5.367a.532.532,0,0,0,.6-.065q3.877-2.269,7.756-4.534c1.2-.7,2.4-1.388,3.59-2.107a1.574,1.574,0,0,1,1.56-.175,17.242,17.242,0,0,0,1.777.55Z" transform="translate(-123.118 -222.868)" fill="#f1552d"/>
    <path id="Path_28143" data-name="Path 28143" d="M-1571-123.409l1.42,1.277-.244.275c-.105-.082-.2-.148-.287-.224-.336-.3-.671-.594-1-.9a1.957,1.957,0,0,0-.97-.557.751.751,0,0,1-.616-.847c.016-.269.167-.377.42-.277a.837.837,0,0,1,.292.2.73.73,0,0,0,1.034.157,2,2,0,0,0,.5-.463.544.544,0,0,0-.035-.7,2.964,2.964,0,0,0-1.367-1.085,3.513,3.513,0,0,1-.717-.319c-.129-.082-.2-.256-.3-.389a1.3,1.3,0,0,1,.417-.164c1.181-.015,2.363-.019,3.544-.006.272,0,.357-.07.35-.347-.016-.714,0-.7-.719-.7-1.389.009-2.778,0-4.168,0-.4,0-.357-.375-.584-.613.172-.009.274-.019.377-.019l14.933,0c.525,0,.562.031.717.624h-1.969v6.887c-.543-.221-.652-.372-.653-.872q0-1.182,0-2.363v-.385h-2.15c0,.252.015.5-.007.747a1.249,1.249,0,0,1-.137.341c-.114-.053-.26-.076-.335-.163a9.28,9.28,0,0,1-.7-.9c-.268-.4-.121-.68.365-.69.787-.016,1.575-.006,2.363-.007h.578c.01-.121.025-.216.026-.312,0-.645-.005-1.291.005-1.936,0-.243-.055-.344-.33-.342q-2.132.022-4.266,0c-.284,0-.347.093-.346.357.01,2.089.008,4.179.008,6.269,0,.083-.011.166-.019.279-.4-.215-.648-.418-.637-.928.04-1.87.016-3.741.016-5.612v-.323h-1.726v6.873c-.4-.224-.67-.4-.656-.885.036-1.268.012-2.538.012-3.807,0-.4,0-.405-.418-.405-.73,0-1.46,0-2.223.066.088.065.182.124.264.2.4.342.81.665,1.175,1.037a.676.676,0,0,1,.013,1A2.585,2.585,0,0,1-1571-123.409Z" transform="translate(0 -331.264)" fill="#f1552d"/>
    <path id="Path_28144" data-name="Path 28144" d="M-1463.9-110.785v1.1h-.608c-.842,0-1.684,0-2.525.005-.217,0-.323-.053-.307-.292.017-.26,0-.522,0-.81Z" transform="translate(-87.757 -346.329)" fill="#f1552d"/>
    <path id="Path_28145" data-name="Path 28145" d="M-1305.513-142.386l-.6-.647.606-.613.586.626Z" transform="translate(-220.378 -319.298)" fill="#f1552d"/>
    <path id="Path_28146" data-name="Path 28146" d="M-1447.243-496.169c.059-1.179.085-2.361.186-3.536a16.3,16.3,0,0,1,.953-4.012,21.4,21.4,0,0,1,5.612-8.633,20.912,20.912,0,0,1,7.671-4.607,20.549,20.549,0,0,1,7.555-1.077,20.573,20.573,0,0,1,9.109,2.548,21.1,21.1,0,0,1,7.212,6.471,21.3,21.3,0,0,1,3.512,8.237,23.838,23.838,0,0,1,.292,6.536,20.388,20.388,0,0,1-2.475,8.1,21.209,21.209,0,0,1-8.562,8.638,20.411,20.411,0,0,1-8.949,2.525,20.532,20.532,0,0,1-8.8-1.465,21,21,0,0,1-8.218-5.932,21.562,21.562,0,0,1-4.511-8.722A17.333,17.333,0,0,1-1447.243-496.169Zm22.8-4.112.077.036a139.965,139.965,0,0,1,9.185-13.094c-.218.018-.345.027-.471.04a4.361,4.361,0,0,1-2.339-.325,4.557,4.557,0,0,1-1.941-1.845c-.079-.127-.144-.3-.345-.2s-.463.068-.462.41a21.764,21.764,0,0,1-.687,4.791,87.705,87.705,0,0,1-2.838,9.647C-1424.331-500.644-1424.387-500.462-1424.447-500.281Zm-1.694,23.942c.191-.155.323-.263.455-.37a3.785,3.785,0,0,1,2.519-.953,4.253,4.253,0,0,1,1.871.545c.134.07.26.156.4-.022.125-.158.266-.274.139-.51-.176-.327-.327-.668-.472-1.009a80.773,80.773,0,0,1-2.839-8.138c-.529-1.747-1.017-3.506-1.526-5.26-.032-.112-.075-.221-.113-.331A159.447,159.447,0,0,1-1426.141-476.339Zm11.088-3.708c-3.372-4.062-6.268-8.43-9.253-12.739a127.085,127.085,0,0,1,4.343,14.689A7.687,7.687,0,0,1-1415.053-480.047Zm-7.676-14.175c.012.075.007.1.019.114,3.983,3.306,8.02,6.551,11.687,10.218.02.02.059.02.1.033,0-.127,0-.244,0-.36a3.635,3.635,0,0,1,.391-1.838,3.447,3.447,0,0,1,1.908-1.516c.132-.051.323-.055.287-.284-.032-.2-.047-.378-.314-.464-1.039-.334-2.078-.674-3.1-1.065-3.563-1.368-7.026-2.963-10.467-4.607C-1422.376-494.069-1422.54-494.138-1422.729-494.222Zm-14.253,14.029c1.191-2.318,2.5-4.526,3.873-6.693s2.775-4.315,4.164-6.471a155.24,155.24,0,0,1-12.137,10.132A4.959,4.959,0,0,1-1436.983-480.193Zm28.927-24.227a137.007,137.007,0,0,1-14.121,6.795c5.123-.756,10.234-1.565,15.431-1.888A4.328,4.328,0,0,1-1408.055-504.42Zm-23.515-11.465a152.784,152.784,0,0,1,4.732,15.223,156.15,156.15,0,0,1,.238-15.688A4.279,4.279,0,0,1-1431.57-515.886Zm-.514.643a4.846,4.846,0,0,1-2.1,1.522,6.988,6.988,0,0,1-2.564.183,156.728,156.728,0,0,1,8.771,13.256c-.725-2.468-1.485-4.918-2.215-7.377A76.266,76.266,0,0,1-1432.083-515.242Zm4.167,22.583a140.169,140.169,0,0,1-8.656,13.23,5.094,5.094,0,0,1,4.668,1.675C-1430.893-482.868-1429.362-487.749-1427.916-492.66Zm5.086-6.157c2.38-1.134,4.668-2.248,6.975-3.318a72.889,72.889,0,0,1,7.145-2.926,6.487,6.487,0,0,1-2.685-3.964c-3.608,3.608-7.468,6.821-11.314,10.048A1.346,1.346,0,0,0-1422.83-498.816Zm-3.971,6.465-.079-.019c-.038.131-.079.262-.115.394-.658,2.425-1.3,4.856-1.978,7.274a71.39,71.39,0,0,1-2.375,7.223,1.207,1.207,0,0,0-.019.388,1.257,1.257,0,0,0,.378-.062,3.637,3.637,0,0,1,4,.18c.077.052.161.093.3.169A149.233,149.233,0,0,1-1426.8-492.351Zm-3.463-2.865a144.1,144.1,0,0,1-14.779,2.005,17.452,17.452,0,0,1,.963,2.163,17.856,17.856,0,0,1,.39,2.355C-1439.336-491.1-1434.794-493.14-1430.264-495.217ZM-1441.1-484.2c3.58-3.636,7.461-6.815,11.3-10.046a.577.577,0,0,0-.254.067c-2.171,1.058-4.324,2.154-6.516,3.165s-4.444,1.947-6.669,2.914a3.817,3.817,0,0,0-.485.194.435.435,0,0,0-.171.278c-.009.054.1.149.175.19.2.109.417.192.621.3a3.429,3.429,0,0,1,1.926,2.611C-1441.158-484.444-1441.135-484.363-1441.1-484.2Zm26.071-28.251c-2.548,4.513-5.531,8.657-8.447,12.848a6.1,6.1,0,0,0,.615-.5c2.832-2.471,5.654-4.952,8.5-7.4.835-.719,1.736-1.362,2.619-2.024a.383.383,0,0,0,.167-.5c-.042-.089-.211-.135-.332-.166-.158-.04-.325-.042-.486-.068a3.05,3.05,0,0,1-2.473-1.866C-1414.9-512.216-1414.949-512.3-1415.026-512.448Zm-28.692,6.694c4.837,1.951,9.4,4.415,14.005,6.812-1.892-1.726-3.824-3.4-5.706-5.122s-3.72-3.511-5.6-5.291a3.69,3.69,0,0,1-.695,2.281A4.855,4.855,0,0,1-1443.718-505.754Zm3.181-4.146c4.056,3.211,7.769,6.742,11.542,10.212-2.8-4.23-5.646-8.422-8.073-12.972A4.712,4.712,0,0,1-1440.537-509.9Zm10.2,12.042c-4.466-2.164-8.951-4.283-13.278-6.889a5.431,5.431,0,0,1-1.777,4.455C-1440.2-500.143-1435.277-498.972-1430.335-497.858Zm18.85,14.327c-4.162-3.071-7.939-6.444-11.735-9.794-.053-.047-.112-.088-.168-.131,3.017,4.227,6.122,8.385,8.806,12.945A3.874,3.874,0,0,1-1411.485-483.531Zm-34.263-10.554a134.191,134.191,0,0,1,15.25-2.52,83.484,83.484,0,0,1-14.455-2.167C-1444.633-497.088-1444.55-495.51-1445.748-494.085Zm23.715-1.419a136.452,136.452,0,0,1,13.579,6.165,8.539,8.539,0,0,1,1.25-4.25A103.451,103.451,0,0,1-1422.033-495.5Zm.07-.99c5.166.412,10.3.669,15.3,1.946a.247.247,0,0,0,.1,0,.117.117,0,0,0,.057-.029.667.667,0,0,0,.064-.1,2.347,2.347,0,0,1-1.069-1.806,3.736,3.736,0,0,1,.4-2.212c-4.93,1.011-9.826,1.562-14.721,2.122C-1421.863-496.566-1421.887-496.54-1421.963-496.493Zm-3.7-4.236c.846-4.9,1.659-9.8,3.551-14.5a5.706,5.706,0,0,1-3.822-1.395A152.32,152.32,0,0,1-1425.667-500.729Zm2.186,4.245a2.662,2.662,0,0,0-2.692-2.74,2.669,2.669,0,0,0-2.642,2.89,2.7,2.7,0,0,0,2.677,2.569A2.684,2.684,0,0,0-1423.481-496.484Z" transform="translate(-104.279 -11.317)" fill="#f1552d"/>
  </g>
</svg>
