<svg xmlns="http://www.w3.org/2000/svg" width="70" height="43.514" viewBox="0 0 70 43.514">
  <g id="download_3_" data-name="download (3)" transform="translate(-4.999 -22.982)">
    <path id="Path_24" data-name="Path 24" d="M72.112,40.867a23.168,23.168,0,0,0-3.939-9.554,1.175,1.175,0,0,0-1.359-.582,40.763,40.763,0,0,1-5.031.523,6.1,6.1,0,0,1-2.674-.461c-4.785-2.176-9.6-4.31-14.264-6.732-2.656-1.378-4.912-1.556-7.5.169-2.828,1.886-5.9,3.373-8.856,5.06a4.3,4.3,0,0,0-.882,6.924c1.35,1.238,3.341,1.255,5.224.12q3.848-2.32,7.742-4.56a1.443,1.443,0,0,1,1.108-.227,74.669,74.669,0,0,1,6.744,3.533c2.114,1.326,4.034,2.982,6.059,4.464l10.487,7.839a13.427,13.427,0,0,1,2.018,1.5,3.949,3.949,0,0,0,4.84.964c.817-.317,1.065-.635,1-1.4C72.611,45.917,72.548,43.357,72.112,40.867Z" transform="translate(-4.72 0)" fill="#fff" fill-rule="evenodd"/>
    <path id="Path_25" data-name="Path 25" d="M38.566,61.875a10.709,10.709,0,0,0-2.571.768,7.044,7.044,0,0,0,.147-2.543,4.135,4.135,0,0,0-1.668-2.2,2.884,2.884,0,0,0-2.313.037c-.7.3-1.2,1.089-1.776,1.651a2.933,2.933,0,0,0-5.632-.688c-.117-.2-.194-.316-.261-.439-.933-1.7-2.195-2.263-3.719-1.656s-2.15,1.944-1.751,3.793c.247,1.145.485,2.294.769,3.43A2.753,2.753,0,0,0,22.9,66.275a1.115,1.115,0,0,1,1.305.643,2.706,2.706,0,0,0,4.058.65l.815-.619a2.95,2.95,0,0,0,1.412,3.447c1.431.826,2.655.242,3.76-.806.154.5.255.942.427,1.356a2.986,2.986,0,0,0,2.692,1.818,3.035,3.035,0,0,0,2.644-2.085c.457-1.831.877-3.677,1.2-5.537A2.716,2.716,0,0,0,38.566,61.875Z" transform="translate(-3.09 -6.539)" fill="#fff" fill-rule="evenodd"/>
    <path id="Path_26" data-name="Path 26" d="M14.051,25.453A1.789,1.789,0,0,0,11.443,26.7Q8.259,37.172,5.095,47.647a1.927,1.927,0,0,0,1.422,2.508c.677.159,1.359.295,2.039.432.95.192,1.9.376,2.943.581-.05-8.593,2.535-16.332,5.946-23.925C16.258,26.611,15.177,25.98,14.051,25.453Z" transform="translate(0 -0.44)" fill="#fff" fill-rule="evenodd"/>
    <path id="Path_27" data-name="Path 27" d="M91.85,48.171c-.328-2.437-.561-4.813-.833-7.259-.416-3.732-.8-7.43-1.26-11.156a1.743,1.743,0,0,0-2.379-1.613c-2.023.516-4.035.939-6.16,1.511,4.772,6.53,6.152,13.657,5.876,21.71H89.08C91.573,51.364,92.193,50.715,91.85,48.171Z" transform="translate(-16.938 -0.988)" fill="#fff" fill-rule="evenodd"/>
    <path id="Path_28" data-name="Path 28" d="M65.1,53.15,49.749,41.739c-3.041-2.472-6.095-4.984-9.8-6.355a2.329,2.329,0,0,0-1.716.079c-2.446,1.3-4.845,2.686-7.25,4.064a5.843,5.843,0,0,1-7.559-1.565,6.306,6.306,0,0,1,.058-7.511c.183-.24.345-.5.59-.85a8.177,8.177,0,0,1-.954-.06,1.96,1.96,0,0,0-2.544,1.586c-1.079,3.348-2.279,6.655-3.4,9.989a31.383,31.383,0,0,0-.87,3.975l-.327,3.324c0,1.071-.024,1.969.019,2.864a.848.848,0,0,0,.412.545c.086.052.359-.122.475-.258a13.962,13.962,0,0,1,1.244-1.415,4.45,4.45,0,0,1,4.805-.515c1.077.772.994.772,2.392.287a4.549,4.549,0,0,1,4.1.5,1.306,1.306,0,0,0,1.482.145c2.681-1.371,5.766.724,6.477,2.947a1.342,1.342,0,0,0,.886.743,5.276,5.276,0,0,1,4.3,6.489c-.253.908-.446,1.835-.653,2.757a1.053,1.053,0,0,0,.493,1.324c1.118.7,2.154,1.55,3.217,2.347a2.219,2.219,0,0,0,3.722-1.35,1.543,1.543,0,0,0-.7-1.92c-1.234-.8-2.273-1.742-3.526-2.693-.652-.494-.238-1.451.67-1.056a2.708,2.708,0,0,1,.444.306c1.923,1.435,3.841,2.877,5.77,4.3a2.021,2.021,0,0,0,3.044-.658,1.929,1.929,0,0,0-.4-2.967q-3.269-2.482-6.536-4.966c-.454-.345-1.2-.69-.716-1.373.511-.713,1.047,0,1.492.325,2.73,2.017,5.459,4.035,8.161,6.093.669.509,1.234,1.064,2.156.61a2.885,2.885,0,0,0,1.773-2.532,1.8,1.8,0,0,0-.593-1.305c-2.329-1.817-4.7-3.571-7.077-5.324-.49-.362-.974-.759-.488-1.336.146-.175.927,0,1.262.249q4.468,3.267,8.864,6.639a1.477,1.477,0,0,0,1.712.2A3.031,3.031,0,0,0,65.1,53.15Z" transform="translate(-2.438 -1.263)" fill="#fff" fill-rule="evenodd"/>
  </g>
</svg>
