<svg xmlns="http://www.w3.org/2000/svg" width="55.071" height="49.277" viewBox="0 0 55.071 49.277">
  <g id="Group_56" data-name="Group 56" transform="translate(-752.527 46)">
    <path id="Path_8591" data-name="Path 8591" d="M807.6-42.062v30.489a.439.439,0,0,0-.044.1,4.271,4.271,0,0,1-4.484,3.813H785.883V.591h.551c1.489,0,2.977-.005,4.465,0a1.325,1.325,0,0,1,.417,2.591c-.133.041-.272.062-.408.092H769.217c-.073-.016-.144-.037-.218-.049a1.323,1.323,0,0,1-1.049-1.75,1.34,1.34,0,0,1,1.331-.887q2.318,0,4.635,0h.327V-7.661h-.414q-8.413,0-16.826,0a4.249,4.249,0,0,1-2.456-.653,4.371,4.371,0,0,1-2.018-3.831q-.008-14.678,0-29.356c0-.094,0-.188,0-.281a4.38,4.38,0,0,1,3-4.01c.318-.1.655-.142.982-.211h47.091a1.158,1.158,0,0,0,.159.044,4.2,4.2,0,0,1,3.636,3.084C807.493-42.611,807.535-42.333,807.6-42.062Zm-27.531-1.162h-23.01c-.112,0-.225,0-.337,0a1.4,1.4,0,0,0-1.146.66,1.945,1.945,0,0,0-.3,1.121q0,14.624,0,29.248a1.589,1.589,0,0,0,1.781,1.781h46.02c.1,0,.206,0,.309,0a1.286,1.286,0,0,0,1.171-.7,2.433,2.433,0,0,0,.276-1.038q.02-14.666.008-29.333a1.579,1.579,0,0,0-1.738-1.74ZM783.19.58V-7.645h-6.252V.58Z" transform="translate(0)" fill="#fff"/>
    <path id="Path_8592" data-name="Path 8592" d="M862.567-14.284a1.426,1.426,0,0,1,1.151.608q2.379,3.062,4.767,6.117c.207.266.417.53.621.8a1.327,1.327,0,0,1-.02,1.776q-2.318,2.913-4.64,5.825c-.257.322-.511.646-.771.966A1.328,1.328,0,1,1,861.612.142q2.318-2.913,4.646-5.82a.279.279,0,0,0,0-.424q-2.33-2.976-4.647-5.961a1.328,1.328,0,0,1,.713-2.188A2.313,2.313,0,0,1,862.567-14.284Z" transform="translate(-71.532 -20.863)" fill="#fff"/>
    <path id="Path_8593" data-name="Path 8593" d="M783.971-6.017l2.283,2.93Q787.524-1.458,788.8.17a1.32,1.32,0,0,1,.262,1.24,1.253,1.253,0,0,1-1.024.93,1.243,1.243,0,0,1-1.273-.475c-.579-.724-1.144-1.461-1.714-2.192q-1.857-2.383-3.714-4.767a1.35,1.35,0,0,1,0-1.885q2.662-3.341,5.323-6.684a1.354,1.354,0,0,1,1.392-.588,1.314,1.314,0,0,1,.769,2.129c-.655.844-1.328,1.673-1.994,2.508l-2.716,3.407C784.063-6.15,784.022-6.088,783.971-6.017Z" transform="translate(-18.697 -20.866)" fill="#fff"/>
    <path id="Path_8594" data-name="Path 8594" d="M818.451,3.28a1.338,1.338,0,0,1-1.333-1.865,2.633,2.633,0,0,1,.132-.247Q820.7-4.718,824.143-10.6a1.33,1.33,0,0,1,1.934-.539,1.31,1.31,0,0,1,.4,1.783c-.629,1.1-1.274,2.182-1.912,3.272Q822.058-1.8,819.551,2.49A1.365,1.365,0,0,1,818.451,3.28Z" transform="translate(-42.409 -22.781)" fill="#fff"/>
  </g>
</svg>
