<svg version="1.2" xmlns="http://www.w3.org/2000/svg" viewBox="0 0 666 439" width="666" height="439">
	<title>login-svg</title>
	<defs>
		<clipPath clipPathUnits="userSpaceOnUse" id="cp1">
			<path d="m-27-21h744v504h-744z"/>
		</clipPath>
		<linearGradient id="g1" x1="205.7" y1="218.7" x2="432.6" y2="218.7" gradientUnits="userSpaceOnUse">
			<stop offset="0" stop-color="#3e815b"/>
			<stop offset="1" stop-color="#277455"/>
		</linearGradient>
		<linearGradient id="g2" x1="468.6" y1="186.3" x2="502.6" y2="186.3" gradientUnits="userSpaceOnUse">
			<stop offset="0" stop-color="#ceefe5"/>
			<stop offset="1" stop-color="#27c888"/>
		</linearGradient>
		<linearGradient id="g3" x1="123.7" y1="386.8" x2="179.2" y2="386.8" gradientUnits="userSpaceOnUse">
			<stop offset="0" stop-color="#da251c"/>
			<stop offset="1" stop-color="#a2261f"/>
		</linearGradient>
		<linearGradient id="g4" x1="520.3" y1="269.7" x2="528.5" y2="269.7" gradientUnits="userSpaceOnUse">
			<stop offset="0" stop-color="#cbce55"/>
			<stop offset="1" stop-color="#217b4f"/>
		</linearGradient>
		<linearGradient id="g5" x1="111.8" y1="308.2" x2="142.3" y2="308.2" gradientUnits="userSpaceOnUse">
			<stop offset="0" stop-color="#3e815b"/>
			<stop offset="1" stop-color="#277455"/>
		</linearGradient>
		<linearGradient id="g6" x1="115.4" y1="310.6" x2="144.4" y2="310.6" gradientUnits="userSpaceOnUse">
			<stop offset="0" stop-color="#3e815b"/>
			<stop offset="1" stop-color="#277455"/>
		</linearGradient>
		<linearGradient id="g7" x1="142.8" y1="319.5" x2="148.6" y2="319.5" gradientUnits="userSpaceOnUse">
			<stop offset="0" stop-color="#3e815b"/>
			<stop offset="1" stop-color="#277455"/>
		</linearGradient>
		<linearGradient id="g8" x1="152.5" y1="295" x2="187.5" y2="295" gradientUnits="userSpaceOnUse">
			<stop offset="0" stop-color="#cbce55"/>
			<stop offset="1" stop-color="#217b4f"/>
		</linearGradient>
		<linearGradient id="g9" x1="155.6" y1="299.2" x2="183.1" y2="299.2" gradientUnits="userSpaceOnUse">
			<stop offset="0" stop-color="#3e815b"/>
			<stop offset="1" stop-color="#277455"/>
		</linearGradient>
		<linearGradient id="g10" x1="153.5" y1="315.5" x2="156.7" y2="315.5" gradientUnits="userSpaceOnUse">
			<stop offset="0" stop-color="#3e815b"/>
			<stop offset="1" stop-color="#277455"/>
		</linearGradient>
		<linearGradient id="g11" x1="105.7" y1="286.4" x2="151.9" y2="286.4" gradientUnits="userSpaceOnUse">
			<stop offset="0" stop-color="#cbce55"/>
			<stop offset="1" stop-color="#217b4f"/>
		</linearGradient>
		<linearGradient id="g12" x1="111.5" y1="292" x2="147.7" y2="292" gradientUnits="userSpaceOnUse">
			<stop offset="0" stop-color="#3e815b"/>
			<stop offset="1" stop-color="#277455"/>
		</linearGradient>
		<linearGradient id="g13" x1="146.3" y1="313.5" x2="150.5" y2="313.5" gradientUnits="userSpaceOnUse">
			<stop offset="0" stop-color="#3e815b"/>
			<stop offset="1" stop-color="#277455"/>
		</linearGradient>
	</defs>
	<style>
		.s0 { opacity: .4;fill: #ffffff } 
		.s1 { fill: url(#g1) } 
		.s2 { fill: #002822 } 
		.s3 { fill: #eaf7f9 } 
		.s4 { fill: url(#g2) } 
		.s5 { fill: #a5261f } 
		.s6 { fill: #da251c } 
		.s7 { fill: url(#g3) } 
		.s8 { fill: #f8f8f8 } 
		.s9 { fill: #e65924 } 
		.s10 { fill: #fd9c28 } 
		.s11 { fill: #01483f } 
		.s12 { fill: #067254 } 
		.s13 { fill: #c9fce9 } 
		.s14 { fill: #847d3d } 
		.s15 { fill: url(#g4) } 
		.s16 { fill: #45391d } 
		.s17 { fill: #f5c99d } 
		.s18 { fill: #d8a982 } 
		.s19 { fill: #070707 } 
		.s20 { fill: #b8db70 } 
		.s21 { fill: #97c157 } 
		.s22 { fill: #ffffff } 
		.s23 { fill: #1e3865 } 
		.s24 { fill: #679b40 } 
		.s25 { fill: #4ac195 } 
		.s26 { fill: url(#g5) } 
		.s27 { fill: url(#g6) } 
		.s28 { fill: url(#g7) } 
		.s29 { fill: url(#g8) } 
		.s30 { fill: url(#g9) } 
		.s31 { fill: url(#g10) } 
		.s32 { fill: url(#g11) } 
		.s33 { fill: url(#g12) } 
		.s34 { fill: url(#g13) } 
		.s35 { fill: #3918ab } 
	</style>
	<g id="Clip-Path: Group_87-2" clip-path="url(#cp1)">
		<g id="Group_87-2">
			<g id="Group_86">
				<path id="Path_2204" class="s0" d="m630.8 312.9c-1.3 33.8 29.9 90.5 3.6 115.4-7.7 6.2-6.5 9.9-16 9.8-167.5 1.2-416.6-2.4-585.1-2.6-71.6-48.6-21.2-185.1 86.2-230.5 93.4-39.5 92.1-196.5 224.1-187.1 52 3.7 63.2 12 103.1 1.2 346.2-94.3 176.9 194.9 184.1 293.8z"/>
				<g id="Group_85">
					<path id="Rectangle_7" class="s1" d="m205.7 143h226.9v151.5h-226.9z"/>
					<g id="Group_34">
						<path id="Path_2205" fill-rule="evenodd" class="s2" d="m436.7 297.8h-235.2v-158.2h235.2zm-231-3.3h226.9v-151.5h-226.9z"/>
					</g>
					<path id="Path_2206" class="s2" d="m438.2 297.7h-237.8q-0.4 0-0.9-0.2-0.4-0.2-0.7-0.5-0.3-0.3-0.5-0.8-0.2-0.4-0.2-0.8 0-0.5 0.2-0.9 0.2-0.5 0.5-0.8 0.3-0.3 0.7-0.5 0.5-0.2 0.9-0.2h237.8q0.4 0 0.9 0.2 0.4 0.2 0.7 0.5 0.3 0.3 0.5 0.8 0.2 0.4 0.2 0.9 0 0.4-0.2 0.8-0.2 0.5-0.5 0.8-0.3 0.3-0.7 0.5-0.5 0.2-0.9 0.2z"/>
					<path id="Path_2207" class="s3" d="m387.5 293h-6.8q-0.4 0-0.6-0.1-0.3-0.1-0.5-0.3-0.3-0.3-0.4-0.5-0.1-0.3-0.1-0.6 0-0.3 0.1-0.6 0.1-0.3 0.4-0.5 0.2-0.2 0.5-0.4 0.2-0.1 0.6-0.1h6.8q0.3 0 0.6 0.1 0.3 0.2 0.5 0.4 0.2 0.2 0.3 0.5 0.1 0.3 0.1 0.6 0 0.3-0.1 0.6-0.1 0.2-0.3 0.5-0.2 0.2-0.5 0.3-0.3 0.1-0.6 0.1z"/>
					<path id="Rectangle_8" class="s3" d="m337.4 291.5c0-0.9 0.7-1.6 1.5-1.6h2.7c0.8 0 1.5 0.7 1.5 1.6 0 0.8-0.7 1.5-1.5 1.5h-2.7c-0.8 0-1.5-0.7-1.5-1.5z"/>
					<path id="Path_2208" class="s3" d="m334.1 293h-6.9q-0.3 0-0.6-0.1-0.3-0.1-0.5-0.3-0.2-0.3-0.3-0.5-0.1-0.3-0.1-0.6 0-0.3 0.1-0.6 0.1-0.3 0.3-0.5 0.2-0.2 0.5-0.4 0.3-0.1 0.6-0.1h6.9q0.3 0 0.6 0.1 0.3 0.2 0.5 0.4 0.2 0.2 0.4 0.5 0.1 0.3 0.1 0.6 0 0.3-0.1 0.6-0.2 0.2-0.4 0.5-0.2 0.2-0.5 0.3-0.3 0.1-0.6 0.1z"/>
					<g id="Group_41">
						<path id="Rectangle_9" class="s2" d="m475.6 168.2h20c1.1 0 2.3 0.2 3.3 0.7 1 0.4 2 1 2.8 1.8 0.8 0.8 1.4 1.8 1.8 2.8 0.5 1.1 0.7 2.2 0.7 3.3v18.9c0 1.2-0.2 2.3-0.7 3.3-0.4 1.1-1 2-1.8 2.8-0.8 0.8-1.8 1.4-2.8 1.9-1 0.4-2.2 0.6-3.3 0.6h-20c-1.1 0-2.3-0.2-3.3-0.6-1-0.5-2-1.1-2.8-1.9-0.8-0.8-1.4-1.7-1.9-2.8-0.4-1-0.6-2.1-0.6-3.3v-18.9c0-1.1 0.2-2.2 0.6-3.3 0.5-1 1.1-2 1.9-2.8 0.8-0.8 1.8-1.4 2.8-1.8 1-0.5 2.2-0.7 3.3-0.7z"/>
						<path id="Rectangle_10" class="s4" d="m476.4 169.8h18.3q1.6 0 3 0.6 1.5 0.6 2.6 1.7 1.1 1.1 1.7 2.5 0.6 1.5 0.6 3v17.3q0 1.6-0.6 3-0.6 1.4-1.7 2.5-1.1 1.1-2.6 1.7-1.4 0.6-3 0.6h-18.3q-1.5 0-3-0.6-1.4-0.6-2.5-1.7-1.1-1.1-1.7-2.5-0.6-1.4-0.6-3v-17.3q0-1.5 0.6-3 0.6-1.4 1.7-2.5 1.1-1.1 2.5-1.7 1.5-0.6 3-0.6z"/>
						<g id="Group_37">
							<g id="Group_35">
								<path id="Path_2209" class="s2" d="m484.8 173.1c0-0.3 0.2-0.6 0.5-0.7 0.3-0.2 0.6-0.1 0.8 0.1 0.3 0.2 0.3 0.6 0.2 0.9-0.1 0.3-0.4 0.4-0.7 0.4q-0.2 0-0.3 0-0.1-0.1-0.2-0.2-0.2-0.1-0.2-0.2-0.1-0.2-0.1-0.3z"/>
								<path id="Path_2210" class="s2" d="m491 174.2c0.2-0.3 0.5-0.5 0.8-0.4 0.3 0 0.6 0.2 0.7 0.5 0.1 0.3-0.1 0.6-0.3 0.8-0.2 0.2-0.6 0.3-0.9 0.1q-0.1-0.1-0.2-0.2-0.1-0.1-0.1-0.3-0.1-0.1 0-0.3 0-0.1 0-0.2z"/>
								<path id="Path_2211" class="s2" d="m496.4 178.4c0.2-0.2 0.6-0.2 0.8 0 0.3 0.2 0.4 0.5 0.3 0.8 0 0.3-0.3 0.5-0.6 0.6-0.3 0.1-0.6-0.1-0.8-0.3q0-0.2-0.1-0.3 0-0.2 0-0.3 0.1-0.2 0.2-0.3 0-0.1 0.2-0.2z"/>
								<path id="Path_2212" class="s2" d="m499 184.9c0.3 0 0.6 0.2 0.7 0.5 0.1 0.3 0.1 0.6-0.1 0.9-0.3 0.2-0.6 0.2-0.9 0.1-0.3-0.1-0.5-0.4-0.5-0.7q0-0.1 0.1-0.3 0.1-0.1 0.2-0.2 0.1-0.1 0.2-0.2 0.2-0.1 0.3-0.1z"/>
								<path id="Path_2213" class="s2" d="m497.7 192.6c0.2 0.2 0.3 0.6 0.1 0.9-0.2 0.3-0.6 0.4-1 0.3-0.3-0.1-0.5-0.5-0.4-0.9 0-0.3 0.4-0.6 0.7-0.6q0.1 0 0.2 0 0 0.1 0.1 0.1 0.1 0 0.1 0.1 0.1 0 0.2 0.1z"/>
								<path id="Path_2214" class="s2" d="m492.8 197.4c0.3 0.3 0.3 0.7 0.1 1-0.2 0.3-0.6 0.4-0.9 0.3-0.4-0.2-0.5-0.5-0.5-0.9 0.1-0.4 0.4-0.6 0.8-0.6q0.1 0 0.1 0 0.1 0 0.2 0 0 0.1 0.1 0.1 0.1 0 0.1 0.1z"/>
								<path id="Path_2215" class="s2" d="m484.8 199.9c0-0.3 0.2-0.6 0.5-0.7 0.3-0.1 0.6-0.1 0.8 0.2 0.3 0.2 0.3 0.5 0.2 0.8-0.1 0.3-0.4 0.5-0.7 0.5q-0.2 0-0.3-0.1-0.1 0-0.2-0.2-0.2-0.1-0.2-0.2-0.1-0.1-0.1-0.3z"/>
							</g>
							<g id="Group_36">
								<path id="Path_2216" class="s2" d="m480.2 174.3q0 0.1 0 0.1 0 0.1 0 0.2 0 0.1 0 0.1c-0.1 0.4-0.4 0.6-0.8 0.6-0.4 0-0.7-0.3-0.7-0.7-0.1-0.3 0.2-0.7 0.5-0.8 0.4-0.1 0.7 0 0.9 0.4q0.1 0 0.1 0.1z"/>
								<path id="Path_2217" class="s2" d="m475 178.6q0.1 0.1 0.1 0.3 0.1 0.1 0 0.3 0 0.1-0.1 0.3c-0.1 0.2-0.4 0.4-0.8 0.3-0.3-0.1-0.5-0.3-0.6-0.6 0-0.3 0.1-0.6 0.3-0.8 0.3-0.2 0.6-0.2 0.9 0q0.1 0.1 0.2 0.2z"/>
								<path id="Path_2218" class="s2" d="m472.5 185q0.1 0.1 0.2 0.2 0.1 0.1 0.2 0.2 0 0.2 0 0.3c0 0.3-0.2 0.6-0.4 0.7-0.3 0.1-0.7 0.1-0.9-0.1-0.2-0.3-0.3-0.6-0.2-0.9 0.2-0.3 0.4-0.5 0.8-0.5q0.1 0 0.3 0.1z"/>
								<path id="Path_2219" class="s2" d="m473.6 192.5q0.1-0.1 0.2-0.1 0 0 0.1-0.1 0.1 0 0.1 0c0.4 0 0.7 0.3 0.8 0.6 0.1 0.4-0.1 0.8-0.5 0.9-0.3 0.1-0.7 0-0.9-0.3-0.2-0.3-0.2-0.7 0.1-0.9q0.1-0.1 0.1-0.1z"/>
								<path id="Path_2220" class="s2" d="m478.6 197.2q0.1 0 0.3 0 0.1 0 0.3 0 0.1 0.1 0.2 0.2c0.3 0.2 0.3 0.6 0.2 0.8-0.1 0.3-0.4 0.5-0.7 0.5-0.3 0-0.6-0.2-0.7-0.5-0.1-0.2-0.1-0.6 0.1-0.8q0.2-0.1 0.3-0.2z"/>
							</g>
						</g>
						<g id="Group_40">
							<path id="Path_2221" class="s2" d="m485.4 185.7c0-0.3 0.2-0.6 0.5-0.7 0.3-0.1 0.6 0 0.8 0.2 0.2 0.2 0.3 0.5 0.2 0.8-0.2 0.3-0.4 0.5-0.7 0.5q-0.2 0-0.3-0.1-0.2 0-0.3-0.1-0.1-0.1-0.2-0.3 0-0.1 0-0.3z"/>
							<g id="Group_38">
								<path id="Rectangle_11" class="s2" d="m486.1 176.1h0.2v9.6h-0.2z"/>
							</g>
							<g id="Group_39">
								<path id="Rectangle_12" class="s2" d="m485.9 185.5l5.1-4 0.4 0.4-5.1 4.1z"/>
							</g>
						</g>
					</g>
					<path id="Path_2222" class="s5" d="m183.5 342.8v2.2c0 0.7-0.3 1.3-0.6 1.3h-78.2c-0.3 0-0.5-0.6-0.5-1.3v-2.2c0-0.7 0.2-1.3 0.5-1.3h78.2c0.3 0 0.6 0.6 0.6 1.3z"/>
					<path id="Path_2223" class="s6" d="m183.5 342.8v2.2c0 0.7-0.2 1.3-0.5 1.3h-62.1c-0.3 0-0.5-0.6-0.5-1.3v-2.2c0-0.7 0.2-1.3 0.5-1.3h62.1c0.3 0 0.5 0.6 0.5 1.3z"/>
					<path id="Rectangle_13" class="s6" d="m108.2 346.3h71v81h-71z"/>
					<path id="Rectangle_14" class="s7" d="m123.7 346.3h55.5v81h-55.5z"/>
					<g id="Group_45">
						<g id="Group_42">
							<path id="Path_2224" fill-rule="evenodd" class="s8" d="m176.3 422.8h-49.6v-74.2h49.6zm-49.1-0.5h48.5v-73.1h-48.5z"/>
						</g>
						<g id="Group_43">
							<path id="Rectangle_15" class="s8" d="m127 373.2h49v0.5h-49z"/>
						</g>
						<g id="Group_44">
							<path id="Rectangle_16" class="s8" d="m127 398.2h49v0.5h-49z"/>
						</g>
						<path id="Path_2225" class="s8" d="m156.5 353.4h-9.1q-0.2 0-0.3-0.1-0.1 0-0.3-0.1-0.1-0.1-0.1-0.3-0.1-0.1-0.1-0.3 0-0.2 0.1-0.3 0-0.2 0.1-0.3 0.2-0.1 0.3-0.1 0.1-0.1 0.3-0.1h9.1q0.2 0 0.3 0.1 0.2 0 0.3 0.1 0.1 0.1 0.1 0.3 0.1 0.1 0.1 0.3 0 0.2-0.1 0.3 0 0.2-0.1 0.3-0.1 0.1-0.3 0.1-0.1 0.1-0.3 0.1z"/>
						<path id="Path_2226" class="s8" d="m156.5 377.9h-9.1q-0.2 0-0.3-0.1-0.1-0.1-0.3-0.2-0.1-0.1-0.1-0.2-0.1-0.2-0.1-0.3 0-0.2 0.1-0.3 0-0.2 0.1-0.3 0.2-0.1 0.3-0.2 0.1 0 0.3 0h9.1q0.2 0 0.3 0 0.2 0.1 0.3 0.2 0.1 0.1 0.1 0.3 0.1 0.1 0.1 0.3 0 0.1-0.1 0.3 0 0.1-0.1 0.2-0.1 0.1-0.3 0.2-0.1 0.1-0.3 0.1z"/>
						<path id="Path_2227" class="s8" d="m156.5 403.4h-9.1q-0.2 0-0.3-0.1-0.1-0.1-0.3-0.2-0.1-0.1-0.1-0.2-0.1-0.2-0.1-0.3 0-0.2 0.1-0.3 0-0.2 0.1-0.3 0.2-0.1 0.3-0.2 0.1 0 0.3 0h9.1q0.2 0 0.3 0 0.2 0.1 0.3 0.2 0.1 0.1 0.1 0.3 0.1 0.1 0.1 0.3 0 0.1-0.1 0.3 0 0.1-0.1 0.2-0.1 0.1-0.3 0.2-0.1 0.1-0.3 0.1z"/>
					</g>
					<g id="Group_46">
						<path id="Path_2228" class="s9" d="m486.8 426.3q-0.2-0.1-0.3-0.3-0.2-0.1-0.3-0.3-0.1-0.2-0.1-0.4l-3.8-67 4.5 0.6 1.5 66.4q0 0.2-0.1 0.4 0 0.2-0.2 0.3-0.1 0.2-0.3 0.3-0.2 0-0.4 0h-0.1q-0.2 0-0.4 0z"/>
					</g>
					<g id="Group_47">
						<path id="Path_2229" class="s9" d="m513.1 426.3q-0.2-0.1-0.3-0.3-0.2-0.1-0.3-0.3-0.1-0.2-0.1-0.4l-3.8-67 4.5 0.6 1.5 66.4q0 0.2 0 0.4-0.1 0.2-0.3 0.3-0.1 0.2-0.3 0.3-0.2 0-0.4 0h-0.1q-0.2 0-0.4 0z"/>
					</g>
					<g id="Group_48">
						<path id="Path_2230" class="s9" d="m440.9 426.3h-0.1q-0.2 0-0.4 0-0.2-0.1-0.3-0.3-0.2-0.1-0.2-0.3-0.1-0.2-0.1-0.4l1.5-66.4 4.5-0.6-3.8 67q0 0.2-0.1 0.4-0.1 0.2-0.3 0.3-0.1 0.2-0.3 0.3-0.2 0-0.4 0z"/>
					</g>
					<path id="Path_2231" class="s10" d="m454.7 356.5v-47.3c0-1.9 0.4-3.8 1.1-5.6 0.7-1.7 1.8-3.3 3.1-4.7 1.4-1.3 3-2.4 4.7-3.1 1.8-0.7 3.7-1.1 5.6-1.1h32.8c1.9 0 3.8 0.4 5.6 1.1 1.7 0.7 3.3 1.8 4.7 3.1 1.3 1.4 2.4 3 3.1 4.7 0.7 1.8 1.1 3.7 1.1 5.6v45.5z"/>
					<path id="Rectangle_17" class="s9" d="m509.3 361.9h-60.5v-7.2h67.7q0 1.5-0.5 2.8-0.6 1.3-1.6 2.3-1 1-2.3 1.6-1.3 0.5-2.8 0.5z"/>
					<path id="Rectangle_18" class="s10" d="m488.8 361.9h-47.2q-0.7 0-1.4-0.3-0.6-0.2-1.2-0.7-0.5-0.5-0.7-1.2-0.3-0.7-0.3-1.4 0-0.7 0.3-1.3 0.2-0.7 0.7-1.2 0.6-0.5 1.2-0.8 0.7-0.3 1.4-0.3h47.2q0.7 0 1.3 0.3 0.7 0.3 1.2 0.8 0.5 0.5 0.8 1.2 0.3 0.6 0.3 1.3 0 0.7-0.3 1.4-0.3 0.7-0.8 1.2-0.5 0.5-1.2 0.7-0.6 0.3-1.3 0.3z"/>
					<g id="Group_51">
						<g id="Group_49">
							<path id="Path_2232" class="s9" d="m547.6 427.6q-0.3-0.1-0.5-0.3-0.2-0.2-0.3-0.5-0.1-0.2-0.1-0.5l-5.1-93.8 5.9 0.7 2.1 93.1q0 0.3-0.1 0.5-0.1 0.3-0.3 0.5-0.2 0.2-0.4 0.3-0.3 0.1-0.6 0.1h-0.1q-0.3 0-0.5-0.1z"/>
						</g>
						<g id="Group_50">
							<path id="Path_2233" class="s9" d="m402.4 427.7h-0.1q-0.3 0-0.5-0.1-0.3-0.1-0.5-0.3-0.1-0.2-0.2-0.5-0.1-0.2-0.1-0.5l2-93.1 6-0.7-5.1 93.8q0 0.3-0.1 0.5-0.2 0.3-0.4 0.5-0.2 0.2-0.4 0.3-0.3 0.1-0.6 0.1z"/>
						</g>
						<path id="Rectangle_19" class="s9" d="m392.5 331.7c0-1.8 1.4-3.2 3.2-3.2h162.7c1.8 0 3.3 1.4 3.3 3.2 0 1.8-1.5 3.3-3.3 3.3h-162.7c-1.8 0-3.2-1.5-3.2-3.3z"/>
					</g>
					<g id="Group_58">
						<g id="Group_53">
							<g id="Group_52">
								<path id="Rectangle_20" class="s3" d="m407.4 319.1h14.4q0.5 0 1 0.2 0.4 0.2 0.8 0.6 0.4 0.4 0.6 0.8 0.2 0.5 0.2 1 0 0.6-0.2 1.1-0.2 0.4-0.6 0.8-0.4 0.4-0.9 0.6-0.5 0.2-1 0.2h-14.3z"/>
								<path id="Path_2234" class="s11" d="m437 321.3v0.8q0 0.4-0.1 0.9-0.2 0.4-0.5 0.7-0.4 0.3-0.8 0.5-0.4 0.2-0.9 0.2h-27.8q0 0-0.1 0-0.1-0.1-0.1-0.1-0.1-0.1-0.1-0.1 0-0.1 0-0.1v-0.2q0 0 0-0.1 0 0 0.1-0.1 0 0 0.1-0.1 0.1 0 0.1 0h17q0.1-0.1 0.2-0.3 0.1-0.2 0.1-0.3 0.1-0.2 0.1-0.4 0.1-0.2 0.1-0.4v-1q0-0.1-0.1-0.3 0-0.2-0.1-0.3 0-0.2-0.1-0.4-0.1-0.1-0.2-0.3h-17q0 0-0.1 0-0.1 0-0.1-0.1-0.1 0-0.1-0.1 0 0 0-0.1v-0.1q0-0.1 0-0.1 0-0.1 0.1-0.2 0 0 0.1 0 0.1 0 0.1 0h28q0.4 0 0.8 0.1 0.4 0.2 0.7 0.5 0.3 0.3 0.5 0.7 0.1 0.4 0.1 0.8z"/>
								<path id="Path_2235" class="s12" d="m436.9 320.7h-12.6q0-0.1-0.1-0.2 0-0.1-0.1-0.2 0-0.1-0.1-0.2 0-0.1-0.1-0.2h-17q0 0-0.1 0-0.1 0-0.1-0.1-0.1 0-0.1-0.1 0 0 0-0.1v-0.1q0-0.1 0-0.2 0 0 0.1-0.1 0 0 0.1 0 0.1-0.1 0.1-0.1h28q0.3 0 0.7 0.2 0.3 0.1 0.6 0.3 0.2 0.2 0.4 0.5 0.2 0.3 0.3 0.6z"/>
							</g>
							<path id="Path_2236" class="s13" d="m407.4 321.8l2 0.1h-2z"/>
							<path id="Path_2237" class="s13" d="m407.4 322.6l4.9 0.1h-4.9z"/>
						</g>
						<g id="Group_57">
							<g id="Group_55">
								<g id="Group_54">
									<path id="Path_2238" class="s14" d="m410.1 328.3q-0.4-0.2-0.7-0.5-0.3-0.3-0.4-0.6-0.2-0.4-0.2-0.9 0-0.3 0.2-0.7 0.1-0.4 0.4-0.6 0.3-0.3 0.6-0.5 0.4-0.1 0.8-0.1h15.9v4.1h-15.8q-0.4 0-0.8-0.2z"/>
									<path id="Path_2239" class="s3" d="m425 328.3q-0.4-0.2-0.6-0.5-0.3-0.2-0.5-0.6-0.1-0.4-0.1-0.8 0-0.4 0.1-0.8 0.2-0.3 0.4-0.6 0.3-0.3 0.7-0.5 0.4-0.1 0.8-0.1h18v4.1h-18q-0.4 0-0.8-0.2z"/>
									<path id="Path_2240" class="s14" d="m422.4 328.4q0 0-0.1 0 0-0.1 0-0.1-0.1-0.1-0.1-0.1 0-0.1 0.1-0.2 0 0 0-0.1 0.1 0 0.1 0 0.1 0 0.1 0h21.9q0.1-0.1 0.1 0 0.1 0 0.1 0 0.1 0.1 0.1 0.1 0 0.1 0 0.2 0 0 0 0.1 0 0-0.1 0.1 0 0-0.1 0 0 0.1-0.1 0.1h-21.8q-0.1 0-0.2-0.1z"/>
									<path id="Path_2241" class="s14" d="m422.4 325q0-0.1-0.1-0.1 0 0 0-0.1-0.1-0.1-0.1-0.1 0-0.1 0.1-0.1 0-0.1 0-0.1 0.1-0.1 0.1-0.1 0.1 0 0.1 0h21.9q0.1 0 0.1 0 0.1 0 0.1 0.1 0.1 0 0.1 0.1 0 0 0 0.1 0 0 0 0.1 0 0.1-0.1 0.1 0 0-0.1 0.1 0 0-0.1 0h-21.8q-0.1 0-0.2 0z"/>
								</g>
								<path id="Path_2242" class="s13" d="m443.8 326.5h-2.4l2.4-0.1z"/>
								<path id="Path_2243" class="s13" d="m443.8 325.6l-5.8-0.1h5.8z"/>
							</g>
							<g id="Group_56">
								<path id="Path_2244" class="s10" d="m439.5 325.5q0 0 0.1 0 0 0.1 0 0.1 0 0 0.1 0 0 0 0 0.1 0.1 0 0.1 0.1 0 0.1 0 0.1 0.1 0.1 0.1 0.2 0 0.1 0 0.1v1.2l-0.7-0.4-0.8 0.4c0 0 0-0.9 0-1.2q0-0.1 0-0.1 0 0 0 0 0 0 0-0.1 0 0 0 0 0-0.1-0.1-0.1 0-0.1 0-0.2-0.1 0-0.1-0.1-0.1 0-0.1-0.1z"/>
								<path id="Path_2245" class="s9" d="m439.5 325.5c0.3 0.1 0.4 0.5 0.4 0.5h-1.5q0-0.1-0.1-0.1 0-0.1 0-0.2-0.1 0-0.1-0.1-0.1 0-0.1-0.1z"/>
							</g>
						</g>
					</g>
					<g id="Group_62">
						<g id="Group_61">
							<g id="Group_60">
								<g id="Group_59">
									<path id="Rectangle_21" class="s10" d="m429.7 315.2h7.8q0.4 0 0.7 0.2 0.4 0.1 0.7 0.4 0.2 0.3 0.4 0.6 0.1 0.3 0.1 0.7 0 0.4-0.1 0.8-0.2 0.4-0.5 0.7-0.3 0.2-0.6 0.4-0.4 0.1-0.8 0.1h-7.7z"/>
									<path id="Path_2246" class="s3" d="m431.9 319.1h-26.5v-3.9h26.6q0.4 0 0.7 0.2 0.4 0.1 0.7 0.4 0.2 0.3 0.4 0.6 0.1 0.4 0.1 0.8 0 0.4-0.1 0.7-0.2 0.4-0.5 0.7-0.2 0.2-0.6 0.4-0.4 0.1-0.8 0.1z"/>
									<path id="Path_2247" class="s10" d="m435.8 319.1h-31.4q0 0-0.1 0 0 0-0.1 0 0-0.1 0-0.1-0.1-0.1-0.1-0.2 0 0 0.1-0.1 0 0 0-0.1 0.1 0 0.1 0 0.1 0 0.1 0h31.4q0 0 0.1 0 0 0 0.1 0 0 0.1 0 0.1 0.1 0.1 0.1 0.1 0 0.1-0.1 0.2 0 0 0 0.1-0.1 0-0.1 0-0.1 0-0.1 0z"/>
									<path id="Path_2248" class="s10" d="m435.8 315.8h-31.4q0 0-0.1 0 0 0-0.1-0.1 0 0 0-0.1-0.1 0-0.1-0.1 0 0 0.1-0.1 0 0 0-0.1 0.1 0 0.1 0 0.1-0.1 0.1-0.1h31.4q0 0 0.1 0.1 0 0 0.1 0 0 0.1 0 0.1 0.1 0.1 0.1 0.1 0 0.1-0.1 0.1 0 0.1 0 0.1-0.1 0.1-0.1 0.1-0.1 0-0.1 0z"/>
								</g>
							</g>
						</g>
					</g>
					<g id="Group_67">
						<g id="Group_64">
							<g id="Group_63">
								<path id="Path_2249" class="s2" d="m542.1 325.8h-1.1v-19.3l11.5-29.3-20.5-15.9 0.7-0.9 21.1 16.4-11.7 29.9z"/>
							</g>
							<path id="Path_2250" class="s2" d="m529.7 263.4q-0.2-0.2-0.3-0.4-0.1-0.2-0.2-0.4 0-0.2 0-0.4 0.1-0.3 0.2-0.4l1.7-2.4q0.1-0.2 0.3-0.4 0.2-0.1 0.5-0.1 0.2 0 0.4 0 0.2 0.1 0.4 0.2 0.2 0.1 0.3 0.3 0.1 0.2 0.2 0.4 0 0.2 0 0.5-0.1 0.2-0.2 0.4l-1.7 2.4q-0.2 0.2-0.3 0.3-0.2 0.1-0.5 0.2-0.2 0-0.4-0.1-0.2 0-0.4-0.1z"/>
							<path id="Path_2251" class="s2" d="m551.4 276.9c0-0.6 0.4-1.2 0.9-1.4 0.6-0.2 1.2-0.1 1.7 0.3 0.4 0.4 0.5 1.1 0.3 1.6-0.3 0.6-0.8 1-1.4 1q-0.3 0-0.6-0.2-0.2-0.1-0.4-0.3-0.3-0.2-0.4-0.5-0.1-0.2-0.1-0.5z"/>
						</g>
						<g id="Group_65">
							<path id="Path_2252" class="s9" d="m532.2 280q-0.1 0.1-0.1 0.2-0.1 0.1-0.2 0.2c-1.5 1.3-6.6-1.1-11.5-5.5-4.9-4.4-7.9-9.2-6.7-10.8q0-0.1 0.1-0.2 0.1-0.1 0.2-0.2c2.1-2.4 5.2-3.9 8.4-4.1 3.3-0.1 6.4 1 8.9 3.1 2.4 2.2 3.8 5.2 4 8.5 0.2 3.2-0.9 6.4-3.1 8.8z"/>
							<path id="Path_2253" class="s10" d="m532.1 280.2q-0.1 0-0.1 0.1 0 0 0 0 0 0-0.1 0 0 0 0 0 0 0.1 0 0.1c-1.5 1.3-6.6-1.1-11.5-5.5-4.9-4.4-7.9-9.1-6.7-10.8q0 0 0 0 0-0.1 0-0.1 0 0 0 0 0 0 0.1 0 0 0 0-0.1 0 0 0 0 0 0 0 0 0 0 0 0c1.1-1 3.9-0.1 7.2 2q0.6 0.4 1.2 0.8 0.5 0.4 1.1 0.8 0.5 0.5 1 0.9 0.6 0.4 1.1 0.9 0.4 0.4 0.8 0.8 0.4 0.3 0.8 0.7 0.4 0.4 0.8 0.8 0.4 0.4 0.7 0.8c3 3.4 4.5 6.5 3.6 7.8z"/>
							<path id="Path_2254" class="s15" d="m528.5 272.4c-0.9 0.8-2.1 1.2-3.2 1.2-1.2 0-2.4-0.5-3.3-1.3-0.9-0.7-1.5-1.8-1.6-3-0.2-1.2 0-2.4 0.6-3.4q0.6 0.4 1.2 0.8 0.5 0.4 1.1 0.8 0.5 0.4 1.1 0.9 0.5 0.4 1 0.9 0.4 0.4 0.8 0.7 0.4 0.4 0.8 0.8 0.4 0.4 0.8 0.8 0.4 0.4 0.7 0.8z"/>
						</g>
						<g id="Group_66">
							<path id="Rectangle_22" class="s12" d="m538.8 325.2h5q0.6 0 1.2 0.3 0.6 0.2 1.1 0.7 0.4 0.4 0.7 1 0.2 0.6 0.2 1.3h-11.3v-0.2q0-0.6 0.3-1.2 0.2-0.5 0.6-1 0.5-0.4 1-0.6 0.6-0.3 1.2-0.3z"/>
							<path id="Rectangle_23" class="s2" d="m540.4 307.9h2.3v17.9h-2.3z"/>
						</g>
					</g>
					<g id="Group_68">
						<path id="Path_2255" fill-rule="evenodd" class="s14" d="m300.3 345.1l9.8-39.2 68.9 17.1zm12.9-34l-6.9 27.8 55.9-15.7z"/>
					</g>
					<path id="Rectangle_24" class="s16" d="m333.6 313.9l3.2 0.8-5.1 20.7-3.2-0.8z"/>
					<g id="Group_71">
						<path id="Path_2256" class="s17" d="m280.9 338.3c-4.7 29.4-8.6 61.1-6.9 77.8 1.4 4.7 5.7 6.2 9.5 6.8l-2.6 2.9-7.4 0.4-9.8-3.9q0.2-0.6 0.3-1.3 0.2-0.6 0.3-1.3 0.2-0.7 0.3-1.3 0.1-0.7 0.1-1.4c0.6-3.9-1.3-12.9-1.3-12.9 0 0-4.7-31-2-37.9q0.3-0.8 0.5-1.6 0.3-0.9 0.5-1.7 0.2-0.9 0.3-1.7 0.2-0.9 0.3-1.7c0.8-6.3 0.3-13.8-0.2-21.1-0.6-8-1.2-15.7-0.5-21.2q0.8-5.9 1.4-11.8 0.6-5.9 1.1-11.8 0.4-5.9 0.6-11.8 0.3-6 0.4-11.9h19.2c0 0 5.5 15.5 2.9 28.8-2.1 11.3-4.6 25.1-7 39.6z"/>
						<path id="Path_2257" class="s18" d="m263 359.5c0.8-6.3 0.3-13.8-0.2-21.1l14.2-5.8 3.9 5.7c-0.6 0.7-11.1 13.2-17.9 21.2z"/>
						<path id="Path_2258" class="s17" d="m318.2 250.5q0.5-0.5 0.9-0.9 0.5-0.5 1-0.9 0.4-0.4 0.9-0.9 0.5-0.4 1-0.8c1.5-1.1 5.9-2.3 6.4-0.3 0.2 0.8-1.4 2.7-2.5 3.4-1.1 0.6-1.3 1.5-2.4 2.7-1.2 1.2-4.1 1.2-4.1 1.2z"/>
						<path id="Path_2259" class="s19" d="m262.3 178.2q1-0.5 2.1-0.9 1-0.3 2.1-0.4 1.1-0.2 2.2 0 1.1 0.1 2.2 0.4c14.5-1.7 18.7 15.2 18.5 21-0.2 5.8-0.8 12.1 5.6 19.7 18.7 21.8-20.4 22.8-20.4 22.8-0.4-17.5-21.3-11.1-20.4-9.4-26.8 6.5-2.6-47.6 8.1-53.2z"/>
						<path id="Path_2260" class="s20" d="m283.2 221.2c0 0 6.5 1.5 8.4 4.4 1.9 2.9 9.9 25.9 11.3 26.6 1.3 0.7 15.4-2.9 15.7-2.5q0.5 0.6 0.8 1.3 0.3 0.7 0.4 1.4 0.1 0.8 0 1.5-0.1 0.8-0.4 1.5c0 0-5.3 7.3-12.5 10.4q-0.9 0.5-1.9 0.8-1 0.3-2 0.5-1 0.1-2.1 0.2-1 0-2-0.2c-5.9-0.8-10.6-5.2-13.6-9q-0.6-0.7-1.1-1.4-0.5-0.7-1-1.5-0.5-0.7-0.9-1.5-0.5-0.7-0.9-1.5z"/>
						<path id="Path_2261" class="s21" d="m286.4 251c4.3-2.7 7.4 5.5 10.3 10.7 2.8 5 10 4.2 10.2 4.1q-0.9 0.5-1.9 0.8-1 0.3-2 0.5-1 0.1-2.1 0.1-1 0.1-2-0.1c-5.9-0.8-10.6-5.2-13.6-9-0.7-3-0.8-5.9 1.1-7.1z"/>
						<path id="Path_2262" class="s17" d="m240.8 427.5h-6.6c-1.9 0-4.1-1.4-4.7-4.9-0.5-3.5-4.5-5.4-5.3-8.2-0.6-2 0.8-3.4 2.1-4.5 0.6-0.5 1.2-0.9 1.6-1.3 1.3-1.3 2.6-7.2 2.6-7.2l7 3.7q-0.7 1.3-1.2 2.8-0.5 1.5-0.7 3-0.1 1.5 0 3 0.1 1.6 0.5 3.1c0.9 2.9 1.7 5.6 3.6 7.3q0.2 0.2 0.4 0.3 0.2 0.2 0.4 0.3 0.2 0.1 0.4 0.2 0.2 0.1 0.4 0.2c3.1 1.4-0.5 2.2-0.5 2.2z"/>
						<path id="Path_2263" class="s20" d="m253.9 220.6c12.8-3.7 28.6-0.8 29.3 0.6q1.1 2.1 2 4.2 1 2.1 1.8 4.3 0.9 2.2 1.6 4.4 0.7 2.2 1.2 4.5c2.7 10.3-3.9 28.5-3.9 28.5l-14.3 4.3-4.6-1.1-12.9-3.2c0 0-1.7-0.5-3.2-3.9-0.6-1.4-4.8-6.9-5-11.1q-0.1-1.4-0.1-2.8-0.1-1.4-0.1-2.9 0-1.4 0.1-2.8 0-1.4 0.1-2.9z"/>
						<path id="Path_2264" class="s17" d="m280 271.4c0 0 4.6 19 1.8 23.7-11.8 19.8-14.7 46.7-15.3 51.8-0.9 7.2-15.7 27.8-30 60.4l-6-5.9c2.7-11.7 5.7-24.1 6.5-30.4 2.3-17.9 10.9-23.6 12.5-30.7 2.1-9.6-7.5-36.8-6.5-46.7 1-9.8 11.9-24.3 11.9-24.3z"/>
						<path id="Path_2265" class="s10" d="m288.6 302.8c-1.6 19.4-3.5 35.8-3.5 35.8q-2.4 1.5-5.1 2.7-2.6 1.2-5.4 2-2.8 0.9-5.6 1.4-2.9 0.6-5.8 0.7-2.4 0.2-4.9 0.1-2.5-0.2-5-0.6-2.4-0.4-4.8-1.1-2.4-0.7-4.7-1.7c-1.5-0.7-2.6-46.9-0.9-54.4 1.6-7.5 9.1-17.8 9.1-17.8l33.4 1.3c0 0 4.8 12.1 3.2 31.6z"/>
						<path id="Path_2266" class="s9" d="m286.5 267.9q0.1 0.8 0 1.5 0 0.7-0.2 1.4-0.2 0.7-0.6 1.4c-11.8 4.4-32.3-0.4-32.3-0.8q0-0.5 0-1.1 0.1-0.5 0.1-1 0.1-0.6 0.3-1.1 0.1-0.5 0.3-1.1c0 0 16.8 1.9 23.5 1.8 5.7-0.1 8.6-2.4 8.6-2.4q0.2 0.7 0.3 1.4z"/>
						<g id="Group_69">
							<path id="Path_2267" fill-rule="evenodd" class="s22" d="m276.2 271.2c0.1-1.2 1-2.2 2.1-2.6 1.2-0.3 2.5 0 3.3 0.9 0.8 0.9 1 2.3 0.5 3.4-0.5 1.1-1.6 1.8-2.8 1.8q-0.7 0-1.3-0.3-0.6-0.3-1-0.8-0.4-0.5-0.7-1.1-0.2-0.6-0.1-1.3zm1 0c0.1 0.8 0.7 1.5 1.5 1.7 0.8 0.2 1.6-0.1 2.2-0.7 0.5-0.6 0.6-1.5 0.3-2.3-0.4-0.7-1.1-1.2-1.9-1.2q-0.5 0.1-0.9 0.3-0.4 0.2-0.7 0.5-0.3 0.4-0.4 0.8-0.1 0.5-0.1 0.9z"/>
						</g>
						<path id="Rectangle_25" class="s16" d="m253 288.8l-21-18.3 25-28.8 21 18.3z"/>
						<path id="Path_2268" class="s17" d="m258.8 270.6c0 0 7.7 0.9 7.7 2.7-0.1 1.8-1.9 5.6-2.9 5.7-0.9 0.2-6.3-5-6.3-5z"/>
						<path id="Path_2269" class="s20" d="m260 238.5c-12.3 12.3-14.5 15.8-14.6 18.4 0 1.4 14 13.4 14 13.4 0.1 2-2.2 4.4-2.2 4.4-22.4-4.8-26.6-13.1-26.6-15.8 0-2.7 7.5-18.8 11.4-28.4 4-9.6 14.2-10.3 14.2-10.3 0 0 7.1 14.9 3.8 18.3z"/>
						<g id="Group_70">
							<path id="Path_2270" class="s2" d="m316.5 278.3q-0.1 0.2-0.3 0.3-0.3 0-0.5 0-0.2 0-0.4 0l-0.8-0.4q-0.3-0.1-0.5-0.4-0.3-0.2-0.4-0.5-0.1-0.3-0.1-0.6 0-0.3 0.1-0.7l32.8-89.2c0.2-0.4 0.3-0.6 0.7-0.5l0.4 0.1c0.4 0.2 0.2 0.6 0.1 1l-30.8 90.5q-0.1 0.2-0.3 0.4z"/>
						</g>
						<path id="Path_2271" class="s17" d="m320.9 250q0.4 0 0.8 0 0.3-0.1 0.7-0.1 0.4-0.1 0.7-0.1 0.4-0.1 0.7-0.2c1.2-0.3 2.7-0.9 2.7-0.9 0.9 0.7-2.2 2.4-3 3.6-0.6 1-1.3 1.3-3.1 1.7z"/>
						<path id="Path_2272" class="s23" d="m263.5 425.1q-0.1-0.3 0-0.7 0-0.3 0-0.7 0-0.3 0.1-0.7 0-0.3 0.1-0.7c2.8 0.3 6.9 2 10.9 2.3q1.2 0.1 2.3 0.1 1.1-0.1 2.2-0.3 1.1-0.2 2.2-0.5 1.1-0.4 2.1-0.9l0.1-0.1c3.1 0.8 6 1.4 5.7 2.2-0.3 0.8-2.3 2.8-8.3 2.8-6-0.1-4.9-1.2-9.2-0.6-4.2 0.5-8 0.5-8.2-2.2z"/>
						<path id="Path_2273" class="s23" d="m240.8 427.5h-6.6c-1.9 0-4.1-1.4-4.7-4.9-0.5-3.5-4.5-5.4-5.3-8.2-0.6-2 0.8-3.4 2.1-4.5q0.6 1.1 1.2 2.1 0.6 1.1 1 2.2 0.5 1.1 0.9 2.3 0.4 1.1 0.7 2.3c1.8 5.8 6.2 6 9.6 5.5q0.2 0.2 0.4 0.3 0.2 0.2 0.4 0.3 0.2 0.1 0.4 0.2 0.2 0.1 0.4 0.2c3.1 1.4-0.5 2.2-0.5 2.2z"/>
						<path id="Path_2274" class="s17" d="m257.8 219.7q0.8-0.1 1.5-0.5 0.7-0.3 1.3-0.9 0.6-0.5 1.1-1.1 0.4-0.7 0.7-1.4 0.4-1.3 0.7-2.6 0.3-1.3 0.5-2.6 0.2-1.3 0.3-2.6 0-1.3 0-2.7l0.7 0.2 10.9 2.1c0 0-0.3 3.5-0.3 6.7v0.1q0 1 0.3 2 0.4 1 1 1.8 0.6 0.8 1.4 1.4 0.9 0.6 1.9 0.9c1.3 0.4-6.6 10.8-7.5 10.6-1.9-0.4-15.1-11.2-14.5-11.4z"/>
						<path id="Path_2275" class="s18" d="m275.5 207.6c0 0-0.3 3.5-0.3 6.7-6.1-0.2-9.3-5.8-10.6-8.8z"/>
						<path id="Path_2276" class="s17" d="m277.5 210.7c0 0-14.4 0.2-14.5-8.8 0-9-1.8-15 7.4-15.6 9.2-0.5 11 2.9 11.8 5.9 0.7 3-0.9 18.2-4.7 18.5z"/>
						<path id="Path_2277" class="s19" d="m277 186.1c0 0-4 10.6-10 12.1-6.1 1.6-8.8 0-8.8 0q1.2-1 2.1-2.2 0.9-1.1 1.6-2.4 0.8-1.3 1.2-2.7 0.5-1.4 0.8-2.9c0.1-1 10.1-6.9 13.1-1.9z"/>
						<path id="Path_2278" class="s19" d="m281.7 187.2c3.4 4.1 0.4 12 0.4 11.3q0.1-1.1 0-2.2-0.1-1.1-0.3-2.1-0.3-1.1-0.7-2.1-0.4-1-0.9-1.9-0.4-0.6-0.9-1-0.4-0.5-1-0.9-0.5-0.4-1.1-0.8-0.6-0.3-1.2-0.5c0 0 2.2-4.1 5.7 0.2z"/>
						<path id="Path_2279" class="s22" d="m275.9 204.9q0.6-0.2 1.3-0.2 0.6-0.1 1.3 0 0.6 0.1 1.3 0.2c0 1.2-2.2 1.3-2.2 1.3-2.6 0.2-2.9-0.9-2.9-0.9q0.6-0.2 1.2-0.4z"/>
						<path id="Path_2280" class="s21" d="m263.7 229.6q0.2-0.4 0.5-0.7 0.2-0.3 0.4-0.7 0.3-0.3 0.5-0.7 0.2-0.3 0.4-0.7-0.4 0.2-0.9 0.4-0.4 0.1-0.9 0.2-0.5 0.1-0.9 0.2-0.5 0.1-1 0.2c-2.8-1.9-5.5-7.4-5.1-7.8q0.6-0.6 1.2-1.2 0.6-0.5 1.3-0.9 0.7-0.5 1.4-0.8 0.7-0.4 1.5-0.7c0.4 4.3 10.2 14.7 10.2 14.7-4.2 1-8.8-1.3-8.6-1.5z"/>
						<path id="Path_2281" class="s21" d="m280.1 220.2c0.5 1.2 0.1 5.1 0 5q-0.3-0.2-0.5-0.3-0.3-0.1-0.6-0.2-0.3 0-0.6 0.1-0.3 0-0.5 0.1 0.2 0.2 0.4 0.5 0.2 0.2 0.3 0.5 0.2 0.3 0.3 0.6 0.2 0.2 0.3 0.5c-2.3 3.3-6.9 4.1-6.9 4.1 7.3-7.2 3.4-14.3 3.4-14.3 1.1 0 3.9 2.3 4.4 3.4z"/>
						<path id="Path_2282" class="s2" d="m271.5 231.1c0-0.3 0.2-0.5 0.5-0.6 0.3-0.1 0.6-0.1 0.8 0.1 0.2 0.2 0.3 0.5 0.1 0.8-0.1 0.3-0.3 0.5-0.6 0.5q-0.2 0-0.3-0.1-0.1 0-0.2-0.1-0.1-0.1-0.2-0.3-0.1-0.1-0.1-0.3z"/>
						<path id="Path_2283" class="s2" d="m275.4 241.5c0-0.3 0.2-0.6 0.5-0.7 0.3-0.1 0.6-0.1 0.8 0.2 0.2 0.2 0.2 0.5 0.1 0.8-0.1 0.2-0.3 0.4-0.6 0.4q-0.2 0-0.3-0.1-0.2 0-0.3-0.1-0.1-0.1-0.1-0.2-0.1-0.2-0.1-0.3z"/>
						<path id="Path_2284" class="s2" d="m276.2 253.6c0-0.3 0.1-0.6 0.4-0.7 0.3-0.1 0.6 0 0.8 0.2 0.2 0.2 0.3 0.5 0.2 0.8-0.1 0.3-0.4 0.4-0.7 0.4q-0.2 0-0.3 0-0.1-0.1-0.2-0.2-0.1-0.1-0.2-0.2 0-0.2 0-0.3z"/>
						<path id="Path_2285" class="s9" d="m288.6 302.8c-1.6 19.4-3.5 35.8-3.5 35.8q-2.4 1.5-5.1 2.7-2.6 1.2-5.4 2-2.8 0.9-5.6 1.4-2.9 0.6-5.8 0.8 1.9-0.8 3.6-1.8 1.8-1 3.4-2.1 1.7-1.2 3.1-2.5 1.5-1.4 2.9-2.9c5.5-6.4 12.4-33.4 12.4-33.4z"/>
					</g>
					<g id="Group_72" style="opacity: .6">
						<path id="Path_2286" fill-rule="evenodd" class="s22" d="m371.4 158.7h1.2l3.2 7.3h-1.3l-0.8-1.8h-3.4l-0.8 1.8h-1.3zm1.8 4.5l-1.2-3-1.3 3z"/>
						<path id="Path_2287" fill-rule="evenodd" class="s22" d="m383.5 158.7h3.3q0.2 0 0.5 0 0.2 0.1 0.5 0.1 0.2 0.1 0.4 0.3 0.3 0.1 0.5 0.3 0.1 0.1 0.2 0.2 0.1 0.2 0.1 0.3 0.1 0.2 0.1 0.3 0.1 0.2 0.1 0.4 0 0.2-0.1 0.5-0.1 0.2-0.2 0.5-0.2 0.2-0.4 0.3-0.1 0.2-0.4 0.3 0.3 0.1 0.6 0.2 0.3 0.2 0.5 0.4 0.2 0.3 0.3 0.6 0.1 0.3 0.1 0.6c0 1.3-1.1 2-2.7 2h-3.4zm3 3.1c0.8 0 1.4-0.3 1.4-1 0-0.6-0.5-1-1.3-1h-1.9v2zm0.4 3.1c0.9 0 1.4-0.4 1.4-1.1 0-0.6-0.5-0.9-1.5-0.9h-2v2z"/>
						<path id="Path_2288" class="s22" d="m397.1 162.4q0-0.8 0.3-1.5 0.2-0.7 0.8-1.2 0.5-0.6 1.2-0.9 0.7-0.2 1.5-0.2 0.4 0 0.8 0 0.3 0.1 0.7 0.2 0.4 0.2 0.7 0.4 0.3 0.2 0.6 0.5l-0.8 1q-0.2-0.2-0.4-0.4-0.3-0.2-0.5-0.3-0.3-0.1-0.6-0.2-0.3 0-0.5 0c-0.7 0-1.3 0.3-1.8 0.8-0.4 0.5-0.7 1.1-0.7 1.8 0 0.6 0.3 1.3 0.7 1.7 0.5 0.5 1.1 0.8 1.8 0.9q0.3-0.1 0.5-0.1 0.3-0.1 0.6-0.2 0.3-0.1 0.5-0.3 0.3-0.2 0.5-0.4l0.8 0.8q-0.3 0.4-0.6 0.6-0.4 0.3-0.8 0.4-0.3 0.2-0.8 0.3-0.4 0-0.8 0-0.7 0-1.4-0.2-0.7-0.3-1.2-0.9-0.6-0.5-0.8-1.2-0.3-0.7-0.3-1.4z"/>
						<path id="Path_2289" fill-rule="evenodd" class="s22" d="m362.3 175.1h2.7c1-0.1 2 0.3 2.7 1 0.8 0.7 1.2 1.6 1.2 2.6 0 1-0.4 2-1.2 2.7-0.7 0.7-1.7 1-2.7 1h-2.7zm2.7 6.1c0.7 0 1.3-0.2 1.8-0.7 0.5-0.5 0.7-1.1 0.7-1.8 0-0.6-0.2-1.3-0.7-1.7-0.5-0.5-1.1-0.8-1.8-0.7h-1.4v4.9z"/>
						<path id="Path_2290" class="s22" d="m376.9 175.1h5.4v1.1h-4.2v1.9h3.7v1.2h-3.7v1.9h4.2v1.2h-5.4z"/>
						<path id="Path_2291" class="s22" d="m390.2 175.1h5.5v1.2h-4.2v1.9h3.7v1.2h-3.7v3h-1.2z"/>
						<path id="Path_2292" class="s22" d="m403.2 178.7q0-0.7 0.2-1.4 0.3-0.7 0.9-1.2 0.5-0.6 1.2-0.9 0.7-0.2 1.4-0.2 0.4-0.1 0.8 0 0.4 0.1 0.7 0.2 0.4 0.1 0.7 0.3 0.4 0.2 0.6 0.5l-0.8 0.9q-0.2-0.2-0.4-0.3-0.3-0.2-0.5-0.3-0.3-0.1-0.6-0.1-0.2-0.1-0.5-0.1-0.5 0.1-1 0.3-0.4 0.2-0.7 0.6-0.4 0.3-0.5 0.8-0.2 0.4-0.2 0.9 0 0.6 0.2 1 0.1 0.5 0.5 0.9 0.3 0.4 0.8 0.6 0.5 0.2 1 0.1 0.2 0.1 0.5 0 0.2 0 0.4-0.1 0.2-0.1 0.5-0.2 0.2-0.1 0.4-0.2v-1.4h-1.9v-1.1h3.1v3.1q-0.3 0.3-0.7 0.5-0.3 0.2-0.7 0.3-0.4 0.2-0.8 0.2-0.4 0.1-0.8 0.1-0.8 0-1.5-0.2-0.7-0.3-1.3-0.8-0.5-0.6-0.8-1.3-0.3-0.7-0.2-1.5z"/>
						<path id="Path_2293" class="s22" d="m358.6 191.5h1.3v3h3.5v-3h1.3v7.3h-1.3v-3.1h-3.5v3.1h-1.3z"/>
						<path id="Path_2294" class="s22" d="m373 191.5h1.3v7.3h-1.3z"/>
						<path id="Path_2295" class="s22" d="m382 197.7l0.8-0.9q0.1 0.2 0.3 0.4 0.1 0.1 0.3 0.2 0.2 0.2 0.4 0.2 0.2 0.1 0.5 0.1c0.7 0 1.1-0.5 1.1-1.4v-4.8h1.3v4.8q0.1 0.3 0 0.5 0 0.3-0.1 0.5-0.1 0.3-0.2 0.5-0.2 0.2-0.3 0.4-0.2 0.2-0.4 0.3-0.2 0.1-0.5 0.2-0.2 0.1-0.4 0.2-0.3 0-0.5 0-0.4 0-0.7-0.1-0.3-0.1-0.6-0.2-0.3-0.2-0.6-0.4-0.3-0.2-0.4-0.5z"/>
						<path id="Path_2296" class="s22" d="m394.9 191.5h1.3v3.6l3.5-3.6h1.5l-3 3.1 3.2 4.2h-1.6l-2.5-3.3-1.1 1.2v2.1h-1.3z"/>
						<path id="Path_2297" class="s22" d="m408.9 191.5h1.3v6.1h3.8v1.2h-5.1z"/>
						<path id="Path_2298" class="s22" d="m360.8 207.9h1.4l2.2 3.4 2.2-3.4h1.4v7.3h-1.3v-5.3l-2.3 3.5-2.3-3.5v5.3h-1.3z"/>
						<path id="Path_2299" class="s22" d="m376.3 207.9h1.2l3.9 5v-5h1.2v7.3h-1.1l-4-5.2v5.2h-1.2z"/>
						<path id="Path_2300" fill-rule="evenodd" class="s22" d="m390.6 211.5c0-1.5 0.9-3 2.3-3.6 1.4-0.6 3.1-0.2 4.2 0.9 1.1 1 1.4 2.7 0.8 4.1-0.6 1.4-2 2.4-3.5 2.4q-0.8 0-1.5-0.3-0.7-0.3-1.2-0.8-0.5-0.5-0.8-1.2-0.3-0.7-0.3-1.5zm6.3 0q0-0.5-0.2-1-0.2-0.5-0.5-0.8-0.4-0.4-0.8-0.6-0.5-0.2-1-0.2-0.5 0-1 0.2-0.4 0.2-0.8 0.6-0.3 0.3-0.5 0.8-0.2 0.5-0.2 1 0 0.5 0.2 1 0.2 0.5 0.5 0.8 0.4 0.4 0.8 0.6 0.5 0.2 1 0.2 0.5 0 1-0.2 0.5-0.2 0.8-0.6 0.3-0.3 0.5-0.8 0.2-0.5 0.2-1z"/>
						<path id="Path_2301" fill-rule="evenodd" class="s22" d="m406.2 207.9h2.9q0.5-0.1 1 0 0.5 0.2 0.9 0.6 0.4 0.3 0.6 0.8 0.2 0.5 0.2 1c0 1.7-1.3 2.5-2.9 2.5h-1.4v2.4h-1.3zm2.8 3.8c0.9 0 1.5-0.6 1.5-1.4 0-0.8-0.6-1.3-1.5-1.3h-1.5v2.7z"/>
						<path id="Path_2302" fill-rule="evenodd" class="s22" d="m368.1 231c-1.6 1.1-3.8 0.8-5-0.7-1.3-1.5-1.2-3.7 0.2-5.1 1.4-1.4 3.7-1.5 5.2-0.2 1.4 1.3 1.7 3.5 0.5 5.1l0.8 0.7-0.8 1zm-0.9-0.9l-1.3-1.1 0.8-0.9 1.3 1.2q0.4-0.6 0.4-1.3 0-0.7-0.3-1.3-0.3-0.6-0.9-1-0.6-0.4-1.3-0.4-0.5 0-1 0.2-0.4 0.2-0.8 0.5-0.3 0.4-0.5 0.9-0.2 0.5-0.2 1 0 0.5 0.2 1 0.2 0.4 0.5 0.8 0.4 0.4 0.8 0.6 0.5 0.2 1 0.2 0.2 0 0.4 0 0.1-0.1 0.3-0.1 0.1-0.1 0.3-0.1 0.1-0.1 0.3-0.2z"/>
						<path id="Path_2303" fill-rule="evenodd" class="s22" d="m377.7 224.2h3.3c1.7 0 2.7 1 2.7 2.4q0 0.3-0.1 0.7-0.1 0.4-0.4 0.7-0.2 0.3-0.6 0.5-0.3 0.2-0.7 0.3l2 2.7h-1.5l-1.8-2.5h-1.6v2.5h-1.3zm3.2 3.7c0.9 0 1.5-0.5 1.5-1.3 0-0.8-0.6-1.2-1.5-1.2h-1.9v2.5z"/>
						<path id="Path_2304" class="s22" d="m391.2 230.5l0.8-0.9q0.2 0.2 0.4 0.4 0.3 0.1 0.6 0.2 0.3 0.2 0.6 0.2 0.3 0.1 0.7 0.1c0.7 0 1.2-0.4 1.2-0.9 0-0.6-0.2-0.8-1.6-1.2-1.6-0.3-2.4-0.8-2.4-2.1q0-0.5 0.2-0.9 0.2-0.4 0.6-0.8 0.3-0.3 0.8-0.4 0.4-0.1 0.9-0.1 0.3 0 0.7 0.1 0.3 0 0.7 0.2 0.3 0.1 0.6 0.2 0.3 0.2 0.6 0.5l-0.7 0.9q-0.2-0.1-0.4-0.3-0.3-0.1-0.5-0.2-0.3-0.1-0.5-0.2-0.3 0-0.6 0c-0.7 0-1.2 0.4-1.2 0.9 0 0.5 0.4 0.8 1.8 1.1 1.5 0.4 2.3 0.9 2.3 2.2 0 1.3-1 2.1-2.6 2.1q-0.4 0-0.8 0-0.4-0.1-0.8-0.3-0.4-0.1-0.8-0.3-0.3-0.2-0.6-0.5z"/>
						<path id="Path_2305" class="s22" d="m406.6 225.4h-2.4v-1.2h6v1.2h-2.4v6.1h-1.3z"/>
						<path id="Path_2306" class="s22" d="m366.8 244.8v-4.2h1.3v4.2c0 1.3 0.7 2.1 1.8 2.1 1.2 0 1.8-0.7 1.8-2.1v-4.2h1.3v4.2c0 2.1-1.2 3.2-3.1 3.2q-0.7 0.1-1.3-0.1-0.6-0.3-1-0.7-0.5-0.5-0.7-1.1-0.2-0.6-0.1-1.3z"/>
						<path id="Path_2307" class="s22" d="m380.6 240.6h1.4l2.2 5.6 2.2-5.6h1.4l-3.1 7.4h-1.1z"/>
						<path id="Path_2308" class="s22" d="m394.9 240.6h1.4l1.7 5.4 1.8-5.4h1.1l1.8 5.4 1.7-5.4h1.3l-2.5 7.4h-1.1l-1.8-5.3-1.8 5.3h-1.1z"/>
						<path id="Path_2309" class="s3" d="m371.5 260.6l-2.6-3.6h1.5l1.9 2.6 1.8-2.6h1.4l-2.5 3.6 2.7 3.7h-1.6l-1.9-2.8-1.9 2.8h-1.5z"/>
						<path id="Path_2310" class="s3" d="m385.5 261.4l-2.9-4.4h1.5l2.1 3.2 2.1-3.2h1.4l-2.9 4.4v2.9h-1.3z"/>
						<path id="Path_2311" class="s3" d="m397 263.4l4.3-5.3h-4.2v-1.1h5.9v0.9l-4.3 5.3h4.3v1.1h-6z"/>
					</g>
					<g id="Group_77">
						<g id="Group_73">
							<path id="Rectangle_26" class="s24" d="m510.8 307.3l1.3-0.2 2.5 15.3-1.3 0.2z"/>
							<path id="Path_2312" class="s25" d="m512.1 307.1l-1.3 0.2 0.2-2.8z"/>
						</g>
						<g id="Group_74">
							<path id="Rectangle_27" class="s24" d="m524.9 308.4l1.3 0.2-2.9 15.2-1.3-0.2z"/>
							<path id="Path_2313" class="s25" d="m526.2 308.6l-1.3-0.2 1.1-2.6z"/>
						</g>
						<g id="Group_75">
							<path id="Rectangle_28" class="s24" d="m523.2 303.9l1.3 0.3-2.8 15.2-1.3-0.3z"/>
							<path id="Path_2314" class="s25" d="m524.5 304.2l-1.3-0.3 1.2-2.5z"/>
						</g>
						<g id="Group_76">
							<path id="Rectangle_29" class="s9" d="m515.7 313.6h10.3v14.9h-10.3z"/>
							<path id="Rectangle_30" class="s10" d="m510.5 313.6h10.4v14.9h-10.4z"/>
						</g>
					</g>
					<g id="Group_84">
						<g id="Group_79">
							<path id="Path_2315" class="s26" d="m139.7 312.7c-0.3 3-6.1 5.6-9.7 6.2-3.6 0.5-2.5-1-1.2-3.2 1.2-2.1 5.1-3.1 6-4.1 0.9-1-0.9-1-3.1 0-2.1 0.9-2.4 3.6-5.9 5.2-3.5 1.7-8.7-4.1-8.7-4.1 2.8-0.1 6.7-3.1 6.6-4-0.2-0.9-6.7 1.6-7.8 1.7-1.2 0.1-3.7-1.3-4.1-5.8-0.4-4.5 7-5.8 7-5.8 0 0 7.3 5.5 8.8 5.1 1.4-0.3-5.4-5.9-5.4-5.9 2.6-1.2 10.5-0.4 10.5-0.4 0 0 2.7 8.5 4 7.9 1.3-0.7-2.8-7.5-2.8-7.5 2.9-0.2 6.4 2 6.4 2 4.8 3.7-0.3 9.7-0.3 9.7z"/>
							<g id="Group_78">
								<path id="Path_2316" class="s27" d="m115.4 304.7c0 0 20.1-0.8 24.6 5q0.3 0.8 0.7 1.6 0.4 0.7 0.9 1.4 0.5 0.7 1.1 1.4 0.6 0.6 1.3 1.2l0.4 1.3c0 0-3.4-3.7-4.7-3.9 0 0 2-7.1-24.3-8z"/>
								<path id="Path_2317" class="s28" d="m144 315.3q1 0.8 1.8 1.8 0.8 1 1.4 2.2 0.6 1.1 0.9 2.4 0.4 1.2 0.5 2.5l-0.8 0.1c0 0-1.4-5.9-3.9-8.2-2.5-2.3 0.1-0.8 0.1-0.8z"/>
							</g>
						</g>
						<g id="Group_81">
							<path id="Path_2318" class="s29" d="m157.8 302.2c0 0-8.1-4.5-4.3-10.7 0 0 3-3.8 6.2-4.7 0 0-1.7 9.1 0 9.4 1.8 0.2 1.2-10.4 1.2-10.4 0 0 8.6-4.1 11.9-3.8 0 0-5.3 9-3.5 8.8 1.7-0.3 7.6-9.3 7.6-9.3 0 0 8.8-1.7 10.2 3.5 1.4 5.2-0.9 7.8-2.2 8.1-1.3 0.4-9.6 0.2-9.4 1.3 0.2 1.1 5.9 2.8 9 1.9 0 0-3.5 8.5-8 8.1-4.5-0.5-5.9-3.3-8.8-3.5-2.8-0.2-4.8 0.6-3.4 1.3 1.4 0.8 6.1 0.3 8.4 2.2 2.3 1.9 4.1 3.1-0.1 4-4.2 0.8-11.8 0.3-13.3-2.9z"/>
							<g id="Group_80">
								<path id="Path_2319" class="s30" d="m159.3 305.4c-1.3 0.8-3.7 6.3-3.7 6.3v-1.6q0.5-0.9 0.9-1.9 0.4-0.9 0.7-1.9 0.3-1 0.4-2 0.2-1.1 0.2-2.1c2.6-8.2 25.3-15.6 25.3-15.6-28.9 11.7-23.8 18.8-23.8 18.8z"/>
								<path id="Path_2320" class="s31" d="m156 310.9c-1.9 3.6-1 10.7-1 10.7l-0.9 0.3q-0.4-1.5-0.5-3-0.1-1.5 0.1-3.1 0.2-1.5 0.6-2.9 0.5-1.5 1.3-2.8c0 0 2.2-2.8 0.4 0.8z"/>
							</g>
						</g>
						<g id="Group_83">
							<path id="Path_2321" class="s32" d="m142.9 300.2c-2 4.3-12 5-17.5 3.9-5.6-1.2-3.2-2.7-0.2-5.3 3-2.5 9.3-1.9 11.1-2.9 1.9-1-0.8-2-4.5-1.7-3.7 0.3-5.6 4-11.6 4.6-6 0.6-10.5-10.7-10.5-10.7 4.1 1.3 11.5-1 11.8-2.4 0.3-1.4-10.7-1.3-12.4-1.7-1.7-0.5-4.7-3.9-2.8-10.7 1.8-6.9 13.4-4.7 13.4-4.7 0 0 7.8 11.9 10.1 12.2 2.3 0.3-4.7-11.5-4.7-11.5 4.4-0.4 15.7 5 15.7 5 0 0-0.8 13.9 1.5 13.7 2.3-0.3 0-12.4 0-12.4 4.3 1.2 8.3 6.2 8.3 6.2 5 8.2-5.7 14.1-5.7 14.1z"/>
							<g id="Group_82">
								<path id="Path_2322" class="s33" d="m111.5 275.4c0 0 30 9.7 33.4 20.5q0 1.4 0.2 2.8 0.2 1.3 0.6 2.6 0.3 1.3 0.9 2.6 0.5 1.3 1.1 2.4v2.2c0 0-3.1-7.3-4.8-8.3 0 0 6.7-9.4-31.4-24.8z"/>
								<path id="Path_2323" class="s34" d="m147.7 306.3q1.1 1.8 1.7 3.7 0.7 1.9 0.9 3.9 0.3 2 0.1 4-0.1 2-0.7 4l-1.2-0.3c0 0 1.2-9.4-1.2-14.2-2.4-4.7 0.4-1.1 0.4-1.1z"/>
							</g>
						</g>
						<path id="Path_2324" class="s9" d="m166.2 319.5c0 5.5-2.2 10.9-6.1 14.9-3.9 3.9-9.3 6.1-14.8 6.1-5.6 0-11-2.2-14.9-6.1-3.9-4-6.1-9.4-6.1-14.9z"/>
						<path id="Path_2325" class="s10" d="m166.2 319.5c0 2.1-0.3 4.3-1 6.3-0.7 2.1-1.6 4-2.9 5.8-1.2 1.7-2.7 3.3-4.5 4.6-1.7 1.3-3.6 2.3-5.7 3-1.1-0.4-4.7 0.3-5.7-0.3-6.4-3.6-8.3-11.6-8.3-19.4z"/>
						<path id="Path_2326" class="s9" d="m124.2 340.5q0.2-0.5 0.6-0.9 0.3-0.3 0.8-0.5 0.5-0.2 1-0.2h37.3q0.5 0 1 0.2 0.5 0.2 0.8 0.5 0.4 0.4 0.6 0.9 0.2 0.4 0.2 1h-42.5q0-0.6 0.2-1z"/>
						<path id="Path_2327" class="s10" d="m144.1 340.5q0.2-0.5 0.6-0.9 0.3-0.3 0.8-0.5 0.5-0.2 1-0.2h17.4q0.5 0 1 0.2 0.5 0.2 0.8 0.5 0.4 0.4 0.6 0.9 0.2 0.4 0.2 1h-22.6q0-0.6 0.2-1z"/>
						<path id="Rectangle_31" class="s9" d="m166.9 320.1h-43.1v-0.6h43.1z"/>
					</g>
				</g>
				<path id="Rectangle_32" class="s35" d="m32 435h593v1h-593z"/>
			</g>
		</g>
	</g>
</svg>