<svg xmlns="http://www.w3.org/2000/svg" width="59.137" height="49.784" viewBox="0 0 59.137 49.784">
  <g id="user-guide-svgrepo-com" transform="translate(0 -33.828)">
    <path id="Path_28136" data-name="Path 28136" d="M254.555,216.541l-4.807-4.807a2.951,2.951,0,0,0-1.906-.86l-1.633-1.633a9.987,9.987,0,1,0-3.139,3.138l1.633,1.633a2.945,2.945,0,0,0,.86,1.906l4.807,4.807a2.959,2.959,0,1,0,4.184-4.185Zm-11.831-7.646a7.028,7.028,0,1,1,0-9.938A7.036,7.036,0,0,1,242.724,208.895Z" transform="translate(-196.285 -137.98)" fill="#fff"/>
    <path id="Path_28137" data-name="Path 28137" d="M32.738,57.369a12.125,12.125,0,0,1,20.634,7.29,12.205,12.205,0,0,1-.971,6.2l.029.029a5.1,5.1,0,0,1,2.393,1.347l.474.475V39.533a1.578,1.578,0,0,0-.691-1.305,24.162,24.162,0,0,0-26.958-.569,24.6,24.6,0,0,0-13.043-3.831,24.735,24.735,0,0,0-13.915,4.4A1.578,1.578,0,0,0,0,39.533V76.52a1.578,1.578,0,0,0,2.465,1.306,21.6,21.6,0,0,1,12.141-3.854,21.6,21.6,0,0,1,12.143,3.854,1.572,1.572,0,0,0,.886.273h.005a1.575,1.575,0,0,0,.908-.273,22.832,22.832,0,0,1,4.995-2.57c-.277-.232-.546-.475-.8-.734A12.143,12.143,0,0,1,32.738,57.369Zm-.523-12.9c2.96-2.023,7-2.325,9.151-2.325s6.192.3,9.151,2.325a1.6,1.6,0,1,1-1.8,2.638,13.564,13.564,0,0,0-7.348-1.768A13.562,13.562,0,0,0,34.019,47.1a1.6,1.6,0,1,1-1.8-2.638Zm0,6.912c2.96-2.023,7-2.325,9.151-2.325s6.192.3,9.151,2.325a1.6,1.6,0,1,1-1.8,2.638,13.564,13.564,0,0,0-7.348-1.768,13.562,13.562,0,0,0-7.348,1.768,1.6,1.6,0,1,1-1.8-2.638ZM23.5,67.422a1.6,1.6,0,0,1-2.221.417,13.563,13.563,0,0,0-7.348-1.768,13.563,13.563,0,0,0-7.348,1.768,1.6,1.6,0,1,1-1.8-2.638c2.96-2.024,7-2.325,9.152-2.325s6.192.3,9.152,2.325A1.6,1.6,0,0,1,23.5,67.422Zm0-6.912a1.6,1.6,0,0,1-2.221.417,13.563,13.563,0,0,0-7.348-1.768,13.563,13.563,0,0,0-7.348,1.768,1.6,1.6,0,1,1-1.8-2.638c2.96-2.023,7-2.325,9.152-2.325s6.192.3,9.152,2.325A1.6,1.6,0,0,1,23.5,60.509Zm0-6.912a1.6,1.6,0,0,1-2.221.417,13.564,13.564,0,0,0-7.348-1.768,13.563,13.563,0,0,0-7.348,1.768,1.6,1.6,0,1,1-1.8-2.638c2.96-2.023,7-2.325,9.152-2.325s6.192.3,9.152,2.325A1.6,1.6,0,0,1,23.5,53.6Zm0-6.912a1.6,1.6,0,0,1-2.221.417,13.565,13.565,0,0,0-7.348-1.768A13.563,13.563,0,0,0,6.582,47.1a1.6,1.6,0,1,1-1.8-2.638c2.96-2.023,7-2.325,9.152-2.325s6.192.3,9.152,2.325A1.6,1.6,0,0,1,23.5,46.685Z" fill="#fff"/>
  </g>
</svg>
